<?xml version="1.0" encoding="UTF-8"?>
<!DOCTYPE svg PUBLIC "-//W3C//DTD SVG 1.1//EN" "http://www.w3.org/Graphics/SVG/1.1/DTD/svg11.dtd">
<!-- Creator: CorelDRAW -->
<svg xmlns="http://www.w3.org/2000/svg" xml:space="preserve" width="176.389mm" height="176.389mm" version="1.1" style="shape-rendering:geometricPrecision; text-rendering:geometricPrecision; image-rendering:optimizeQuality; fill-rule:evenodd; clip-rule:evenodd"
viewBox="0 0 7995.4 7995.4"
 xmlns:xlink="http://www.w3.org/1999/xlink"
 xmlns:xodm="http://www.corel.com/coreldraw/odm/2003">
 <defs>
  <style type="text/css">
   <![CDATA[
    .fil9 {fill:#2A1C3F;fill-rule:nonzero}
    .fil17 {fill:#2D2F60;fill-rule:nonzero}
    .fil6 {fill:#363A79;fill-rule:nonzero}
    .fil8 {fill:#3D285B;fill-rule:nonzero}
    .fil0 {fill:#3F9199;fill-rule:nonzero}
    .fil3 {fill:#422A62;fill-rule:nonzero}
    .fil5 {fill:#424890;fill-rule:nonzero}
    .fil12 {fill:#492F6E;fill-rule:nonzero}
    .fil7 {fill:#4F54AA;fill-rule:nonzero}
    .fil1 {fill:#52AEB5;fill-rule:nonzero}
    .fil4 {fill:#72C6CA;fill-rule:nonzero}
    .fil2 {fill:#999999;fill-rule:nonzero}
    .fil11 {fill:#C6A7A7;fill-rule:nonzero}
    .fil15 {fill:#DF8C82;fill-rule:nonzero}
    .fil20 {fill:#EB5660;fill-rule:nonzero}
    .fil10 {fill:#EBD8D8;fill-rule:nonzero}
    .fil14 {fill:#F4B1A7;fill-rule:nonzero}
    .fil16 {fill:#FFC4BC;fill-rule:nonzero}
    .fil13 {fill:white;fill-rule:nonzero}
    .fil18 {fill:white;fill-rule:nonzero;fill-opacity:0.050980}
    .fil19 {fill:white;fill-rule:nonzero;fill-opacity:0.149020}
   ]]>
  </style>
 </defs>
 <g id="Слой_x0020_1">
  <metadata id="CorelCorpID_0Corel-Layer"/>
  <path class="fil0" d="M5484.47 482.62c-291.12,0 -527.12,236 -527.12,527.12 0,291.12 236,527.12 527.12,527.12 291.12,0 527.12,-236 527.12,-527.12 0,-291.12 -236,-527.12 -527.12,-527.12z"/>
  <polygon class="fil0" points="5764.66,3309.33 5764.66,4209.5 6664.7,4209.5 6664.7,3309.33 "/>
  <polygon class="fil0" points="648.4,2498.44 648.4,3398.61 1548.45,3398.61 1548.45,2498.44 "/>
  <polygon class="fil0" points="6840.18,2497.17 6840.18,3136.94 7479.86,3136.94 7479.86,2497.17 "/>
  <path class="fil1" d="M7995.4 5017.75c-1111.63,-387.26 -2591.15,-623.49 -4215.38,-623.49 -1420.44,0 -2730.19,180.68 -3780.02,485.03l0 2674.35 7995.4 0 0 -2535.89z"/>
  <path class="fil2" d="M4206.23 7738.41c-1236.77,0 -2289.31,49.46 -2683.13,118.57 -28.94,5.08 -49.92,30.55 -49.92,60.19 0,29.66 20.97,55.11 49.93,60.21 35.16,6.17 75.55,12.19 120.9,18.02l5124.42 0c183.57,-23.63 286.68,-50.17 286.68,-78.23 0,-98.73 -1275.49,-178.77 -2848.89,-178.77z"/>
  <polygon class="fil3" points="7995.4,7553.64 -0,7553.64 -0,7661.09 7995.4,7661.09 "/>
  <polygon class="fil1" points="5898.24,3310.8 5898.24,4072.95 6660.23,4072.95 6660.23,3310.8 "/>
  <polygon class="fil4" points="5898.24,3779.8 5898.24,3954.14 6541.58,3310.8 6367.23,3310.8 "/>
  <polygon class="fil4" points="6211.85,4072.95 6660.23,3624.57 6660.23,3450.23 6037.51,4072.95 "/>
  <path class="fil5" d="M5829.22 3241.8l0 900.17 900.04 0 0 -900.17 -900.04 0zm771.52 771.64l0 0 -643 0 0 -643.12 643 0 0 643.12z"/>
  <polygon class="fil6" points="5893.44,4077.55 6729.26,4117.05 6729.26,4141.96 5829.22,4141.96 5829.22,3241.8 5870.4,3241.8 "/>
  <path class="fil7" d="M6677.04 3287.1c-15,0 -27.16,31.5 -27.16,70.35 0,38.86 12.16,70.35 27.16,70.35 14.99,0 27.15,-31.5 27.15,-70.35 0,-38.85 -12.16,-70.35 -27.15,-70.35z"/>
  <path class="fil7" d="M6681.16 3467.3c-9.09,0 -16.45,21.92 -16.45,48.96 0,27.04 7.37,48.96 16.45,48.96 9.09,0 16.46,-21.92 16.46,-48.96 0,-27.04 -7.37,-48.96 -16.46,-48.96z"/>
  <polygon class="fil1" points="794.44,2440.51 794.44,3202.66 1556.44,3202.66 1556.44,2440.51 "/>
  <polygon class="fil4" points="794.44,2909.51 794.44,3083.85 1437.78,2440.51 1263.44,2440.51 "/>
  <polygon class="fil4" points="1108.05,3202.66 1556.44,2754.28 1556.44,2579.94 933.71,3202.66 "/>
  <path class="fil5" d="M725.42 2371.5l0 900.17 900.04 0 0 -900.17 -900.04 0zm771.52 771.65l0 0 -643 0 0 -643.13 643 0 0 643.13z"/>
  <polygon class="fil6" points="789.64,3207.27 1625.46,3246.76 1625.46,3271.68 725.42,3271.68 725.42,2371.5 766.61,2371.5 "/>
  <path class="fil7" d="M1573.24 2416.81c-14.99,0 -27.15,31.49 -27.15,70.35 0,38.86 12.16,70.35 27.15,70.35 14.99,0 27.15,-31.49 27.15,-70.35 0,-38.86 -12.16,-70.35 -27.15,-70.35z"/>
  <path class="fil7" d="M1577.36 2597.01c-9.09,0 -16.46,21.92 -16.46,48.96 0,27.04 7.37,48.96 16.46,48.96 9.09,0 16.45,-21.92 16.45,-48.96 0,-27.04 -7.37,-48.96 -16.45,-48.96z"/>
  <polygon class="fil1" points="6940.57,2501.32 6940.57,3043 7482.13,3043 7482.13,2501.32 "/>
  <polygon class="fil0" points="6935.12,2927.34 7364.24,2498.22 7232.76,2498.22 6935.12,2795.85 "/>
  <polygon class="fil0" points="7148.68,3039.9 7476.69,2711.89 7476.69,2580.4 7017.2,3039.9 "/>
  <path class="fil5" d="M6886.06 2449.17l0 639.77 639.68 0 0 -639.77 -639.68 0zm548.34 548.43l0 0 -456.99 0 0 -457.09 456.99 0 0 457.09z"/>
  <polygon class="fil6" points="6931.71,3043.17 7525.74,3071.24 7525.74,3088.94 6886.06,3088.94 6886.06,2449.17 6915.34,2449.17 "/>
  <path class="fil7" d="M7488.63 2481.37c-10.66,0 -19.3,22.39 -19.3,50 0,27.61 8.64,50 19.3,50 10.66,0 19.3,-22.38 19.3,-50 0,-27.61 -8.64,-50 -19.3,-50z"/>
  <path class="fil7" d="M7491.56 2609.44c-6.46,0 -11.69,15.58 -11.69,34.79 0,19.22 5.24,34.8 11.69,34.8 6.46,0 11.7,-15.58 11.7,-34.8 0,-19.21 -5.24,-34.79 -11.7,-34.79z"/>
  <polygon class="fil5" points="1988.23,7553.64 94.56,7553.64 94.56,4775.89 1988.23,4775.89 "/>
  <path class="fil7" d="M1789.03 5212.77c0,65.54 -22.14,118.67 -49.44,118.67 -27.31,0 -49.45,-53.13 -49.45,-118.67 0,-65.54 22.14,-118.67 49.45,-118.67 27.31,0 49.44,53.13 49.44,118.67z"/>
  <path class="fil7" d="M1778.82 5452.22c0,35.83 -17.56,64.87 -39.24,64.87 -21.67,0 -39.24,-29.04 -39.24,-64.87 0,-35.83 17.56,-64.87 39.24,-64.87 21.67,0 39.24,29.04 39.24,64.87z"/>
  <path class="fil7" d="M1803.54 6339.69c0,65.54 -22.14,118.67 -49.44,118.67 -27.31,0 -49.45,-53.13 -49.45,-118.67 0,-65.54 22.14,-118.67 49.45,-118.67 27.31,0 49.44,53.13 49.44,118.67z"/>
  <path class="fil7" d="M1793.34 6579.14c0,35.83 -17.57,64.87 -39.24,64.87 -21.67,0 -39.24,-29.05 -39.24,-64.87 0,-35.83 17.57,-64.87 39.24,-64.87 21.67,0 39.24,29.04 39.24,64.87z"/>
  <path class="fil7" d="M1882.02 7144.04c0,65.54 -22.13,118.67 -49.44,118.67 -27.31,0 -49.44,-53.13 -49.44,-118.67 0,-65.54 22.14,-118.67 49.44,-118.67 27.31,0 49.44,53.13 49.44,118.67z"/>
  <path class="fil6" d="M497.86 7410.18c-199.44,0 -361.11,-161.68 -361.11,-361.11l0 -2273.19 -42.19 0 0 2777.75 1893.67 0 0 -143.45 -1490.37 0z"/>
  <path class="fil6" d="M1940.41 5824.05l-1798.03 0c-26.41,0 -47.82,-21.41 -47.82,-47.82 0,-26.41 21.41,-47.82 47.82,-47.82l1798.03 0c26.41,0 47.82,21.41 47.82,47.82 0,26.41 -21.41,47.82 -47.82,47.82z"/>
  <path class="fil6" d="M1831.21 5644.46l-1579.63 0c-42.45,0 -76.99,-34.54 -76.99,-76.99l0 -636.6c0,-42.44 34.54,-76.99 76.99,-76.99l1579.63 0c42.45,0 76.99,34.54 76.99,76.99l0 636.6c0,42.45 -34.54,76.99 -76.99,76.99zm-1579.63 -742.6l0 0c-16,0 -29.01,13.01 -29.01,29.01l0 636.6c0,16.01 13.02,29.01 29.01,29.01l1579.63 0c16,0 29.01,-13.01 29.01,-29.01l0 -636.6c0,-16.01 -13.02,-29.01 -29.01,-29.01l-1579.63 0z"/>
  <path class="fil6" d="M1704.66 5024.66l-1326.52 0c-8.83,0 -15.99,-7.15 -15.99,-15.99 0,-8.84 7.16,-15.99 15.99,-15.99l1326.52 0c8.83,0 15.99,7.15 15.99,15.99 0,8.84 -7.16,15.99 -15.99,15.99z"/>
  <path class="fil6" d="M1041.39 5526.71c-62.47,0 -113.3,-50.83 -113.3,-113.29 0,-62.46 50.83,-113.29 113.3,-113.29 62.48,0 113.3,50.83 113.3,113.29 0,62.47 -50.82,113.29 -113.3,113.29zm0 -178.62l0 0c-36.02,0 -65.33,29.3 -65.33,65.32 0,36.03 29.3,65.32 65.33,65.32 36.02,0 65.32,-29.3 65.32,-65.32 0,-36.03 -29.3,-65.32 -65.32,-65.32z"/>
  <path class="fil6" d="M1940.41 6950.3l-1798.03 0c-26.41,0 -47.82,-21.41 -47.82,-47.82 0,-26.41 21.41,-47.82 47.82,-47.82l1798.03 0c26.41,0 47.82,21.41 47.82,47.82 0,26.41 -21.41,47.82 -47.82,47.82z"/>
  <path class="fil6" d="M1831.21 6770.7l-1579.63 0c-42.45,0 -76.99,-34.54 -76.99,-76.99l0 -636.6c0,-42.45 34.54,-76.99 76.99,-76.99l1579.63 0c42.45,0 76.99,34.54 76.99,76.99l0 636.6c0,42.45 -34.54,76.99 -76.99,76.99zm-1579.63 -742.6l0 0c-16,0 -29.01,13.01 -29.01,29.01l0 636.6c0,16.01 13.02,29.01 29.01,29.01l1579.63 0c16,0 29.01,-13.01 29.01,-29.01l0 -636.6c0,-16.01 -13.02,-29.01 -29.01,-29.01l-1579.63 0z"/>
  <path class="fil6" d="M1704.66 6150.9l-1326.52 0c-8.83,0 -15.99,-7.15 -15.99,-15.99 0,-8.84 7.16,-15.99 15.99,-15.99l1326.52 0c8.83,0 15.99,7.15 15.99,15.99 0,8.83 -7.16,15.99 -15.99,15.99z"/>
  <path class="fil6" d="M1041.39 6652.96c-62.47,0 -113.3,-50.83 -113.3,-113.29 0,-62.47 50.83,-113.29 113.3,-113.29 62.48,0 113.3,50.83 113.3,113.29 0,62.46 -50.82,113.29 -113.3,113.29zm0 -178.62l0 0c-36.02,0 -65.33,29.3 -65.33,65.32 0,36.03 29.3,65.32 65.33,65.32 36.02,0 65.32,-29.3 65.32,-65.32 0,-36.03 -29.3,-65.32 -65.32,-65.32z"/>
  <path class="fil6" d="M1041.39 7260.84c-62.47,0 -113.3,-50.83 -113.3,-113.29 0,-62.46 50.83,-113.29 113.3,-113.29 62.48,0 113.3,50.83 113.3,113.29 0,62.47 -50.82,113.29 -113.3,113.29zm0 -178.62l0 0c-36.02,0 -65.33,29.3 -65.33,65.32 0,36.03 29.3,65.32 65.33,65.32 36.02,0 65.32,-29.3 65.32,-65.32 0,-36.03 -29.3,-65.32 -65.32,-65.32z"/>
  <path class="fil5" d="M7289.68 6964.59l-457.68 0 -457.68 0c0,0 -15.78,301.25 102.64,487.86 40.1,63.19 110.02,101.19 184.87,101.19l170.17 0 170.18 0c74.84,0 144.77,-37.99 184.87,-101.19 118.42,-186.61 102.64,-487.86 102.64,-487.86z"/>
  <path class="fil7" d="M6522.39 7139.82c6.43,51.41 -10.24,95.83 -37.22,99.2 -26.98,3.38 -54.07,-35.56 -60.5,-86.98 -6.43,-51.41 10.24,-95.83 37.22,-99.2 26.98,-3.38 54.07,35.57 60.5,86.98z"/>
  <path class="fil7" d="M6521.7 7333.88c3.2,25.55 -5.09,47.63 -18.5,49.3 -13.41,1.68 -26.88,-17.68 -30.07,-43.23 -3.2,-25.55 5.09,-47.62 18.5,-49.3 13.41,-1.68 26.88,17.67 30.07,43.23z"/>
  <path class="fil6" d="M7289.68 6964.59l-112.66 0c-2.58,54.14 -9.35,125.53 -26.01,198.57 -39.44,172.92 -193.81,295.28 -371.17,295.28l-59.75 0 -170.18 0c-27.03,0 -53.4,-5.03 -77.98,-14.34 1.68,2.78 3.29,5.62 5.03,8.36 40.1,63.19 110.02,101.19 184.87,101.19l170.17 0 170.18 0c74.84,0 144.77,-37.99 184.87,-101.19 118.42,-186.61 102.64,-487.86 102.64,-487.86z"/>
  <path class="fil6" d="M7288.36 6964.59c0,33.67 -204.32,60.97 -456.36,60.97 -252.03,0 -456.35,-27.3 -456.35,-60.97 0,-33.67 204.32,-60.97 456.35,-60.97 252.04,0 456.36,27.3 456.36,60.97z"/>
  <path class="fil7" d="M7173.87 6964.59c0,16.28 -153.06,29.47 -341.87,29.47 -188.81,0 -341.87,-13.2 -341.87,-29.47 0,-16.28 153.06,-29.48 341.87,-29.48 188.81,0 341.87,13.2 341.87,29.48z"/>
  <path class="fil5" d="M7048.17 6964.59c0,10.74 -99.02,19.45 -221.17,19.45 -122.15,0 -221.17,-8.71 -221.17,-19.45 0,-10.74 99.02,-19.45 221.17,-19.45 122.15,0 221.17,8.71 221.17,19.45z"/>
  <path class="fil7" d="M7308.15 6111.04c-500.66,144 -509.1,853.01 -509.1,853.01l44.21 0c535.13,-216 464.9,-853.01 464.9,-853.01z"/>
  <path class="fil5" d="M6887.01 6533.13c-85.38,216.8 -87.96,430.93 -87.96,430.93l44.21 0c41.15,-16.61 78.7,-35.73 113,-56.84 -41.14,-75.05 -60.58,-254.26 -69.24,-374.09z"/>
  <path class="fil5" d="M7308.15 6111.04c-19.36,5.57 -37.9,12.08 -55.82,19.26 -6.67,188.69 -69.02,568.01 -445.64,733.08 -7.18,61.62 -7.65,100.67 -7.65,100.67l44.21 0c535.13,-216 464.9,-853.01 464.9,-853.01z"/>
  <path class="fil6" d="M7300.81 6117.92c-79.63,101.68 -159.54,203.66 -226.95,314.04 -66.16,108.34 -115.17,225.31 -170.09,339.44 -30.81,64.03 -63.94,126.93 -103.04,186.33 -2.84,4.31 4.08,8.32 6.9,4.03 67.97,-103.24 117.06,-216.76 169.38,-328.31 54.53,-116.24 117.45,-225.94 192.56,-330.18 44.03,-61.1 90.46,-120.42 136.89,-179.7 3.14,-4.01 -2.48,-9.7 -5.65,-5.65z"/>
  <path class="fil7" d="M6479.76 6301.41c0,0 -75.07,576 319.29,668.75l44.21 -6.1c0,0 86.16,-464.95 -363.5,-662.64z"/>
  <path class="fil5" d="M6542.71 6332.72c-19.74,-11.02 -40.65,-21.51 -62.95,-31.31 0,0 -75.07,576 319.29,668.75l44.21 -6.1c0,0 5.05,-27.34 6.31,-71.51 -271.87,-76.99 -307.61,-393.04 -306.87,-559.83z"/>
  <path class="fil6" d="M6835.86 6957.62c-86.44,-231.07 -192.26,-465.58 -352.18,-656 -3.31,-3.94 -8.95,1.74 -5.66,5.65 158.95,189.26 264.23,422.85 350.13,652.47 1.79,4.77 9.52,2.71 7.71,-2.13z"/>
  <path class="fil5" d="M1542.36 4302.56c-28.01,-30.97 -29.73,-77.53 -3.53,-110.04l21.28 -26.41c12.06,-14.96 1.41,-37.22 -17.8,-37.22l-331.52 0c-19.21,0 -29.87,22.26 -17.81,37.22l21.28 26.41c26.2,32.51 24.48,79.08 -3.53,110.04 -86.57,95.7 -226.12,308.61 51.5,473.33l114.31 0 114.32 0c277.61,-164.71 138.07,-377.63 51.5,-473.33z"/>
  <path class="fil7" d="M1612.05 4584.33c-6.42,36.72 -23.84,64.34 -38.91,61.71 -15.07,-2.64 -22.07,-34.54 -15.66,-71.25 6.42,-36.71 23.84,-64.33 38.91,-61.7 15.07,2.64 22.07,34.54 15.66,71.25z"/>
  <path class="fil7" d="M1603.9 4439.45c5.19,20.59 0.83,39.44 -9.73,42.11 -10.57,2.67 -23.34,-11.86 -28.54,-32.45 -5.19,-20.59 -0.83,-39.44 9.73,-42.11 10.57,-2.67 23.34,11.86 28.54,32.45z"/>
  <path class="fil6" d="M1460.24 4729.96l-23.19 0c-85.78,0 -168.44,-39.72 -216.62,-110.7 -94.85,-139.74 5.94,-287.4 73.99,-362.64 28.01,-30.96 29.73,-77.53 3.53,-110.04l-14.26 -17.7 -72.91 0c-19.21,0 -29.87,22.26 -17.81,37.22l21.28 26.41c26.2,32.51 24.48,79.08 -3.53,110.04 -86.57,95.7 -226.12,308.61 51.5,473.33l114.31 0 114.32 0c25.2,-14.95 46.87,-30.31 65.54,-45.93l-96.16 0z"/>
  <path class="fil1" d="M6002.91 917.96c0,250.12 -202.76,452.88 -452.88,452.88 -250.12,0 -452.88,-202.76 -452.88,-452.88 0,-250.12 202.76,-452.88 452.88,-452.88 250.12,0 452.88,202.76 452.88,452.88z"/>
  <path class="fil4" d="M5161.27 1150.27l621.08 -621.08c-35.84,-21.46 -74.88,-38.1 -116.25,-49.04l-553.87 553.87c10.94,41.37 27.58,80.42 49.04,116.25z"/>
  <path class="fil4" d="M5375.63 1335.99l592.43 -592.43c-15.69,-37.59 -36.38,-72.54 -61.11,-104.19l-635.51 635.51c31.64,24.74 66.6,45.41 104.18,61.11z"/>
  <path class="fil6" d="M5550.03 936.01c-9.98,0 -18.06,-8.09 -18.06,-18.06l0 -270.85c0,-9.97 8.08,-18.06 18.06,-18.06 9.98,0 18.06,8.09 18.06,18.06l0 270.85c0,9.97 -8.08,18.06 -18.06,18.06z"/>
  <path class="fil6" d="M5746 936.02l-195.98 0c-9.98,0 -18.06,-8.09 -18.06,-18.06 0,-9.98 8.08,-18.06 18.06,-18.06l195.98 0c9.99,0 18.06,8.09 18.06,18.06 0,9.97 -8.08,18.06 -18.06,18.06z"/>
  <path class="fil5" d="M5603.5 917.96c0,29.47 -23.89,53.36 -53.36,53.36 -29.47,0 -53.36,-23.89 -53.36,-53.36 0,-29.47 23.89,-53.36 53.36,-53.36 29.47,0 53.36,23.89 53.36,53.36z"/>
  <path class="fil5" d="M5550.03 390.83c-291.12,0 -527.12,236 -527.12,527.12 0,291.12 236,527.12 527.12,527.12 291.12,0 527.12,-236 527.12,-527.12 0,-291.13 -236,-527.12 -527.12,-527.12zm0 918.62l0 0c-216.22,0 -391.5,-175.28 -391.5,-391.5 0,-216.22 175.28,-391.5 391.5,-391.5 216.22,0 391.5,175.28 391.5,391.5 0,216.22 -175.28,391.5 -391.5,391.5z"/>
  <path class="fil6" d="M5158.53 917.96c0,-216.22 175.28,-391.5 391.5,-391.5 116.43,0 220.94,50.88 292.65,131.56 -70.31,-104.39 -189.59,-173.05 -324.93,-173.05 -216.22,0 -391.5,175.28 -391.5,391.5 0,99.79 37.39,190.8 98.85,259.94 -42.03,-62.39 -66.57,-137.55 -66.57,-218.44z"/>
  <path class="fil6" d="M5949.65 574.42c59.94,85.55 95.23,189.64 95.23,302.04 0,291.12 -236,527.12 -527.12,527.12 -159.83,0 -302.95,-71.24 -399.61,-183.58 95.32,136.05 253.16,225.08 431.89,225.08 291.12,0 527.12,-236 527.12,-527.12 0,-131.28 -48.1,-251.26 -127.5,-343.54z"/>
  <path class="fil7" d="M5163.23 664.43c-19.94,29.53 -45.99,46.79 -58.2,38.54 -12.21,-8.24 -5.95,-38.86 13.98,-68.39 19.93,-29.53 45.99,-46.79 58.2,-38.55 12.21,8.25 5.96,38.86 -13.98,68.4z"/>
  <path class="fil7" d="M5235.91 561.53c-14.06,12.4 -30.63,16.58 -37.02,9.33 -6.38,-7.24 -0.16,-23.16 13.9,-35.56 14.06,-12.4 30.63,-16.58 37.02,-9.33 6.39,7.24 0.16,23.16 -13.9,35.56z"/>
  <polygon class="fil8" points="3664.11,3786.77 5428.33,3786.77 5348.46,3521.26 3584.24,3521.26 "/>
  <polygon class="fil9" points="5398.35,3687.11 5428.33,3786.77 3664.11,3786.77 3634.13,3687.11 "/>
  <polygon class="fil8" points="3929.09,4714.47 5693.31,4714.47 5613.44,4448.97 3849.22,4448.97 "/>
  <polygon class="fil9" points="5663.33,4614.81 5693.31,4714.47 3929.09,4714.47 3899.11,4614.81 "/>
  <polygon class="fil8" points="4194.07,5642.18 5958.29,5642.18 5878.42,5376.67 4114.2,5376.67 "/>
  <polygon class="fil9" points="5928.31,5542.52 5958.29,5642.18 4194.07,5642.18 4164.09,5542.52 "/>
  <polygon class="fil8" points="4459.05,6569.89 6223.27,6569.89 6143.4,6304.38 4379.18,6304.38 "/>
  <polygon class="fil9" points="6193.3,6470.23 6223.27,6569.89 4459.05,6569.89 4429.07,6470.23 "/>
  <polygon class="fil8" points="4724.03,7497.6 6488.26,7497.6 6408.38,7232.09 4644.16,7232.09 "/>
  <polygon class="fil9" points="6458.28,7397.94 6488.26,7497.6 4724.03,7497.6 4694.05,7397.94 "/>
  <polygon class="fil10" points="6507.19,7891.83 5002.21,2861.96 5172.06,2861.96 6677.04,7891.83 "/>
  <polygon class="fil11" points="5055.45,2861.96 6560.44,7891.83 6507.19,7891.83 5002.21,2861.96 "/>
  <polygon class="fil11" points="5077.54,3113.72 5002.21,2861.96 5172.06,2861.96 5247.39,3113.72 "/>
  <polygon class="fil10" points="4776.68,7891.83 3271.7,2861.96 3441.55,2861.96 4946.53,7891.83 "/>
  <polygon class="fil11" points="3324.95,2861.96 4829.93,7891.83 4776.68,7891.83 3271.7,2861.96 "/>
  <polygon class="fil11" points="3347.03,3113.72 3271.7,2861.96 3441.55,2861.96 3516.88,3113.72 "/>
  <polygon class="fil12" points="5121.74,3703.24 3083.53,3703.24 3175.81,3437.73 5214.02,3437.73 "/>
  <polygon class="fil8" points="3118.17,3603.57 3083.53,3703.24 5121.74,3703.24 5156.38,3603.57 "/>
  <polygon class="fil12" points="4815.61,4630.94 2777.4,4630.94 2869.67,4365.43 4907.88,4365.43 "/>
  <polygon class="fil8" points="2812.03,4531.28 2777.4,4630.94 4815.61,4630.94 4850.24,4531.28 "/>
  <polygon class="fil12" points="4509.47,5558.65 2471.27,5558.65 2563.54,5293.14 4601.75,5293.14 "/>
  <polygon class="fil8" points="2505.9,5458.99 2471.27,5558.65 4509.47,5558.65 4544.11,5458.99 "/>
  <polygon class="fil12" points="4203.34,6486.36 2165.13,6486.36 2257.41,6220.85 4295.62,6220.85 "/>
  <path class="fil8" d="M2241.15 6267.61c143.47,57.19 338.13,92.4 552.72,92.4 268.18,0 505.31,-54.96 650.08,-139.16l-1186.55 0 -16.25 46.76z"/>
  <polygon class="fil8" points="2199.77,6386.7 2165.13,6486.36 4203.34,6486.36 4237.98,6386.7 "/>
  <polygon class="fil12" points="3897.21,7414.06 1859,7414.06 1951.27,7148.56 3989.49,7148.56 "/>
  <polygon class="fil8" points="1893.63,7314.41 1859,7414.06 3897.21,7414.06 3931.85,7314.41 "/>
  <polygon class="fil13" points="1808.3,7891.83 3547.02,2861.96 3350.78,2861.96 1612.07,7891.83 "/>
  <path class="fil11" d="M2356.55 6305.82l205.5 -594.5c-75.51,9.5 -146.28,23.51 -210.5,41.28l-169.05 489.05c50.09,24.74 108.74,46.38 174.05,64.17z"/>
  <polygon class="fil10" points="3485.5,2861.96 1746.79,7891.83 1808.3,7891.83 3547.02,2861.96 "/>
  <polygon class="fil10" points="3459.99,3113.73 3547.02,2861.96 3350.78,2861.96 3263.75,3113.73 "/>
  <polygon class="fil13" points="3807.57,7891.83 5546.28,2861.96 5350.04,2861.96 3611.34,7891.83 "/>
  <polygon class="fil10" points="5484.76,2861.96 3746.05,7891.83 3807.57,7891.83 5546.28,2861.96 "/>
  <path class="fil11" d="M4404.66 5596.82l-136.25 394.14c9.85,0.19 19.75,0.29 29.73,0.29 59.23,0 116.24,-3.4 169.73,-9.62l123.77 -358.06c-56.31,-12.77 -119.42,-21.99 -186.98,-26.75z"/>
  <polygon class="fil10" points="5459.25,3113.73 5546.28,2861.96 5350.04,2861.96 5263.01,3113.73 "/>
  <polygon class="fil12" points="5572.97,2950.45 3187.08,2950.45 3187.08,2594.3 5572.97,2594.3 "/>
  <path class="fil8" d="M3827.48 2594.3c-203.68,81.22 -325.52,170.06 -309.12,241.16 28.83,124.95 473.37,147.75 992.89,50.93 380.49,-70.91 695.43,-186.3 825.56,-292.08l-1509.34 0z"/>
  <polygon class="fil8" points="3187.08,2848.27 3187.08,2950.45 5572.97,2950.45 5572.97,2848.27 "/>
  <polygon class="fil14" points="2745.71,1847.97 2419.2,1901.32 2342.65,1432.85 2669.16,1379.49 "/>
  <path class="fil3" d="M2382.9 1679.17c103.83,-4.68 221.31,-65.32 314.57,-126.43l-28.31 -173.25 -326.51 53.36 40.25 246.32z"/>
  <path class="fil6" d="M2560.51 569.08c-0.29,-7.42 -1.36,-15.88 -3.56,-25.84 -29.85,-135.13 -211.03,-110.89 -211.03,-110.89 0,0 -91.71,3.63 -63.92,89.22 27.79,85.58 183.49,218.31 183.49,218.31 0,0 91.49,16.37 116.5,-72.62 12.98,-46.18 -3.06,-78.08 -21.49,-98.19z"/>
  <path class="fil15" d="M2538.27 805.25c94.84,-103.75 248.49,-22.84 261.16,108.72 12.67,131.55 -148.83,178.48 -148.83,178.48l-88.59 -62.19c0,0 -118.58,-121.25 -23.74,-225z"/>
  <path class="fil14" d="M1743.23 1030.54l33 65.87c86.26,172.15 200.49,329.21 340.52,461.37 51.29,48.41 101.07,79.35 125.82,92.86 97.07,52.98 504.01,-120.7 549.77,-394.39 45.75,-273.69 -392.96,-719.76 -392.96,-719.76 0,0 -656.16,494.05 -656.16,494.05z"/>
  <path class="fil16" d="M2262.26 1370.41c10.7,19.56 -9.15,51.18 -44.34,70.64 -35.2,19.46 -72.41,19.37 -83.11,-0.19 -10.7,-19.56 9.15,-51.19 44.35,-70.64 35.2,-19.46 72.41,-19.37 83.11,0.19z"/>
  <path class="fil16" d="M2725.95 1089.63c7.47,13.63 27.86,17.59 51.42,12.3 -6.93,-23.14 -15.62,-46.63 -25.69,-70.23 -22.98,18.75 -34.33,42.2 -25.72,57.92z"/>
  <path class="fil15" d="M1776.24 1096.41c39.88,79.61 86.01,155.78 137.65,227.96 8.53,-4.24 16.63,-8.69 23.99,-13.5 88.29,-57.75 84.52,-192.39 66.19,-294.27 95.68,-66.86 172.01,-162.18 219.91,-231.7 9.9,-0.64 19.69,-1.8 29.3,-3.7 89.89,-17.76 158.74,-105.94 203.08,-183.04 -34.36,-38.67 -56.96,-61.66 -56.96,-61.66 0,0 -656.16,494.05 -656.16,494.05l33.01 65.87z"/>
  <path class="fil5" d="M2271.69 28.76c-108.43,-39.96 -370.87,137.58 -436.6,333.5 -5.33,15.89 -9.1,31.1 -12.22,45.99 -36.83,-13.27 -82.32,-13.74 -137.29,12.37 -182.41,86.66 -267.56,59.39 -368.83,384.24 -101.27,324.85 545.72,577.23 545.72,577.23 0,0 43.04,33.32 95.19,-30.45 41.39,-50.61 -44.13,-246.27 -81.19,-324.89 78.53,-43.63 194.07,-127.28 258.73,-265.51 47.52,5.52 206.45,-61.33 265.85,-161.38 105.64,-177.94 34.06,-297.42 34.06,-297.42 0,0 -52.06,-50.74 -100.54,-28.19 5.11,-102.54 -2.47,-223.22 -62.89,-245.49z"/>
  <path class="fil6" d="M2135.21 761.24c47.52,5.52 206.45,-61.33 265.85,-161.38 105.64,-177.94 34.05,-297.42 34.05,-297.42 0,0 -17.66,-17.1 -41.92,-27.03 15.28,48.75 -4.08,130.51 -102.04,245.22 -127.87,149.74 -216.7,38.75 -216.7,38.75 0,0 11.8,130.54 -91.53,204.23 -103.33,73.7 -136.17,14.53 -136.17,14.53 0,0 -102.37,399.96 -207.27,375.71 -76.51,-17.69 -204.09,-74.53 -267.59,-104.03 147.3,198.31 490.58,332.27 490.58,332.27 0,0 43.05,33.32 95.2,-30.45 41.39,-50.62 -44.13,-246.27 -81.19,-324.89 78.53,-43.63 194.07,-127.28 258.73,-265.51z"/>
  <path class="fil7" d="M1535.3 595.21c35.05,15.29 39.15,83.44 9.15,152.23 -30,68.79 -82.73,112.15 -117.79,96.86 -35.05,-15.28 -39.15,-83.44 -9.15,-152.23 30,-68.78 82.74,-112.15 117.79,-96.86z"/>
  <path class="fil7" d="M1957.09 307.56c20.31,8.86 22.68,48.35 5.3,88.2 -17.38,39.85 -47.93,64.98 -68.24,56.12 -20.31,-8.86 -22.68,-48.34 -5.3,-88.2 17.38,-39.85 47.94,-64.98 68.25,-56.12z"/>
  <path class="fil14" d="M1793.82 1361.18c-105.95,120.2 -3.54,284.97 142.34,283.53 145.88,-1.44 183.51,-190.51 183.51,-190.51l-76.15 -93.13c0,0 -143.75,-120.08 -249.7,0.11z"/>
  <path class="fil15" d="M2008.03 1472.39c0,0 -36.28,-57.35 -67.11,-63.48 -30.83,-6.13 -104.59,-3.78 -88.59,68.4 16,72.18 123.33,130.31 155.7,-4.92z"/>
  <path class="fil17" d="M1992.98 1527.18c-0.08,0.22 -0.16,0.42 -0.25,0.64 -7.48,18.02 -27.91,30.69 -52.05,32.26 -30.66,1.99 -59.46,-13.48 -79.03,-42.46 -17.44,-25.84 -23.6,-49.28 -18.28,-69.67 6.35,-23.97 26.54,-34.23 27.4,-34.65 6.17,-3.03 13.93,-0.62 17.35,5.38 3.41,5.97 1.19,13.24 -4.9,16.3 -0.64,0.34 -11.82,6.34 -15.15,20.04 -3.36,13.54 1.65,30.34 14.89,49.95 14.14,20.93 34.19,32.15 55.03,30.8 14.51,-0.95 26.95,-8.05 30.95,-17.65 2.55,-6.18 9.95,-9.01 16.53,-6.33 6.34,2.58 9.6,9.36 7.51,15.38z"/>
  <path class="fil13" d="M2309.03 1153.43c-2.48,-47.45 -35.02,-89.99 -83.41,-102.88 -60.07,-16.01 -121.76,19.71 -137.77,79.79 -15.88,59.61 19.19,120.74 78.41,137.33 38.47,-43.2 89.7,-84.75 142.76,-114.23z"/>
  <path class="fil17" d="M2225.62 1050.55c-6.79,-1.81 -13.59,-2.87 -20.36,-3.4 -23.18,9.61 -41.32,30.19 -46.69,56.64 -8.59,42.27 18.73,83.5 61,92.08 0.92,0.19 1.83,0.26 2.76,0.42 25.09,-24.82 53.2,-47.83 82.32,-67.36 -10.43,-36.98 -39.21,-67.77 -79.03,-78.39z"/>
  <path class="fil17" d="M2292.48 1087.9c-0.71,2.04 -1.92,3.95 -3.64,5.5 -5.47,4.98 -13.94,4.57 -18.92,-0.91 -12.79,-14.06 -29.29,-24.09 -47.74,-29.01 -25.61,-6.83 -52.33,-3.27 -75.24,10.01 -22.93,13.28 -39.3,34.59 -46.14,60.29 -8.09,30.34 -1.6,61.94 17.78,86.69 4.56,5.83 3.53,14.23 -2.28,18.8 -5.82,4.56 -14.24,3.54 -18.8,-2.28 -24.62,-31.44 -32.86,-71.58 -22.58,-110.11 8.72,-32.55 29.47,-59.7 58.57,-76.56 29.13,-16.86 63.07,-21.38 95.58,-12.71 23.44,6.25 44.42,19 60.67,36.88 3.42,3.76 4.29,8.93 2.73,13.41z"/>
  <path class="fil13" d="M2654.84 899.71c-2.28,-43.52 -32.12,-82.52 -76.49,-94.35 -55.1,-14.68 -111.66,18.08 -126.35,73.18 -14.56,54.66 17.6,110.72 71.91,125.94 35.28,-39.62 82.26,-77.72 130.93,-104.76z"/>
  <path class="fil17" d="M2578.35 805.36c-6.23,-1.66 -12.47,-2.63 -18.67,-3.11 -21.26,8.82 -37.89,27.7 -42.82,51.95 -7.87,38.77 17.17,76.58 55.94,84.45 0.84,0.18 1.68,0.24 2.52,0.39 23.01,-22.76 48.79,-43.87 75.5,-61.77 -9.57,-33.91 -35.96,-62.16 -72.48,-71.89z"/>
  <path class="fil17" d="M2639.66 839.62c-0.65,1.87 -1.77,3.62 -3.34,5.05 -5.01,4.56 -12.78,4.19 -17.35,-0.83 -11.73,-12.9 -26.86,-22.09 -43.78,-26.6 -23.49,-6.26 -47.99,-3 -69.01,9.18 -21.03,12.18 -36.04,31.72 -42.3,55.29 -7.42,27.82 -1.47,56.8 16.31,79.5 4.18,5.34 3.24,13.05 -2.09,17.25 -5.34,4.18 -13.06,3.24 -17.24,-2.09 -22.58,-28.83 -30.13,-65.64 -20.71,-100.98 8,-29.85 27.03,-54.75 53.72,-70.22 26.71,-15.46 57.83,-19.6 87.66,-11.65 21.5,5.72 40.74,17.42 55.64,33.82 3.14,3.44 3.94,8.19 2.51,12.3z"/>
  <path class="fil17" d="M1944.37 1037.23c6.94,21.91 35.46,27.94 52.67,12.7 36.3,-32.17 107.11,-96.8 116.34,-119.33 12.47,-30.47 -30.69,-43.93 -41.69,-37.91 -11,6.02 -116.83,94.1 -127.1,125.51 -2.28,6.98 -2.01,13.34 -0.21,19.03z"/>
  <path class="fil17" d="M2274.5 741.1c1.37,22.95 27.55,35.78 47.96,25.21 43.07,-22.31 127.54,-67.63 142,-87.22 19.55,-26.49 -19,-50.11 -31.14,-46.96 -12.14,3.14 -136.31,62.64 -153.96,90.58 -3.92,6.21 -5.22,12.45 -4.86,18.39z"/>
  <path class="fil17" d="M2593.96 1234.88c-6.4,18.41 -27.8,32.87 -32.8,36.05 -6.24,3.97 -14.5,2.12 -18.49,-4.12 -3.97,-6.24 -2.12,-14.52 4.1,-18.5 11.51,-7.36 22.56,-19.05 22.18,-23.72 -0.02,-0.42 -1.29,-2.52 -6.95,-5.14 -42.01,-19.37 -87.57,-72.39 -89.5,-74.64 -4.8,-5.62 -4.16,-14.07 1.49,-18.89 5.63,-4.81 14.09,-4.14 18.9,1.48 0.44,0.51 43.69,50.81 80.34,67.71 17.59,8.1 21.94,19.53 22.48,27.7 0.28,4.15 -0.41,8.2 -1.75,12.08z"/>
  <path class="fil17" d="M2685.06 1369.87c-0.44,4.01 -2.72,8.13 -6.59,11.01 -46.38,34.73 -104.26,49.96 -161.27,42.83 -8.84,-1.1 -14.69,-8.46 -13.13,-15.69 1.55,-7.28 8.93,-11.84 16.53,-10.91 50.12,6.26 101.04,-7.15 141.86,-37.74 6.18,-4.62 14.9,-4.33 19.82,1.21 2.23,2.57 3.15,5.89 2.77,9.29z"/>
  <path class="fil18" d="M2328.89 1221.2l-96.95 69.88c-55.4,39.93 -132.69,27.39 -172.62,-28.01l-40.99 -56.87c-18.29,-25.37 -12.54,-60.75 12.82,-79.03l205.72 -148.29c25.37,-18.28 60.75,-12.54 79.03,12.83l40.99 56.87c39.93,55.4 27.39,132.69 -28.01,172.62z"/>
  <path class="fil19" d="M2127.38 1310.1l120.82 -337.43c-3.92,1.64 -7.73,3.62 -11.32,6.21l-88.13 63.52 -82.23 229.66c16.54,18.99 37.86,31.84 60.86,38.04z"/>
  <path class="fil19" d="M2179.73 1312.67c18.28,-3 36.17,-10.03 52.21,-21.59l40.44 -29.15 79.09 -220.89 -35.56 -49.34c-4.42,-6.14 -9.89,-11.07 -15.93,-14.85l-120.24 335.82z"/>
  <path class="fil3" d="M2385.95 1166.03c-8.92,25.69 -25.53,48.98 -49.22,66.05 0,0 0,0 0,0l-96.96 69.88c-61.29,44.2 -147.14,30.26 -191.34,-31.05l-40.99 -56.87c-10.95,-15.18 -15.31,-33.7 -12.32,-52.16 3.01,-18.45 13.02,-34.65 28.19,-45.59l205.73 -148.28c15.16,-10.93 33.69,-15.31 52.15,-12.32 18.46,3.01 34.65,13.01 45.59,28.19l40.99 56.87c27.12,37.63 32.36,84.49 18.18,125.29zm-64.9 44.3l0 0c49.32,-35.57 60.51,-104.59 24.97,-153.91l-40.99 -56.87c-13.94,-19.33 -41,-23.72 -60.32,-9.79l-205.73 148.29c-9.36,6.75 -15.57,16.72 -17.38,28.13 -1.84,11.39 0.85,22.82 7.59,32.18l40.99 56.87c35.56,49.32 104.6,60.52 153.92,24.98l96.96 -69.89 -0 0.01z"/>
  <path class="fil18" d="M2665.82 964.38l-96.95 69.88c-55.4,39.93 -132.69,27.39 -172.62,-28.01l-40.99 -56.87c-18.28,-25.36 -12.54,-60.75 12.82,-79.03l205.73 -148.28c25.37,-18.29 60.75,-12.55 79.03,12.82l40.99 56.87c39.93,55.4 27.39,132.69 -28.01,172.62z"/>
  <path class="fil19" d="M2464.31 1053.29l120.82 -337.43c-3.91,1.64 -7.73,3.62 -11.32,6.21l-88.13 63.52 -82.23 229.66c16.54,18.98 37.86,31.84 60.86,38.04z"/>
  <path class="fil19" d="M2516.67 1055.85c18.27,-3 36.17,-10.03 52.21,-21.59l40.44 -29.15 79.09 -220.89 -35.56 -49.34c-4.42,-6.14 -9.88,-11.07 -15.93,-14.85l-120.24 335.82z"/>
  <path class="fil3" d="M2722.89 909.2c-8.93,25.69 -25.54,48.98 -49.22,66.06l-0 0 -96.95 69.87c-29.69,21.41 -65.95,29.97 -102.08,24.11 -36.15,-5.87 -67.84,-25.46 -89.24,-55.16l-41 -56.87c-22.57,-31.32 -15.44,-75.17 15.86,-97.75l205.73 -148.29c31.32,-22.58 75.17,-15.46 97.74,15.86l41 56.88c27.12,37.62 32.35,84.47 18.18,125.27zm-64.9 44.31l0 0c49.31,-35.57 60.5,-104.6 24.98,-153.91l-41 -56.88c-13.92,-19.32 -40.98,-23.72 -60.32,-9.78l-205.73 148.29c-19.31,13.93 -23.71,40.99 -9.79,60.31l41 56.87c17.22,23.89 42.72,39.64 71.78,44.36 29.06,4.71 58.23,-2.17 82.13,-19.39l96.95 -69.88 0 0z"/>
  <path class="fil3" d="M2401.57 1000.48c-2.24,6.46 -9.08,10.28 -15.86,8.61 -14.28,-3.5 -30.5,17.51 -34.06,23.33 -3.86,6.31 -12.12,8.31 -18.43,4.45 -6.31,-3.86 -8.37,-12.17 -4.44,-18.43 1.1,-1.82 27.48,-44.18 63.33,-35.38 7.19,1.76 11.59,9.03 9.83,16.22 -0.1,0.42 -0.23,0.82 -0.37,1.21z"/>
  <path class="fil3" d="M2033.34 1141.45c-1.17,3.38 -3.69,6.28 -7.22,7.85 -40.76,18.15 -170.87,137.37 -217.58,181.76 -5.36,5.1 -13.85,4.9 -18.96,-0.48 -5.1,-5.36 -4.9,-13.87 0.48,-18.95 7,-6.65 171.84,-163.09 225.16,-186.82 6.76,-3.02 14.68,0.03 17.7,6.79 1.44,3.24 1.5,6.75 0.42,9.85z"/>
  <path class="fil10" d="M2490.31 5545.15c0,0 -137.33,255.56 -49.78,389.16 87.56,133.59 510.87,432.4 711.45,354.29 200.58,-78.11 306.5,-276.72 277.16,-388.9 -29.33,-112.18 -255.28,-106.94 -337.75,-108.4 -82.47,-1.47 -155.49,-216.32 -155.49,-216.32l-445.59 -29.83z"/>
  <path class="fil11" d="M2730.67 6067.85c-163.73,-167.84 -126.14,-207.44 4.72,-256.89 84.27,-31.84 180.35,-101.12 238.12,-146.44 -23.21,-47.21 -37.62,-89.55 -37.62,-89.55l-408.92 -27.37c-12.69,54.77 -50.88,232.97 -38.9,346.74 7.61,72.31 38.79,124.44 66.31,157.56 164.63,137.99 445.27,296.01 597.59,236.7 30.29,-11.79 58.38,-26.37 84.21,-42.95 -179.09,-5.96 -398.39,-67.98 -505.51,-177.79z"/>
  <path class="fil11" d="M3053.62 5776.89c-30.39,23.3 -59.55,48.53 -87.51,75.44 -4.27,4.11 -3.3,12.63 0.48,16.67 4.46,4.77 10.42,3.69 14.7,-0.44 26.59,-25.59 54.44,-49.43 83.34,-71.59 11.01,-8.44 0.09,-28.59 -11.01,-20.08z"/>
  <path class="fil10" d="M3933.64 5202.8c0,0 -125.44,263.35 -31.93,391.67 93.51,128.32 506.22,303.56 702.9,213.77 196.68,-89.79 316.92,-195.98 282.51,-306.32 -34.41,-110.34 -259.74,-91.85 -342.15,-88.49 -82.4,3.37 -165.11,-206.97 -165.11,-206.97l-446.22 -3.66z"/>
  <path class="fil11" d="M4337.71 5817.59c-126.1,-58.46 -225.47,-150.65 -257.36,-212.59 -59.95,-116.41 -78.59,-112.5 137.83,-170.49 104.71,-28.06 171.94,-78.28 213.7,-122.7 -31.18,-52.36 -52.02,-105.35 -52.02,-105.35l-446.22 -3.66c0,0 -125.44,263.35 -31.92,391.67 60.35,82.81 253.62,185.07 435.99,223.12z"/>
  <path class="fil11" d="M4522.67 5406.71c-39.45,19.05 -79.49,36.48 -120.07,52.28 -12.6,4.9 -6.75,27.57 5.92,22.64 40.57,-15.8 80.62,-33.23 120.07,-52.29 5.15,-2.49 8.75,-7.97 7.01,-14.61 -1.45,-5.55 -7.74,-10.53 -12.93,-8.03z"/>
  <path class="fil5" d="M4446.72 4336.23c-21.16,-80.93 -703.12,-966.97 -703.12,-966.97l-63.41 -150.87 -1126.14 419.93c0,0 81,641.99 172.12,966.78l-330.92 934.03c0,0 145.37,407.84 603.52,119.97 0,0 351.66,-900.21 382.97,-1076.58 14.87,-83.75 -28.07,-379.1 -77.27,-666.21 -10.59,-61.77 62.3,-97.57 98.08,-48.13 171.03,236.34 446.86,622.39 531.55,769.44l-61.47 749.51c0,0 447.99,111.96 551.28,-167.56 0,0 40.63,-811.1 22.81,-883.35z"/>
  <path class="fil6" d="M3743.59 3369.27l-63.4 -150.87 -1126.15 419.93c0,0 22.87,181.28 57.98,399.9 628.06,-164.96 1035.95,-540.12 1145.67,-650.62 -9.05,-11.79 -14.1,-18.35 -14.1,-18.35z"/>
  <path class="fil6" d="M2641.03 5341.02l22.16 -558.15 -267.95 756.28c0,0 145.37,407.84 603.52,119.97 0,0 21.35,-54.64 53.95,-139.55 -316.99,12.47 -411.69,-178.54 -411.69,-178.54z"/>
  <path class="fil7" d="M4395.08 4345.27c17.4,66.54 -4.31,132.3 -48.49,146.88 -44.18,14.57 -94.11,-27.56 -111.5,-94.1 -17.4,-66.55 4.31,-132.3 48.49,-146.88 44.18,-14.57 94.1,27.56 111.5,94.1z"/>
  <path class="fil6" d="M4092.79 4583.89c7.76,-3.66 13.1,-12.01 10.52,-21.91 -2.19,-8.39 -11.58,-15.73 -19.4,-12.05 -44.44,20.97 -88.87,41.94 -133.31,62.91 -28.72,-119.93 -419.94,-594.58 -562.75,-764.95 165.92,229 446.89,621.38 540.38,779.75 -2.03,3.8 -2.76,8.39 -1.45,13.39 0.95,3.64 3.3,7.03 6.25,9.46l-60.41 736.64c0,0 259.05,64.58 428.59,-27.38 -132.48,13.13 -263.68,-75.45 -263.68,-75.45l-81.86 -635.7c45.71,-21.57 91.41,-43.14 137.12,-64.71z"/>
  <path class="fil14" d="M3859.24 2468.51c-77.33,-101.59 -308.28,-461.3 -474.3,-578.23 -101.51,-71.5 -220.55,29.74 -242.87,57.53 0,0 0.49,81.21 232.84,437.6 108.55,166.5 205.91,307.77 281.15,387.51 77.7,82.37 192.63,81.79 299.5,44.38 190.25,-66.61 347.42,-53.34 610.3,-223.01 85.04,-60.9 73.96,-162.5 -33.86,-205.15 0,0 -462.63,67.89 -672.76,79.36z"/>
  <path class="fil15" d="M3769.1 2342.18c-105.4,-149.35 -262.25,-366.03 -384.16,-451.9 -101.5,-71.49 -220.54,29.75 -242.86,57.53 0,0 0.49,81.22 232.84,437.61 61,93.56 118.47,179.15 170.46,250.34 131.12,-86.66 195.65,-217.65 223.73,-293.59z"/>
  <path class="fil15" d="M3853.03 2464.59c-17.51,10.72 -30.05,26.77 -43.26,42.14 -13.49,15.71 -26.99,31.41 -40.49,47.12 -3.54,4.12 -4.67,9.82 -0.69,14.2 3.3,3.64 10.64,4.85 14.2,0.7 12.99,-15.11 25.98,-30.22 38.96,-45.34 12.24,-14.24 24.1,-30.92 40.34,-40.86 10.98,-6.72 1.98,-24.72 -9.06,-17.96z"/>
  <path class="fil14" d="M5183.38 2553.74c-14.36,-63.19 -212.54,-152.23 -292.96,-239.83 -80.43,-87.6 -358.13,69.86 -358.13,69.86 0,0 -19.04,126.22 13.46,192.28 32.5,66.06 180.95,95.44 224.03,95.44 22,0 41.54,-18.56 55.43,-36.74 72.26,27.46 202.28,71.56 223.17,39.61 6.09,-9.31 6.01,-18.63 2.46,-27.36 51.39,5.37 89.02,-2.2 99.5,-25.77 3.75,-8.43 -1.89,-18.03 -12.98,-27.9 28.66,-2.34 52.25,-12.15 46.01,-39.6z"/>
  <path class="fil15" d="M5139.77 2578.14c-28.11,-11.43 -53.11,-31.91 -77.64,-49.41 -26.12,-18.63 -52.25,-37.27 -78.37,-55.91 -10.49,-7.48 -20.48,9.85 -10.09,17.26 26.96,19.24 53.93,38.47 80.89,57.72 25.38,18.11 50.81,37.79 79.89,49.62 11.91,4.84 17.09,-14.49 5.31,-19.27z"/>
  <path class="fil15" d="M5050.35 2631.02c-13.1,-5.82 -24.55,-15.09 -36.46,-22.94 -11.45,-7.54 -23.05,-14.84 -34.8,-21.89 -24.3,-14.58 -49.22,-28.08 -74.66,-40.55 -11.51,-5.64 -21.65,11.59 -10.09,17.26 25.44,12.47 50.36,25.96 74.66,40.54 11.75,7.06 23.36,14.36 34.8,21.89 11.92,7.85 23.37,17.11 36.46,22.94 11.65,5.18 21.83,-12.04 10.09,-17.26z"/>
  <path class="fil15" d="M4832.82 2627.59c-5.07,-18.61 -11.48,-37.24 -19.93,-54.61 -4.46,-9.16 -15.06,-11.91 -23.73,-15.77 -9.16,-4.08 -18.32,-8.17 -27.49,-12.25 -4.92,-2.19 -10.74,-1.43 -13.67,3.59 -2.49,4.26 -1.37,11.47 3.58,13.68 8.25,3.67 16.49,7.35 24.74,11.03 4.12,1.84 8.25,3.67 12.37,5.51 1.78,0.79 4.76,1.54 6.24,2.86 -0.4,-0.36 1.04,2.18 1.27,2.68 7.18,15.65 12.82,32 17.34,48.6 3.38,12.4 22.66,7.13 19.27,-5.31z"/>
  <path class="fil3" d="M2988.52 1918.46c0,0 -32.8,226.49 303.45,644.05 0,0 463.96,-209.19 512.53,-352.07 0,0 -482.13,-429.48 -624.18,-491.54 0,0 -107.75,36.93 -191.8,199.56z"/>
  <path class="fil10" d="M2395.59 1756.79c0,0 -260.46,144.97 -365.38,319.62 -65.18,108.49 511.03,1685.85 511.03,1685.85l1211.78 -415.54c0,0 -418.62,-1497.83 -550.35,-1614.27 -72.27,-63.87 -485.84,-61.32 -485.84,-61.32 0,0 -90.57,264.71 -321.23,85.66z"/>
  <path class="fil11" d="M3356.54 3482.68c-203.28,-10.55 -432.3,-50.51 -525.89,-169.26 -184.8,-234.47 -459.18,-939.88 -459.18,-939.88 -120.58,-152.36 -230.36,-255.05 -329.06,-316.21 -4.25,6.32 -8.36,12.67 -12.21,19.08 -65.18,108.49 511.03,1685.85 511.03,1685.85l815.31 -279.58z"/>
  <path class="fil5" d="M2649.83 1792.43l-28.28 19.15c4.12,6.08 400.56,601.51 603.24,1716.27l32.64 -11.2c-204.4,-1119.22 -603.46,-1718.1 -607.61,-1724.22z"/>
  <path class="fil5" d="M2246.26 2914.76c377.97,-110.5 806.68,-245.28 1260.24,-397.71 -46.59,-147.89 -94.83,-294.93 -139.9,-421.44 -450.95,154.08 -871.74,307.1 -1238.12,448.7 34.84,115.74 75.63,243.05 117.77,370.45z"/>
  <path class="fil6" d="M2128.48 2544.32c34.84,115.74 75.63,243.05 117.77,370.45 101.44,-29.65 206.63,-61.11 314.88,-94.14 -69.62,-152.4 -129.58,-297.42 -162.55,-379.04 -92.86,34.79 -183.06,69.09 -270.1,102.73z"/>
  <path class="fil3" d="M2382.9 1679.17l231.39 121.6 6.15 196.36 -291.04 -146.06c0,0 -17.26,-120.33 53.5,-171.9z"/>
  <path class="fil3" d="M2648.78 1775.68l54.8 -185.56c0,0 113.06,62.28 139.23,124.69l-47.11 184.22 -146.92 -123.35z"/>
  <polygon class="fil5" points="2648.78,1775.68 2710.77,1827.72 2690.8,1850.7 2634.24,1879.77 2616.66,1876.54 2614.29,1800.77 "/>
  <polygon class="fil10" points="3317.43,652.2 3310.83,648.12 3305.63,653.88 3297.74,659.68 3299.67,673.3 3365.86,1139.79 3394.75,1135.69 3328.56,669.2 3326.62,655.59 "/>
  <polygon class="fil11" points="3345.95,999.46 3365.86,1139.79 3394.75,1135.69 3375.42,999.46 "/>
  <path class="fil5" d="M3424.14 1057.79c-2.96,-10.57 -13.25,-17.61 -24.41,-16.03l-64.77 9.19c-11.16,1.58 -19.09,11.22 -18.99,22.19 -21.24,3.08 -36,22.76 -32.99,44.02l29.1 205.09c3.02,21.31 22.75,36.13 44.06,33.1l4.49 -0.63c4.74,4.45 11.32,6.86 18.26,5.88l64.77 -9.19c6.94,-0.98 12.59,-5.13 15.91,-10.72l4.49 -0.64c21.31,-3.02 36.13,-22.75 33.11,-44.05l-29.1 -205.09c-3.02,-21.26 -22.67,-36.05 -43.93,-33.11z"/>
  <path class="fil6" d="M3474.16 1133.86c-26.26,20.56 -78.11,62.98 -91.62,50 -11.77,-11.32 -62.29,-25.42 -94.86,-33.61l24.4 172c3.02,21.31 22.75,36.13 44.06,33.1l4.49 -0.63c4.75,4.45 11.32,6.86 18.26,5.88l64.77 -9.19c6.94,-0.98 12.59,-5.13 15.91,-10.72l4.49 -0.64c21.31,-3.02 36.13,-22.75 33.11,-44.05l-23.01 -162.13z"/>
  <path class="fil6" d="M3348.47 1310.25c-3.92,0 -7.34,-2.88 -7.91,-6.87l-31.49 -221.93c-0.62,-4.37 2.42,-8.42 6.79,-9.04 4.37,-0.69 8.42,2.42 9.04,6.79l31.49 221.93c0.62,4.37 -2.42,8.42 -6.79,9.04 -0.38,0.06 -0.76,0.08 -1.13,0.08z"/>
  <path class="fil6" d="M3456.13 1291.02c-3.92,0 -7.34,-2.88 -7.91,-6.87l-31.49 -221.93c-0.62,-4.37 2.42,-8.42 6.79,-9.04 4.34,-0.62 8.41,2.42 9.04,6.79l31.49 221.93c0.62,4.37 -2.42,8.42 -6.79,9.04 -0.39,0.05 -0.76,0.08 -1.13,0.08z"/>
  <path class="fil14" d="M3162.8 1299.99c-49.41,56.48 34.16,269.87 34.16,269.87 28.37,63.88 146.21,106.08 254.96,72.33 108.75,-33.75 236.93,-149.37 258.77,-162.55 21.84,-13.19 16.75,-76.35 -3.91,-92.02 -4.54,-3.44 -23.03,2.66 -49.1,14.25 32.7,-30.32 55.21,-55.11 56.42,-63.95 3.82,-27.82 -43.62,-96.44 -71.37,-90.12 -3.46,0.79 -10.37,3.62 -19.79,7.96 0,-0.01 0.01,-0.02 0.01,-0.03 14.72,-42.76 -15.84,-86.07 -46.1,-88.82 -20.38,-1.85 -137.35,51.05 -211.61,85.82 -16.84,-18.79 -40.12,-36.77 -40.12,-36.77 0,0 -112.91,27.57 -162.32,84.05z"/>
  <path class="fil15" d="M3654.01 1387.97c-33.3,21.2 -62.14,49.85 -99.45,64.23 -12.08,4.66 -4,23.08 8.06,18.43 39.02,-15.04 69.25,-44.87 104.06,-67.03 4.58,-2.92 4.61,-10.27 1.48,-14.15 -3.74,-4.62 -9.55,-4.41 -14.15,-1.48z"/>
  <path class="fil15" d="M3613.01 1244.01c-23.22,25.22 -53.36,43.17 -86.16,52.78 -5.22,1.53 -7.16,8.72 -5.19,13.24 2.41,5.5 8.01,6.72 13.24,5.19 36.4,-10.67 68.73,-31.53 94.36,-59.37 3.68,-4 1.82,-11.12 -2.21,-14.05 -4.8,-3.49 -10.36,-1.8 -14.05,2.21z"/>
  <path class="fil15" d="M3351.77 1251.51c-7.18,4.38 -14.26,8.95 -21.18,13.73 -6.71,4.64 -14.61,9.24 -19.69,15.77 -4.55,5.84 -5.97,13.73 -8.53,20.53 -2.84,7.55 -6.16,14.89 -9.88,22.04 -2.51,4.82 1.02,11.2 5.69,13.03 5.51,2.15 10.52,-0.87 13.03,-5.7 3.5,-6.73 6.65,-13.63 9.37,-20.72 1.19,-3.1 2.3,-6.22 3.33,-9.37 0.91,-2.77 1.62,-6.06 3.23,-7.97 2.09,-2.47 5.38,-4.35 7.98,-6.24 2.89,-2.09 5.81,-4.16 8.75,-6.18 6.72,-4.63 13.58,-9.05 20.55,-13.3 4.64,-2.83 4.56,-10.33 1.48,-14.15 -3.79,-4.68 -9.49,-4.32 -14.15,-1.48z"/>
  <path class="fil14" d="M2857.83 2197.65c-177.92,-46.79 -647.62,-170.18 -805.59,-22.26 -31.34,29.35 -24.45,81.2 12.92,102.33 57.51,32.52 172.48,86.49 397.96,163.73 188.03,64.41 351.71,115.82 460.09,132.36 111.94,17.08 220.93,-44.39 263.37,-149.37 74.28,-183.78 171.52,-441.07 228.52,-808.29 10.31,-114.61 -44.55,-123.61 -224.68,-65.22 0,0 -274.69,506.63 -332.59,646.73z"/>
  <path class="fil15" d="M2463.13 2441.44c141.18,48.37 268.64,89.4 369.27,113.85 9.62,-83.94 19.89,-232.95 -5.56,-365.75 -196.26,-51.09 -625.05,-154.18 -774.59,-14.15 -31.34,29.35 -24.45,81.2 12.91,102.33 57.52,32.52 172.49,86.49 397.97,163.72z"/>
  <path class="fil15" d="M2849.19 2201.64c-9.2,60.01 14.39,117.28 37.73,171.22 5.14,11.88 23.58,3.84 18.43,-8.05 -21.94,-50.71 -44.83,-104.35 -36.17,-160.82 1.97,-12.83 -18.02,-15.12 -19.98,-2.34z"/>
  <path class="fil3" d="M2050.55 2279.26c72.35,62.57 250.77,187.55 627.04,313.43 0,0 177.62,-434.25 119.24,-576.1 0,0 -527.71,-116.75 -677.96,-69.24 0,0 -118.54,84.33 -118.18,226.62 0.1,40.55 19.19,78.78 49.86,105.3z"/>
  <path class="fil20" d="M2211.01 2089.51c-9.99,-1.2 -81.28,12.26 -54.04,27.11 35.86,1.12 46.28,41.27 74.23,56.72 -15.22,1.8 -30.61,2.05 -45.75,-0.33 -8.03,-1.98 -11.5,9.93 -3.49,12.37 12.25,4.07 19.47,17.18 27.2,26.62 18.49,23.06 51.23,37.97 80.46,28.62 29.71,-11.01 46.1,-47.21 44.7,-77.49 -6.98,-56 -74.66,-76.06 -123.3,-73.64zm56.89 20.68l0 0c36.41,9.74 67.54,46.72 48.01,84.4 -22.03,60.06 -84.09,35.37 -110.25,-7.24 9,-0.25 75.7,-0.2 53.12,-18 -17.37,-2.79 -29.39,-11.08 -40.59,-24.19 -11.81,-13.98 -22.69,-30.37 -40.61,-36.97 29.21,-9.16 61.4,-7.49 90.31,2.01z"/>
  <path class="fil10" d="M2240.2 2286.02c-10.76,-0.56 -21.68,-2.34 -32.56,-5.45 -71.32,-20.35 -114.2,-89.99 -95.58,-155.22 9.05,-31.71 31.07,-57.63 62.02,-72.98 30.74,-15.24 66.64,-18.22 101.09,-8.4 34.44,9.83 63.36,31.31 81.42,60.49 18.18,29.38 23.21,63.02 14.16,94.73 -15.77,55.28 -70.74,89.94 -130.55,86.83zm1.5 -234.88l0 0c-21.6,-1.12 -42.91,3.12 -61.99,12.59 -27.71,13.75 -47.41,36.87 -55.47,65.1 -16.7,58.51 22.27,121.11 86.88,139.54 64.62,18.49 130.74,-14.16 147.44,-72.67 8.06,-28.23 3.53,-58.27 -12.75,-84.57 -16.4,-26.49 -42.72,-46.01 -74.12,-54.97 -9.94,-2.83 -20,-4.5 -29.99,-5.02z"/>
  <polygon class="fil13" points="3900.71,375.3 3754.8,375.3 3754.8,318.31 3900.71,318.31 "/>
  <polygon class="fil20" points="3477.12,390.83 3209.7,390.83 3209.7,353.02 3477.12,353.02 "/>
  <polygon class="fil20" points="3646.56,412.22 3511.83,412.22 3511.83,353.02 3646.56,353.02 "/>
  <polygon class="fil5" points="3172.96,166.54 3172.96,375.3 3703.71,375.3 3703.71,353.02 3932.35,353.02 3932.35,166.54 "/>
  <path class="fil5" d="M3668.51 363.06c-1.05,9.06 -0.46,19.2 4.78,27.01 4.24,6.32 10.81,10.15 18.32,11.09 15.41,1.92 30.89,-8.05 37.99,-21.39 5.19,-9.75 6.02,-20.85 3.72,-31.54 -1.08,-5.03 -8.79,-2.9 -7.71,2.13 3.19,14.85 -2.03,30.06 -14.51,38.05 -5.27,3.37 -10.82,5.18 -16.79,4.99 -5.06,-0.17 -9.75,-2.08 -13.27,-6.23 -1.91,-2.25 -3.43,-5.83 -4.2,-9.31 -1.07,-4.84 -0.88,-9.9 -0.31,-14.79 0.25,-2.16 -2.02,-3.98 -4,-4 -2.37,-0.03 -3.75,1.86 -4,4z"/>
  <polygon class="fil13" points="2921.48,0 3063.14,333.07 3640.78,333.07 4218.41,333.07 4360.06,0 "/>
  <path class="fil10" d="M2931.68 23.97l1071.68 14.26c95.82,1.28 167.05,89.12 148.49,183.14l-5.16 26.17 -1095.1 58.39 11.55 27.14 577.64 0 577.63 0 141.65 -333.07 -1438.57 0 10.2 23.97z"/>
  <polygon class="fil13" points="3459.14,791.1 3244.42,573.38 3657.88,453.22 4071.34,333.07 4006.75,631.97 "/>
  <polygon class="fil11" points="4067.04,352.97 4071.34,333.07 3244.42,573.38 3258.71,587.87 "/>
  <polygon class="fil10" points="3459.14,791.1 4006.75,631.96 4062.21,375.3 3945.22,599.53 3447.39,779.18 "/>
  <polygon class="fil5" points="3482.4,632.11 3387.2,659.77 3326.56,589.64 3458.89,551.19 "/>
  <polygon class="fil6" points="3464.24,569.6 3458.89,551.19 3326.56,589.64 3340.36,605.59 "/>
  <polygon class="fil5" points="3609.88,595.06 3519.45,621.34 3495.93,540.43 3586.37,514.14 "/>
  <polygon class="fil6" points="3591.72,532.55 3586.37,514.14 3495.93,540.43 3501.28,558.83 "/>
  <polygon class="fil5" points="3737.37,558.01 3646.93,584.3 3623.42,503.38 3713.85,477.1 "/>
  <polygon class="fil6" points="3719.2,495.5 3713.85,477.1 3623.42,503.38 3628.76,521.78 "/>
  <polygon class="fil5" points="3901.9,510.2 3997.09,482.54 4010.7,390.83 3878.38,429.29 "/>
  <polygon class="fil6" points="4007.61,411.69 4010.7,390.83 3878.38,429.29 3883.73,447.69 "/>
  <polygon class="fil5" points="3774.41,547.25 3864.85,520.97 3841.34,440.05 3750.9,466.33 "/>
  <polygon class="fil6" points="3846.68,458.45 3841.34,440.05 3750.9,466.33 3756.25,484.74 "/>
 </g>
</svg>
