<?xml version="1.0" encoding="UTF-8"?>
<!DOCTYPE svg PUBLIC "-//W3C//DTD SVG 1.1//EN" "http://www.w3.org/Graphics/SVG/1.1/DTD/svg11.dtd">
<!-- Creator: CorelDRAW -->
<svg xmlns="http://www.w3.org/2000/svg" xml:space="preserve" width="129.144mm" height="76.2806mm" version="1.1" style="shape-rendering:geometricPrecision; text-rendering:geometricPrecision; image-rendering:optimizeQuality; fill-rule:evenodd; clip-rule:evenodd"
viewBox="0 0 11042.19 6522.22"
 xmlns:xlink="http://www.w3.org/1999/xlink"
 xmlns:xodm="http://www.corel.com/coreldraw/odm/2003">
 <defs>
  <style type="text/css">
   <![CDATA[
    .fil9 {fill:#2A1C3F;fill-rule:nonzero}
    .fil17 {fill:#2D2F60;fill-rule:nonzero}
    .fil6 {fill:#363A79;fill-rule:nonzero}
    .fil8 {fill:#3D285B;fill-rule:nonzero}
    .fil0 {fill:#3F9199;fill-rule:nonzero}
    .fil3 {fill:#422A62;fill-rule:nonzero}
    .fil5 {fill:#424890;fill-rule:nonzero}
    .fil12 {fill:#492F6E;fill-rule:nonzero}
    .fil7 {fill:#4F54AA;fill-rule:nonzero}
    .fil1 {fill:#52AEB5;fill-rule:nonzero}
    .fil4 {fill:#72C6CA;fill-rule:nonzero}
    .fil2 {fill:#999999;fill-rule:nonzero}
    .fil11 {fill:#C6A7A7;fill-rule:nonzero}
    .fil15 {fill:#DF8C82;fill-rule:nonzero}
    .fil20 {fill:#EB5660;fill-rule:nonzero}
    .fil10 {fill:#EBD8D8;fill-rule:nonzero}
    .fil14 {fill:#F4B1A7;fill-rule:nonzero}
    .fil16 {fill:#FFC4BC;fill-rule:nonzero}
    .fil13 {fill:white;fill-rule:nonzero}
    .fil18 {fill:white;fill-rule:nonzero;fill-opacity:0.050980}
    .fil19 {fill:white;fill-rule:nonzero;fill-opacity:0.149020}
   ]]>
  </style>
 </defs>
 <g id="Слой_x0020_1">
  <metadata id="CorelCorpID_0Corel-Layer"/>
  <path class="fil0" d="M6733.92 393.7c-237.48,0 -429.99,192.52 -429.99,430 0,237.48 192.52,429.99 429.99,429.99 237.48,0 430,-192.52 430,-429.99 0,-237.48 -192.52,-430 -430,-430z"/>
  <polygon class="fil0" points="6962.48,2699.58 6962.48,3433.89 7696.69,3433.89 7696.69,2699.58 "/>
  <polygon class="fil0" points="2788.92,2038.1 2788.92,2772.41 3523.13,2772.41 3523.13,2038.1 "/>
  <polygon class="fil0" points="7839.84,2037.06 7839.84,2558.95 8361.65,2558.95 8361.65,2037.06 "/>
  <path class="fil1" d="M10554.17 4470.07c-1399.53,-283.89 -3262.24,-616.3 -5307.14,-616.3 -1788.32,0 -3437.28,291.68 -4759,514.8l0 1793.29 10066.14 0 0 -1691.79z"/>
  <path class="fil2" d="M5691.2 6312.58c-1008.89,0 -1867.5,40.35 -2188.75,96.73 -23.61,4.14 -40.72,24.92 -40.72,49.1 0,24.2 17.11,44.96 40.73,49.11 28.68,5.03 61.63,9.94 98.62,14.7l4180.22 0c149.75,-19.27 233.86,-40.92 233.86,-63.81 0,-80.54 -1040.48,-145.83 -2323.97,-145.83z"/>
  <polygon class="fil3" points="11042.19,6161.86 -0,6161.86 -0,6249.51 11042.19,6249.51 "/>
  <polygon class="fil1" points="7071.46,2700.77 7071.46,3322.49 7693.05,3322.49 7693.05,2700.77 "/>
  <polygon class="fil4" points="7071.45,3083.36 7071.45,3225.58 7596.26,2700.77 7454.03,2700.77 "/>
  <polygon class="fil4" points="7327.28,3322.49 7693.05,2956.73 7693.05,2814.51 7185.06,3322.49 "/>
  <path class="fil5" d="M7015.14 2644.49l0 734.3 734.21 0 0 -734.3 -734.21 0zm629.37 629.46l0 0 -524.53 0 0 -524.63 524.53 0 0 524.63z"/>
  <polygon class="fil6" points="7067.54,3326.25 7749.35,3358.47 7749.35,3378.79 7015.14,3378.79 7015.14,2644.49 7048.75,2644.49 "/>
  <path class="fil7" d="M7706.76 2681.44c-12.24,0 -22.15,25.69 -22.15,57.39 0,31.7 9.92,57.39 22.15,57.39 12.24,0 22.15,-25.69 22.15,-57.39 0,-31.7 -9.91,-57.39 -22.15,-57.39z"/>
  <path class="fil7" d="M7710.11 2828.44c-7.41,0 -13.42,17.88 -13.42,39.94 0,22.06 6.01,39.94 13.42,39.94 7.41,0 13.42,-17.88 13.42,-39.94 0,-22.06 -6.01,-39.94 -13.42,-39.94z"/>
  <polygon class="fil1" points="2908.05,1990.84 2908.05,2612.56 3529.64,2612.56 3529.64,1990.84 "/>
  <polygon class="fil4" points="2908.05,2373.43 2908.05,2515.64 3432.85,1990.84 3290.63,1990.84 "/>
  <polygon class="fil4" points="3163.88,2612.56 3529.64,2246.8 3529.64,2104.58 3021.66,2612.56 "/>
  <path class="fil5" d="M2851.74 1934.55l0 734.31 734.21 0 0 -734.31 -734.21 0zm629.37 629.46l0 0 -524.53 0 0 -524.63 524.53 0 0 524.63z"/>
  <polygon class="fil6" points="2904.13,2616.32 3585.94,2648.54 3585.94,2668.86 2851.74,2668.86 2851.74,1934.55 2885.34,1934.55 "/>
  <path class="fil7" d="M3543.36 1971.51c-12.24,0 -22.15,25.69 -22.15,57.38 0,31.7 9.92,57.39 22.15,57.39 12.23,0 22.15,-25.69 22.15,-57.39 0,-31.7 -9.92,-57.38 -22.15,-57.38z"/>
  <path class="fil7" d="M3546.72 2118.5c-7.42,0 -13.43,17.88 -13.43,39.94 0,22.06 6.01,39.94 13.43,39.94 7.41,0 13.42,-17.88 13.42,-39.94 0,-22.06 -6,-39.94 -13.42,-39.94z"/>
  <polygon class="fil1" points="7921.73,2040.44 7921.73,2482.31 8363.51,2482.31 8363.51,2040.44 "/>
  <polygon class="fil0" points="7917.29,2387.96 8267.34,2037.91 8160.08,2037.91 7917.29,2280.71 "/>
  <polygon class="fil0" points="8091.5,2479.78 8359.07,2212.21 8359.07,2104.96 7984.24,2479.78 "/>
  <path class="fil5" d="M7877.26 1997.9l0 521.89 521.82 0 0 -521.89 -521.82 0zm447.31 447.39l0 0 -372.79 0 0 -372.87 372.79 0 0 372.87z"/>
  <polygon class="fil6" points="7914.51,2482.45 8399.09,2505.35 8399.09,2519.79 7877.26,2519.79 7877.26,1997.9 7901.14,1997.9 "/>
  <path class="fil7" d="M8368.81 2024.17c-8.7,0 -15.74,18.26 -15.74,40.78 0,22.53 7.05,40.78 15.74,40.78 8.7,0 15.75,-18.25 15.75,-40.78 0,-22.52 -7.05,-40.78 -15.75,-40.78z"/>
  <path class="fil7" d="M8371.2 2128.64c-5.27,0 -9.54,12.71 -9.54,28.39 0,15.67 4.28,28.39 9.54,28.39 5.27,0 9.54,-12.71 9.54,-28.39 0,-15.67 -4.28,-28.39 -9.54,-28.39z"/>
  <polygon class="fil5" points="3881.88,6161.86 2337.12,6161.86 2337.12,3895.91 3881.88,3895.91 "/>
  <path class="fil7" d="M3719.38 4252.3c0,53.47 -18.07,96.81 -40.34,96.81 -22.27,0 -40.33,-43.34 -40.33,-96.81 0,-53.47 18.06,-96.81 40.33,-96.81 22.27,0 40.34,43.34 40.34,96.81z"/>
  <path class="fil7" d="M3711.05 4447.63c0,29.23 -14.33,52.93 -32.01,52.93 -17.67,0 -32,-23.69 -32,-52.93 0,-29.22 14.33,-52.91 32,-52.91 17.68,0 32.01,23.68 32.01,52.91z"/>
  <path class="fil7" d="M3731.22 5171.58c0,53.47 -18.06,96.81 -40.34,96.81 -22.27,0 -40.33,-43.34 -40.33,-96.81 0,-53.47 18.06,-96.8 40.33,-96.8 22.28,0 40.34,43.33 40.34,96.8z"/>
  <path class="fil7" d="M3722.89 5366.91c0,29.22 -14.33,52.93 -32.01,52.93 -17.67,0 -32,-23.7 -32,-52.93 0,-29.22 14.33,-52.92 32,-52.92 17.68,0 32.01,23.69 32.01,52.92z"/>
  <path class="fil7" d="M3795.23 5827.72c0,53.47 -18.05,96.81 -40.33,96.81 -22.27,0 -40.33,-43.34 -40.33,-96.81 0,-53.46 18.06,-96.8 40.33,-96.8 22.28,0 40.33,43.34 40.33,96.8z"/>
  <path class="fil6" d="M2666.11 6044.83c-162.69,0 -294.57,-131.89 -294.57,-294.57l0 -1854.35 -34.41 0 0 2265.95 1544.76 0 0 -117.03 -1215.77 0z"/>
  <path class="fil6" d="M3842.86 4750.95l-1466.74 0c-21.55,0 -39.01,-17.46 -39.01,-39.01 0,-21.55 17.46,-39.01 39.01,-39.01l1466.74 0c21.55,0 39.02,17.46 39.02,39.01 0,21.55 -17.47,39.01 -39.02,39.01z"/>
  <path class="fil6" d="M3753.79 4604.45l-1288.58 0c-34.63,0 -62.8,-28.17 -62.8,-62.8l0 -519.3c0,-34.63 28.17,-62.8 62.8,-62.8l1288.58 0c34.63,0 62.8,28.17 62.8,62.8l0 519.3c0,34.63 -28.17,62.8 -62.8,62.8zm-1288.58 -605.78l0 0c-13.05,0 -23.67,10.62 -23.67,23.68l0 519.3c0,13.06 10.62,23.67 23.67,23.67l1288.58 0c13.05,0 23.67,-10.61 23.67,-23.67l0 -519.3c0,-13.06 -10.62,-23.68 -23.67,-23.68l-1288.58 0z"/>
  <path class="fil6" d="M3650.55 4098.85l-1082.1 0c-7.2,0 -13.05,-5.83 -13.05,-13.05 0,-7.21 5.85,-13.04 13.05,-13.04l1082.1 0c7.21,0 13.05,5.83 13.05,13.04 0,7.22 -5.84,13.05 -13.05,13.05z"/>
  <path class="fil6" d="M3109.5 4508.39c-50.96,0 -92.42,-41.46 -92.42,-92.41 0,-50.96 41.46,-92.42 92.42,-92.42 50.97,0 92.43,41.46 92.43,92.42 0,50.95 -41.46,92.41 -92.43,92.41zm0 -145.71l0 0c-29.38,0 -53.29,23.9 -53.29,53.29 0,29.39 23.91,53.29 53.29,53.29 29.39,0 53.29,-23.9 53.29,-53.29 0,-29.4 -23.91,-53.29 -53.29,-53.29z"/>
  <path class="fil6" d="M3842.86 5669.68l-1466.74 0c-21.55,0 -39.01,-17.46 -39.01,-39.01 0,-21.55 17.46,-39.01 39.01,-39.01l1466.74 0c21.55,0 39.02,17.46 39.02,39.01 0,21.55 -17.47,39.01 -39.02,39.01z"/>
  <path class="fil6" d="M3753.79 5523.18l-1288.58 0c-34.63,0 -62.8,-28.17 -62.8,-62.8l0 -519.3c0,-34.63 28.17,-62.8 62.8,-62.8l1288.58 0c34.63,0 62.8,28.17 62.8,62.8l0 519.3c0,34.63 -28.17,62.8 -62.8,62.8zm-1288.58 -605.78l0 0c-13.05,0 -23.67,10.62 -23.67,23.68l0 519.3c0,13.06 10.62,23.67 23.67,23.67l1288.58 0c13.05,0 23.67,-10.61 23.67,-23.67l0 -519.3c0,-13.06 -10.62,-23.68 -23.67,-23.68l-1288.58 0z"/>
  <path class="fil6" d="M3650.55 5017.58l-1082.1 0c-7.2,0 -13.05,-5.84 -13.05,-13.05 0,-7.21 5.85,-13.04 13.05,-13.04l1082.1 0c7.21,0 13.05,5.83 13.05,13.04 0,7.21 -5.84,13.05 -13.05,13.05z"/>
  <path class="fil6" d="M3109.5 5427.12c-50.96,0 -92.42,-41.46 -92.42,-92.41 0,-50.96 41.46,-92.42 92.42,-92.42 50.97,0 92.43,41.46 92.43,92.42 0,50.95 -41.46,92.41 -92.43,92.41zm0 -145.71l0 0c-29.38,0 -53.29,23.9 -53.29,53.29 0,29.39 23.91,53.29 53.29,53.29 29.39,0 53.29,-23.9 53.29,-53.29 0,-29.4 -23.91,-53.29 -53.29,-53.29z"/>
  <path class="fil6" d="M3109.5 5923.01c-50.96,0 -92.42,-41.46 -92.42,-92.42 0,-50.95 41.46,-92.42 92.42,-92.42 50.97,0 92.43,41.47 92.43,92.42 0,50.96 -41.46,92.42 -92.43,92.42zm0 -145.71l0 0c-29.38,0 -53.29,23.9 -53.29,53.29 0,29.39 23.91,53.29 53.29,53.29 29.39,0 53.29,-23.9 53.29,-53.29 0,-29.39 -23.91,-53.29 -53.29,-53.29z"/>
  <path class="fil5" d="M8206.52 5681.34l-373.35 0 -373.35 0c0,0 -12.87,245.74 83.72,397.97 32.71,51.55 89.75,82.54 150.81,82.54l138.81 0 138.82 0c61.05,0 118.1,-30.99 150.8,-82.54 96.6,-152.23 83.72,-397.97 83.72,-397.97z"/>
  <path class="fil7" d="M7580.6 5824.28c5.25,41.94 -8.35,78.18 -30.36,80.93 -22.01,2.75 -44.1,-29.01 -49.35,-70.96 -5.24,-41.94 8.35,-78.17 30.36,-80.92 22.01,-2.75 44.11,29.01 49.35,70.95z"/>
  <path class="fil7" d="M7580.04 5982.58c2.61,20.85 -4.15,38.85 -15.09,40.22 -10.94,1.37 -21.92,-14.42 -24.53,-35.26 -2.6,-20.85 4.16,-38.85 15.09,-40.22 10.94,-1.37 21.92,14.42 24.53,35.26z"/>
  <path class="fil6" d="M8206.52 5681.34l-91.91 0c-2.1,44.16 -7.63,102.4 -21.21,161.98 -32.17,141.06 -158.1,240.87 -302.77,240.87l-48.75 0 -138.82 0c-22.05,0 -43.56,-4.1 -63.61,-11.7 1.37,2.27 2.68,4.59 4.1,6.82 32.71,51.55 89.75,82.54 150.81,82.54l138.81 0 138.82 0c61.05,0 118.1,-30.99 150.8,-82.54 96.6,-152.23 83.72,-397.97 83.72,-397.97z"/>
  <path class="fil6" d="M8205.44 5681.34c0,27.47 -166.67,49.74 -372.27,49.74 -205.6,0 -372.27,-22.26 -372.27,-49.74 0,-27.46 166.67,-49.74 372.27,-49.74 205.6,0 372.27,22.27 372.27,49.74z"/>
  <path class="fil7" d="M8112.05 5681.34c0,13.28 -124.85,24.04 -278.88,24.04 -154.02,0 -278.88,-10.76 -278.88,-24.04 0,-13.28 124.86,-24.04 278.88,-24.04 154.03,0 278.88,10.76 278.88,24.04z"/>
  <path class="fil5" d="M8009.5 5681.34c0,8.76 -80.77,15.87 -180.42,15.87 -99.65,0 -180.42,-7.11 -180.42,-15.87 0,-8.76 80.77,-15.87 180.42,-15.87 99.65,0 180.42,7.11 180.42,15.87z"/>
  <path class="fil7" d="M8221.58 4985.06c-408.41,117.46 -415.3,695.84 -415.3,695.84l36.07 0c436.53,-176.2 379.23,-695.84 379.23,-695.84z"/>
  <path class="fil5" d="M7878.04 5329.38c-69.65,176.85 -71.75,351.53 -71.75,351.53l36.07 0c33.57,-13.55 64.2,-29.15 92.17,-46.37 -33.56,-61.22 -49.41,-207.41 -56.48,-305.16z"/>
  <path class="fil5" d="M8221.58 4985.06c-15.79,4.54 -30.92,9.85 -45.53,15.71 -5.44,153.92 -56.3,463.36 -363.52,598.01 -5.86,50.28 -6.24,82.13 -6.24,82.13l36.07 0c436.53,-176.2 379.23,-695.84 379.23,-695.84z"/>
  <path class="fil6" d="M8215.6 4990.67c-64.96,82.94 -130.14,166.13 -185.13,256.18 -53.98,88.38 -93.95,183.8 -138.75,276.89 -25.13,52.23 -52.15,103.54 -84.06,152 -2.31,3.51 3.33,6.79 5.63,3.29 55.45,-84.21 95.5,-176.82 138.17,-267.82 44.48,-94.82 95.81,-184.31 157.08,-269.33 35.92,-49.85 73.8,-98.23 111.67,-146.59 2.56,-3.27 -2.02,-7.92 -4.61,-4.61z"/>
  <path class="fil7" d="M7545.83 5140.35c0,0 -61.25,469.87 260.46,545.53l36.07 -4.98c0,0 70.28,-379.28 -296.52,-540.55z"/>
  <path class="fil5" d="M7597.17 5165.89c-16.1,-8.99 -33.16,-17.55 -51.34,-25.54 0,0 -61.25,469.87 260.46,545.53l36.07 -4.98c0,0 4.11,-22.3 5.15,-58.33 -221.78,-62.8 -250.93,-320.62 -250.33,-456.68z"/>
  <path class="fil6" d="M7836.32 5675.65c-70.51,-188.5 -156.84,-379.79 -287.29,-535.12 -2.7,-3.22 -7.3,1.41 -4.62,4.61 129.67,154.38 215.54,344.94 285.61,532.25 1.46,3.89 7.77,2.21 6.29,-1.74z"/>
  <path class="fil5" d="M3518.16 3509.8c-22.85,-25.26 -24.25,-63.24 -2.87,-89.76l17.36 -21.55c9.83,-12.2 1.15,-30.36 -14.53,-30.36l-270.44 0c-15.67,0 -24.36,18.16 -14.53,30.36l17.37 21.55c21.37,26.52 19.96,64.5 -2.88,89.76 -70.62,78.07 -184.46,251.76 42.01,386.11l93.25 0 93.26 0c226.46,-134.36 112.62,-308.04 42.01,-386.11z"/>
  <path class="fil7" d="M3575.01 3739.65c-5.24,29.95 -19.45,52.48 -31.75,50.34 -12.29,-2.15 -18.01,-28.17 -12.77,-58.12 5.24,-29.94 19.44,-52.48 31.74,-50.34 12.3,2.15 18.01,28.17 12.77,58.12z"/>
  <path class="fil7" d="M3568.37 3621.47c4.23,16.79 0.68,32.17 -7.94,34.35 -8.62,2.17 -19.04,-9.68 -23.28,-26.47 -4.23,-16.8 -0.68,-32.17 7.94,-34.35 8.62,-2.18 19.04,9.67 23.28,26.47z"/>
  <path class="fil6" d="M3451.17 3858.44l-18.91 0c-69.98,0 -137.4,-32.4 -176.71,-90.3 -77.37,-113.99 4.85,-234.44 60.36,-295.81 22.85,-25.26 24.25,-63.25 2.87,-89.76l-11.63 -14.44 -59.48 0c-15.67,0 -24.36,18.16 -14.53,30.36l17.37 21.55c21.37,26.52 19.96,64.5 -2.88,89.76 -70.62,78.07 -184.46,251.76 42.01,386.11l93.25 0 93.26 0c20.55,-12.19 38.24,-24.72 53.47,-37.47l-78.44 0z"/>
  <path class="fil1" d="M7156.84 748.82c0,204.04 -165.41,369.43 -369.44,369.43 -204.03,0 -369.43,-165.4 -369.43,-369.43 0,-204.04 165.41,-369.43 369.43,-369.43 204.04,0 369.44,165.4 369.44,369.43z"/>
  <path class="fil4" d="M6470.27 938.33l506.65 -506.64c-29.24,-17.51 -61.08,-31.08 -94.83,-40.01l-451.81 451.81c8.93,33.75 22.5,65.6 40,94.83z"/>
  <path class="fil4" d="M6645.14 1089.83l483.27 -483.28c-12.8,-30.65 -29.68,-59.18 -49.85,-84.99l-518.41 518.41c25.81,20.18 54.33,37.05 84.99,49.86z"/>
  <path class="fil6" d="M6787.4 763.55c-8.14,0 -14.73,-6.6 -14.73,-14.73l0 -220.94c0,-8.14 6.59,-14.73 14.73,-14.73 8.14,0 14.73,6.59 14.73,14.73l0 220.94c0,8.13 -6.59,14.73 -14.73,14.73z"/>
  <path class="fil6" d="M6947.26 763.55l-159.86 0c-8.14,0 -14.73,-6.59 -14.73,-14.73 0,-8.14 6.59,-14.73 14.73,-14.73l159.86 0c8.15,0 14.74,6.59 14.74,14.73 0,8.14 -6.59,14.73 -14.74,14.73z"/>
  <path class="fil5" d="M6831.02 748.82c0,24.04 -19.49,43.53 -43.53,43.53 -24.04,0 -43.53,-19.49 -43.53,-43.53 0,-24.04 19.49,-43.53 43.53,-43.53 24.04,0 43.53,19.49 43.53,43.53z"/>
  <path class="fil5" d="M6787.4 318.82c-237.48,0 -429.99,192.51 -429.99,429.99 0,237.48 192.52,429.99 429.99,429.99 237.48,0 430,-192.51 430,-429.99 0,-237.48 -192.52,-429.99 -430,-429.99zm0 749.37l0 0c-176.38,0 -319.36,-143 -319.36,-319.37 0,-176.38 142.99,-319.36 319.36,-319.36 176.38,0 319.37,142.98 319.37,319.36 0,176.38 -142.99,319.37 -319.37,319.37z"/>
  <path class="fil6" d="M6468.04 748.82c0,-176.38 142.99,-319.36 319.36,-319.36 94.99,0 180.23,41.5 238.73,107.31 -57.36,-85.15 -154.67,-141.17 -265.06,-141.17 -176.38,0 -319.36,142.99 -319.36,319.37 0,81.4 30.5,155.64 80.64,212.05 -34.29,-50.9 -54.31,-112.21 -54.31,-178.2z"/>
  <path class="fil6" d="M7113.39 468.58c48.9,69.79 77.68,154.7 77.68,246.39 0,237.48 -192.51,429.99 -429.99,429.99 -130.38,0 -247.13,-58.11 -325.99,-149.76 77.76,110.98 206.52,183.61 352.32,183.61 237.48,0 430,-192.51 430,-429.99 0,-107.09 -39.24,-204.97 -104.01,-280.24z"/>
  <path class="fil7" d="M6471.87 542.01c-16.26,24.09 -37.52,38.16 -47.48,31.44 -9.96,-6.73 -4.85,-31.7 11.41,-55.79 16.26,-24.09 37.52,-38.17 47.48,-31.45 9.96,6.73 4.86,31.7 -11.41,55.8z"/>
  <path class="fil7" d="M6531.16 458.07c-11.47,10.12 -24.99,13.53 -30.2,7.62 -5.21,-5.91 -0.13,-18.9 11.34,-29 11.47,-10.12 24.99,-13.53 30.2,-7.62 5.21,5.91 0.14,18.9 -11.34,29z"/>
  <polygon class="fil8" points="5248.97,3089.04 6688.12,3089.04 6622.98,2872.46 5183.82,2872.46 "/>
  <polygon class="fil9" points="6663.68,3007.75 6688.12,3089.04 5248.97,3089.04 5224.52,3007.75 "/>
  <polygon class="fil8" points="5465.13,3845.81 6904.28,3845.81 6839.13,3629.23 5399.98,3629.23 "/>
  <polygon class="fil9" points="6879.83,3764.52 6904.28,3845.81 5465.13,3845.81 5440.68,3764.52 "/>
  <polygon class="fil8" points="5681.28,4602.58 7120.44,4602.58 7055.29,4386 5616.13,4386 "/>
  <polygon class="fil9" points="7095.99,4521.29 7120.44,4602.58 5681.28,4602.58 5656.83,4521.29 "/>
  <polygon class="fil8" points="5897.44,5359.36 7336.6,5359.36 7271.45,5142.77 5832.29,5142.77 "/>
  <polygon class="fil9" points="7312.15,5278.07 7336.6,5359.36 5897.44,5359.36 5872.99,5278.07 "/>
  <polygon class="fil8" points="6113.6,6116.14 7552.76,6116.14 7487.6,5899.55 6048.45,5899.55 "/>
  <polygon class="fil9" points="7528.3,6034.84 7552.76,6116.14 6113.6,6116.14 6089.14,6034.84 "/>
  <polygon class="fil10" points="7568.2,6437.73 6340.52,2334.63 6479.08,2334.63 7706.76,6437.73 "/>
  <polygon class="fil11" points="6383.95,2334.63 7611.64,6437.73 7568.2,6437.73 6340.52,2334.63 "/>
  <polygon class="fil11" points="6401.97,2540.01 6340.52,2334.63 6479.08,2334.63 6540.53,2540.01 "/>
  <polygon class="fil10" points="6156.55,6437.73 4928.86,2334.63 5067.42,2334.63 6295.11,6437.73 "/>
  <polygon class="fil11" points="4972.3,2334.63 6199.98,6437.73 6156.55,6437.73 4928.86,2334.63 "/>
  <polygon class="fil11" points="4990.31,2540.01 4928.86,2334.63 5067.42,2334.63 5128.87,2540.01 "/>
  <polygon class="fil12" points="6438.03,3020.91 4775.37,3020.91 4850.64,2804.32 6513.3,2804.32 "/>
  <polygon class="fil8" points="4803.62,2939.6 4775.37,3020.91 6438.03,3020.91 6466.28,2939.6 "/>
  <polygon class="fil12" points="6188.31,3777.68 4525.64,3777.68 4600.91,3561.09 6263.57,3561.09 "/>
  <polygon class="fil8" points="4553.89,3696.38 4525.64,3777.68 6188.3,3777.68 6216.56,3696.38 "/>
  <polygon class="fil12" points="5938.58,4534.45 4275.91,4534.45 4351.19,4317.86 6013.84,4317.86 "/>
  <polygon class="fil8" points="4304.16,4453.15 4275.91,4534.45 5938.58,4534.45 5966.83,4453.15 "/>
  <polygon class="fil12" points="5688.85,5291.22 4026.18,5291.22 4101.46,5074.64 5764.12,5074.64 "/>
  <path class="fil8" d="M4088.2 5112.78c117.04,46.65 275.83,75.38 450.88,75.38 218.77,0 412.2,-44.83 530.31,-113.52l-967.93 0 -13.26 38.14z"/>
  <polygon class="fil8" points="4054.44,5209.93 4026.18,5291.22 5688.85,5291.22 5717.1,5209.93 "/>
  <polygon class="fil12" points="5439.12,6047.99 3776.45,6047.99 3851.72,5831.42 5514.4,5831.42 "/>
  <polygon class="fil8" points="3804.71,5966.7 3776.45,6047.99 5439.12,6047.99 5467.38,5966.7 "/>
  <polygon class="fil13" points="3735.1,6437.73 5153.45,2334.63 4993.38,2334.63 3575.03,6437.73 "/>
  <path class="fil11" d="M4182.34 5143.95l167.64 -484.96c-61.6,7.76 -119.33,19.18 -171.72,33.68l-137.91 398.94c40.86,20.19 88.71,37.84 141.99,52.34z"/>
  <polygon class="fil10" points="5103.27,2334.63 3684.92,6437.73 3735.1,6437.73 5153.45,2334.63 "/>
  <polygon class="fil10" points="5082.46,2540.01 5153.45,2334.63 4993.38,2334.63 4922.38,2540.01 "/>
  <polygon class="fil13" points="5366,6437.73 6784.34,2334.63 6624.26,2334.63 5205.92,6437.73 "/>
  <polygon class="fil10" points="6734.16,2334.63 5315.82,6437.73 5366,6437.73 6784.34,2334.63 "/>
  <path class="fil11" d="M5853.07 4565.59l-111.15 321.52c8.04,0.15 16.12,0.24 24.26,0.24 48.32,0 94.82,-2.77 138.46,-7.85l100.96 -292.08c-45.93,-10.42 -97.41,-17.95 -152.53,-21.83z"/>
  <polygon class="fil10" points="6713.34,2540.01 6784.34,2334.63 6624.26,2334.63 6553.27,2540.01 "/>
  <polygon class="fil12" points="6806.12,2406.82 4859.84,2406.82 4859.84,2116.29 6806.12,2116.29 "/>
  <path class="fil8" d="M5382.23 2116.29c-166.15,66.26 -265.55,138.73 -252.16,196.73 23.51,101.93 386.14,120.53 809.94,41.55 310.38,-57.85 567.3,-151.98 673.46,-238.27l-1231.24 0z"/>
  <polygon class="fil8" points="4859.84,2323.47 4859.84,2406.82 6806.12,2406.82 6806.12,2323.47 "/>
  <polygon class="fil14" points="4499.79,1507.47 4233.44,1551 4170.99,1168.84 4437.34,1125.31 "/>
  <path class="fil3" d="M4203.82 1369.78c84.71,-3.81 180.54,-53.29 256.61,-103.13l-23.09 -141.33 -266.35 43.53 32.83 200.93z"/>
  <path class="fil6" d="M4348.71 464.22c-0.24,-6.05 -1.11,-12.95 -2.9,-21.08 -24.35,-110.23 -172.15,-90.45 -172.15,-90.45 0,0 -74.82,2.97 -52.14,72.78 22.68,69.81 149.68,178.09 149.68,178.09 0,0 74.63,13.36 95.04,-59.24 10.59,-37.67 -2.5,-63.69 -17.53,-80.1z"/>
  <path class="fil15" d="M4330.57 656.88c77.36,-84.63 202.7,-18.62 213.05,88.68 10.34,107.31 -121.41,145.59 -121.41,145.59l-72.27 -50.73c0,0 -96.73,-98.92 -19.37,-183.55z"/>
  <path class="fil14" d="M3682.02 840.67l26.92 53.73c70.36,140.43 163.55,268.56 277.78,376.37 41.85,39.49 82.45,64.73 102.64,75.75 79.18,43.21 411.15,-98.47 448.48,-321.72 37.32,-223.26 -320.56,-587.14 -320.56,-587.14 0,0 -535.27,403.02 -535.27,403.02z"/>
  <path class="fil16" d="M4105.41 1117.91c8.74,15.95 -7.46,41.75 -36.17,57.63 -28.71,15.87 -59.07,15.8 -67.8,-0.15 -8.73,-15.95 7.46,-41.76 36.18,-57.63 28.71,-15.87 59.07,-15.8 67.8,0.15z"/>
  <path class="fil16" d="M4483.67 888.86c6.09,11.12 22.73,14.36 41.94,10.04 -5.65,-18.87 -12.75,-38.04 -20.96,-57.29 -18.75,15.29 -28.01,34.42 -20.98,47.25z"/>
  <path class="fil15" d="M3708.95 894.4c32.53,64.94 70.16,127.08 112.28,185.96 6.95,-3.45 13.57,-7.09 19.57,-11.01 72.02,-47.11 68.94,-156.94 54,-240.05 78.05,-54.54 140.31,-132.3 179.39,-189.01 8.07,-0.52 16.07,-1.47 23.9,-3.02 73.33,-14.49 129.49,-86.42 165.66,-149.31 -28.03,-31.54 -46.46,-50.3 -46.46,-50.3 0,0 -535.27,403.02 -535.27,403.02l26.93 53.73z"/>
  <path class="fil5" d="M4113.1 23.46c-88.45,-32.6 -302.54,112.22 -356.15,272.04 -4.34,12.96 -7.42,25.37 -9.97,37.52 -30.04,-10.82 -67.15,-11.2 -111.99,10.1 -148.79,70.69 -218.26,48.45 -300.87,313.44 -82.61,264.99 445.17,470.87 445.17,470.87 0,0 35.11,27.17 77.65,-24.84 33.76,-41.29 -36,-200.9 -66.23,-265.03 64.06,-35.59 158.31,-103.83 211.06,-216.59 38.77,4.5 168.41,-50.04 216.87,-131.65 86.18,-145.15 27.78,-242.61 27.78,-242.61 0,0 -42.47,-41.39 -82.01,-23 4.17,-83.65 -2.02,-182.1 -51.3,-200.26z"/>
  <path class="fil6" d="M4001.77 620.98c38.77,4.5 168.41,-50.04 216.87,-131.65 86.18,-145.15 27.78,-242.61 27.78,-242.61 0,0 -14.41,-13.95 -34.2,-22.05 12.47,39.77 -3.33,106.46 -83.24,200.04 -104.31,122.14 -176.77,31.6 -176.77,31.6 0,0 9.63,106.49 -74.67,166.6 -84.29,60.12 -111.08,11.85 -111.08,11.85 0,0 -83.51,326.26 -169.08,306.49 -62.41,-14.43 -166.48,-60.8 -218.28,-84.86 120.16,161.77 400.19,271.04 400.19,271.04 0,0 35.12,27.17 77.65,-24.84 33.77,-41.3 -36,-200.9 -66.23,-265.03 64.06,-35.59 158.31,-103.83 211.06,-216.59z"/>
  <path class="fil7" d="M3512.4 485.54c28.59,12.47 31.94,68.07 7.46,124.18 -24.47,56.11 -67.49,91.49 -96.09,79.01 -28.59,-12.47 -31.94,-68.07 -7.46,-124.18 24.48,-56.11 67.5,-91.49 96.09,-79.02z"/>
  <path class="fil7" d="M3856.48 250.89c16.57,7.23 18.5,39.44 4.33,71.94 -14.18,32.52 -39.11,53.01 -55.67,45.79 -16.56,-7.23 -18.5,-39.43 -4.33,-71.95 14.18,-32.5 39.11,-53 55.67,-45.78z"/>
  <path class="fil14" d="M3723.29 1110.38c-86.43,98.05 -2.9,232.47 116.11,231.29 119,-1.18 149.7,-155.42 149.7,-155.42l-62.12 -75.97c0,0 -117.27,-97.96 -203.69,0.09z"/>
  <path class="fil15" d="M3898.03 1201.1c0,0 -29.59,-46.79 -54.75,-51.78 -25.15,-5.01 -85.31,-3.09 -72.27,55.79 13.05,58.89 100.6,106.31 127.01,-4.01z"/>
  <path class="fil17" d="M3885.75 1245.79c-0.07,0.18 -0.14,0.35 -0.21,0.52 -6.1,14.71 -22.77,25.04 -42.46,26.33 -25.01,1.62 -48.51,-11 -64.47,-34.64 -14.23,-21.08 -19.25,-40.19 -14.91,-56.83 5.17,-19.55 21.65,-27.93 22.35,-28.27 5.04,-2.47 11.36,-0.5 14.15,4.39 2.79,4.87 0.97,10.8 -3.99,13.3 -0.52,0.27 -9.64,5.17 -12.36,16.36 -2.74,11.04 1.35,24.75 12.14,40.74 11.53,17.07 27.89,26.22 44.89,25.12 11.84,-0.78 21.99,-6.56 25.26,-14.4 2.08,-5.04 8.11,-7.34 13.48,-5.16 5.17,2.11 7.83,7.64 6.13,12.54z"/>
  <path class="fil13" d="M4143.57 940.91c-2.03,-38.72 -28.57,-73.41 -68.04,-83.93 -49,-13.06 -99.32,16.08 -112.38,65.08 -12.96,48.63 15.65,98.49 63.96,112.03 31.38,-35.24 73.16,-69.14 116.46,-93.18z"/>
  <path class="fil17" d="M4075.53 856.98c-5.53,-1.47 -11.09,-2.34 -16.6,-2.77 -18.9,7.84 -33.71,24.63 -38.08,46.21 -7,34.48 15.27,68.11 49.76,75.11 0.75,0.15 1.5,0.21 2.25,0.34 20.46,-20.25 43.39,-39.02 67.15,-54.94 -8.52,-30.17 -31.99,-55.29 -64.48,-63.95z"/>
  <path class="fil17" d="M4130.07 887.45c-0.58,1.67 -1.57,3.22 -2.98,4.49 -4.45,4.06 -11.36,3.73 -15.42,-0.74 -10.43,-11.47 -23.9,-19.65 -38.95,-23.66 -20.9,-5.57 -42.69,-2.67 -61.38,8.17 -18.71,10.83 -32.06,28.21 -37.64,49.17 -6.59,24.75 -1.3,50.52 14.51,70.72 3.72,4.75 2.88,11.61 -1.86,15.34 -4.75,3.72 -11.61,2.88 -15.33,-1.86 -20.08,-25.64 -26.81,-58.39 -18.43,-89.82 7.11,-26.56 24.04,-48.7 47.79,-62.46 23.76,-13.75 51.44,-17.43 77.97,-10.36 19.13,5.1 36.24,15.5 49.49,30.08 2.79,3.07 3.5,7.28 2.23,10.94z"/>
  <path class="fil13" d="M4425.66 733.93c-1.86,-35.49 -26.2,-67.32 -62.4,-76.96 -44.94,-11.98 -91.09,14.75 -103.07,59.69 -11.88,44.59 14.36,90.32 58.66,102.73 28.78,-32.32 67.1,-63.4 106.8,-85.46z"/>
  <path class="fil17" d="M4363.26 656.97c-5.08,-1.36 -10.17,-2.15 -15.23,-2.54 -17.34,7.19 -30.91,22.59 -34.93,42.37 -6.42,31.63 14.01,62.47 45.64,68.89 0.68,0.15 1.37,0.2 2.05,0.32 18.78,-18.57 39.8,-35.79 61.59,-50.4 -7.8,-27.66 -29.33,-50.7 -59.13,-58.64z"/>
  <path class="fil17" d="M4413.28 684.91c-0.53,1.53 -1.45,2.96 -2.73,4.12 -4.09,3.72 -10.42,3.42 -14.15,-0.68 -9.57,-10.52 -21.91,-18.02 -35.71,-21.7 -19.16,-5.1 -39.15,-2.45 -56.3,7.49 -17.15,9.94 -29.4,25.87 -34.51,45.1 -6.05,22.69 -1.2,46.33 13.3,64.85 3.41,4.36 2.64,10.65 -1.71,14.07 -4.35,3.41 -10.65,2.64 -14.07,-1.71 -18.42,-23.52 -24.58,-53.55 -16.9,-82.37 6.52,-24.35 22.05,-44.67 43.82,-57.28 21.79,-12.61 47.18,-15.99 71.51,-9.51 17.54,4.67 33.24,14.21 45.38,27.59 2.57,2.8 3.21,6.68 2.05,10.03z"/>
  <path class="fil17" d="M3846.1 846.12c5.66,17.87 28.93,22.8 42.96,10.35 29.62,-26.24 87.38,-78.96 94.9,-97.34 10.18,-24.86 -25.03,-35.83 -34,-30.93 -8.98,4.91 -95.3,76.76 -103.68,102.38 -1.86,5.69 -1.64,10.89 -0.17,15.53z"/>
  <path class="fil17" d="M4115.4 604.56c1.12,18.72 22.47,29.18 39.13,20.55 35.13,-18.2 104.04,-55.17 115.84,-71.15 15.95,-21.61 -15.5,-40.87 -25.4,-38.31 -9.91,2.57 -111.2,51.11 -125.6,73.9 -3.2,5.06 -4.26,10.15 -3.97,15.01z"/>
  <path class="fil17" d="M4375.99 1007.35c-5.22,15.02 -22.68,26.81 -26.75,29.41 -5.09,3.23 -11.83,1.73 -15.08,-3.36 -3.24,-5.1 -1.73,-11.85 3.35,-15.1 9.39,-6 18.39,-15.54 18.09,-19.35 -0.03,-0.34 -1.05,-2.06 -5.67,-4.19 -34.27,-15.8 -71.44,-59.05 -73.01,-60.89 -3.92,-4.58 -3.39,-11.48 1.21,-15.41 4.6,-3.92 11.5,-3.39 15.42,1.21 0.36,0.41 35.65,41.44 65.54,55.23 14.35,6.61 17.9,15.94 18.34,22.6 0.22,3.39 -0.33,6.69 -1.44,9.85z"/>
  <path class="fil17" d="M4450.31 1117.46c-0.36,3.27 -2.22,6.64 -5.37,8.99 -37.84,28.33 -85.05,40.75 -131.55,34.94 -7.21,-0.9 -11.98,-6.9 -10.7,-12.8 1.27,-5.93 7.28,-9.66 13.48,-8.9 40.89,5.1 82.42,-5.83 115.73,-30.79 5.04,-3.76 12.16,-3.53 16.17,0.99 1.81,2.09 2.57,4.81 2.26,7.58z"/>
  <path class="fil18" d="M4159.77 996.2l-79.08 57c-45.2,32.58 -108.25,22.35 -140.82,-22.85l-33.44 -46.39c-14.91,-20.69 -10.23,-49.56 10.47,-64.47l167.82 -120.97c20.69,-14.91 49.56,-10.23 64.47,10.47l33.44 46.39c32.58,45.2 22.35,108.25 -22.85,140.82z"/>
  <path class="fil19" d="M3995.38 1068.71l98.56 -275.25c-3.2,1.33 -6.31,2.95 -9.23,5.06l-71.89 51.81 -67.08 187.35c13.49,15.48 30.88,25.97 49.64,31.03z"/>
  <path class="fil19" d="M4038.09 1070.81c14.91,-2.45 29.51,-8.17 42.59,-17.61l32.99 -23.77 64.52 -180.2 -29.01 -40.25c-3.61,-5.01 -8.06,-9.03 -13,-12.12l-98.09 273.94z"/>
  <path class="fil3" d="M4206.32 951.19c-7.28,20.96 -20.83,39.95 -40.15,53.88 0,0.01 0,0.01 0,0.01l-79.09 57c-50,36.06 -120.03,24.68 -156.09,-25.33l-33.43 -46.39c-8.94,-12.38 -12.49,-27.49 -10.06,-42.55 2.46,-15.05 10.62,-28.26 22.99,-37.19l167.82 -120.96c12.37,-8.92 27.49,-12.49 42.55,-10.05 15.06,2.45 28.27,10.61 37.19,22.99l33.43 46.39c22.12,30.7 26.39,68.92 14.83,102.21zm-52.94 36.14l0 0c40.24,-29.02 49.37,-85.32 20.37,-125.55l-33.43 -46.4c-11.37,-15.76 -33.45,-19.35 -49.21,-7.99l-167.83 120.97c-7.64,5.51 -12.7,13.64 -14.18,22.95 -1.5,9.29 0.69,18.61 6.19,26.25l33.44 46.39c29.01,40.23 85.33,49.37 125.56,20.38l79.09 -57 -0.01 0.01z"/>
  <path class="fil18" d="M4434.62 786.69l-79.08 57.01c-45.2,32.58 -108.25,22.34 -140.82,-22.85l-33.44 -46.39c-14.91,-20.69 -10.23,-49.56 10.47,-64.47l167.82 -120.96c20.69,-14.91 49.56,-10.23 64.47,10.47l33.45 46.39c32.57,45.19 22.34,108.24 -22.85,140.81z"/>
  <path class="fil19" d="M4270.23 859.22l98.56 -275.26c-3.19,1.33 -6.3,2.95 -9.23,5.06l-71.89 51.81 -67.08 187.35c13.49,15.48 30.88,25.98 49.64,31.04z"/>
  <path class="fil19" d="M4312.95 861.31c14.9,-2.44 29.5,-8.17 42.59,-17.61l32.99 -23.78 64.51 -180.2 -29.01 -40.25c-3.61,-5.01 -8.06,-9.03 -13,-12.12l-98.08 273.94z"/>
  <path class="fil3" d="M4481.17 741.68c-7.28,20.96 -20.83,39.96 -40.15,53.88l0 0.01 -79.09 57c-24.22,17.47 -53.8,24.45 -83.27,19.67 -29.5,-4.79 -55.35,-20.76 -72.81,-44.99l-33.44 -46.39c-18.41,-25.55 -12.59,-61.31 12.93,-79.73l167.83 -120.97c25.56,-18.42 61.32,-12.61 79.73,12.94l33.45 46.4c22.12,30.69 26.39,68.91 14.83,102.19zm-52.94 36.14l0 0c40.23,-29.01 49.35,-85.32 20.38,-125.54l-33.45 -46.4c-11.36,-15.76 -33.43,-19.35 -49.21,-7.98l-167.83 120.96c-15.75,11.36 -19.34,33.43 -7.99,49.2l33.45 46.39c14.05,19.49 34.84,32.35 58.55,36.19 23.71,3.85 47.51,-1.77 66.99,-15.82l79.09 -57 0 0z"/>
  <path class="fil3" d="M4219.06 816.13c-1.83,5.28 -7.41,8.39 -12.95,7.02 -11.65,-2.86 -24.88,14.29 -27.78,19.03 -3.15,5.15 -9.88,6.78 -15.03,3.63 -5.15,-3.15 -6.83,-9.93 -3.63,-15.03 0.9,-1.49 22.42,-36.04 51.67,-28.87 5.87,1.45 9.45,7.37 8.01,13.24 -0.09,0.33 -0.19,0.67 -0.3,0.98z"/>
  <path class="fil3" d="M3918.68 931.14c-0.96,2.75 -3.01,5.12 -5.89,6.4 -33.25,14.81 -139.39,112.06 -177.49,148.27 -4.37,4.16 -11.29,3.99 -15.47,-0.38 -4.16,-4.38 -3.99,-11.31 0.39,-15.46 5.71,-5.43 140.17,-133.04 183.67,-152.4 5.51,-2.46 11.98,0.02 14.44,5.53 1.17,2.64 1.21,5.51 0.34,8.05z"/>
  <path class="fil10" d="M4291.45 4523.43c0,0 -112.03,208.47 -40.61,317.46 71.42,108.97 416.74,352.73 580.35,289.01 163.63,-63.72 250.03,-225.74 226.1,-317.24 -23.92,-91.51 -208.24,-87.24 -275.52,-88.43 -67.27,-1.21 -126.84,-176.46 -126.84,-176.46l-363.49 -24.33z"/>
  <path class="fil11" d="M4487.52 4949.83c-133.56,-136.92 -102.9,-169.22 3.86,-209.56 68.74,-25.98 147.12,-82.48 194.25,-119.46 -18.94,-38.51 -30.69,-73.05 -30.69,-73.05l-333.58 -22.33c-10.35,44.68 -41.49,190.05 -31.73,282.85 6.21,58.99 31.64,101.51 54.09,128.53 134.3,112.56 363.23,241.47 487.48,193.08 24.71,-9.62 47.63,-21.51 68.7,-35.04 -146.09,-4.86 -324.99,-55.46 -412.37,-145.03z"/>
  <path class="fil11" d="M4750.97 4712.48c-24.8,19 -48.58,39.59 -71.39,61.54 -3.49,3.35 -2.7,10.3 0.38,13.59 3.64,3.9 8.5,3.01 12,-0.36 21.68,-20.87 44.41,-40.32 67.98,-58.4 8.99,-6.88 0.08,-23.33 -8.98,-16.37z"/>
  <path class="fil10" d="M5468.84 4244.17c0,0 -102.32,214.82 -26.04,319.5 76.28,104.67 412.95,247.63 573.38,174.38 160.44,-73.24 258.53,-159.86 230.46,-249.88 -28.07,-90.01 -211.88,-74.93 -279.11,-72.18 -67.21,2.75 -134.69,-168.83 -134.69,-168.83l-363.99 -2.98z"/>
  <path class="fil11" d="M5798.45 4745.68c-102.87,-47.69 -183.93,-122.89 -209.94,-173.42 -48.9,-94.97 -64.11,-91.77 112.43,-139.08 85.42,-22.89 140.26,-63.85 174.33,-100.09 -25.44,-42.72 -42.44,-85.94 -42.44,-85.94l-363.99 -2.98c0,0 -102.32,214.82 -26.04,319.5 49.22,67.56 206.89,150.97 355.66,182.01z"/>
  <path class="fil11" d="M5949.33 4410.5c-32.17,15.54 -64.85,29.76 -97.94,42.65 -10.28,4 -5.51,22.5 4.82,18.47 33.1,-12.89 65.77,-27.11 97.95,-42.65 4.2,-2.03 7.13,-6.51 5.71,-11.92 -1.18,-4.53 -6.31,-8.59 -10.55,-6.55z"/>
  <path class="fil5" d="M5887.38 3537.27c-17.25,-66.02 -573.57,-788.8 -573.57,-788.8l-51.72 -123.07 -918.64 342.56c0,0 66.08,523.71 140.4,788.65l-269.95 761.93c0,0 118.58,332.69 492.32,97.87 0,0 286.87,-734.35 312.41,-878.22 12.13,-68.33 -22.89,-309.26 -63.02,-543.46 -8.64,-50.4 50.81,-79.6 80.01,-39.27 139.52,192.79 364.52,507.72 433.6,627.67l-50.14 611.41c0,0 365.45,91.33 449.7,-136.69 0,0 33.14,-661.65 18.61,-720.59z"/>
  <path class="fil6" d="M5313.81 2748.47l-51.71 -123.07 -918.65 342.56c0,0 18.65,147.88 47.29,326.22 512.34,-134.56 845.08,-440.6 934.57,-530.73 -7.38,-9.62 -11.5,-14.97 -11.5,-14.97z"/>
  <path class="fil6" d="M4414.39 4356.92l18.08 -455.31 -218.58 616.94c0,0 118.58,332.69 492.32,97.87 0,0 17.42,-44.58 44.02,-113.85 -258.58,10.17 -335.84,-145.65 -335.84,-145.65z"/>
  <path class="fil7" d="M5845.26 3544.64c14.19,54.28 -3.51,107.93 -39.55,119.82 -36.04,11.88 -76.77,-22.48 -90.96,-76.76 -14.2,-54.29 3.51,-107.93 39.55,-119.82 36.04,-11.88 76.76,22.49 90.96,76.76z"/>
  <path class="fil6" d="M5598.67 3739.29c6.33,-2.98 10.69,-9.79 8.58,-17.87 -1.79,-6.85 -9.45,-12.83 -15.82,-9.82 -36.25,17.1 -72.5,34.21 -108.74,51.32 -23.43,-97.84 -342.57,-485.02 -459.07,-624 135.35,186.81 364.55,506.89 440.81,636.07 -1.65,3.1 -2.24,6.84 -1.18,10.92 0.78,2.98 2.69,5.74 5.1,7.72l-49.28 600.92c0,0 211.32,52.68 349.61,-22.34 -108.07,10.71 -215.09,-61.55 -215.09,-61.55l-66.78 -518.58c37.29,-17.6 74.57,-35.19 111.86,-52.79z"/>
  <path class="fil14" d="M5408.15 2013.68c-63.08,-82.87 -251.48,-376.31 -386.91,-471.69 -82.8,-58.32 -179.92,24.27 -198.12,46.93 0,0 0.4,66.25 189.94,356.98 88.55,135.82 167.97,251.05 229.34,316.11 63.38,67.19 157.14,66.72 244.32,36.19 155.2,-54.33 283.41,-43.51 497.85,-181.92 69.37,-49.68 60.33,-132.56 -27.63,-167.35 0,0 -377.39,55.38 -548.8,64.73z"/>
  <path class="fil15" d="M5334.62 1910.63c-85.97,-121.83 -213.93,-298.59 -313.38,-368.64 -82.8,-58.32 -179.91,24.27 -198.12,46.93 0,0 0.41,66.25 189.94,356.98 49.75,76.32 96.64,146.14 139.04,204.22 106.96,-70.69 159.61,-177.54 182.51,-239.49z"/>
  <path class="fil15" d="M5403.08 2010.48c-14.29,8.74 -24.51,21.84 -35.29,34.38 -11,12.81 -22.02,25.63 -33.03,38.43 -2.88,3.36 -3.8,8.01 -0.56,11.59 2.68,2.98 8.68,3.96 11.59,0.57 10.59,-12.33 21.19,-24.66 31.78,-36.99 9.99,-11.61 19.66,-25.22 32.91,-33.34 8.95,-5.48 1.62,-20.16 -7.4,-14.65z"/>
  <path class="fil14" d="M6488.31 2083.21c-11.71,-51.55 -173.38,-124.18 -238.98,-195.64 -65.61,-71.46 -292.14,56.99 -292.14,56.99 0,0 -15.53,102.96 10.98,156.86 26.51,53.88 147.61,77.85 182.75,77.85 17.94,0 33.88,-15.13 45.21,-29.97 58.95,22.4 165.01,58.38 182.05,32.32 4.97,-7.6 4.91,-15.2 2.01,-22.32 41.92,4.38 72.63,-1.8 81.17,-21.03 3.06,-6.87 -1.54,-14.71 -10.59,-22.75 23.38,-1.92 42.61,-9.91 37.53,-32.3z"/>
  <path class="fil15" d="M6452.73 2103.11c-22.93,-9.33 -43.32,-26.03 -63.33,-40.31 -21.32,-15.2 -42.62,-30.4 -63.93,-45.61 -8.56,-6.1 -16.71,8.03 -8.23,14.07 21.99,15.7 43.99,31.39 65.98,47.09 20.71,14.77 41.45,30.82 65.17,40.48 9.71,3.94 13.95,-11.83 4.34,-15.72z"/>
  <path class="fil15" d="M6379.79 2146.24c-10.68,-4.75 -20.02,-12.3 -29.75,-18.71 -9.34,-6.16 -18.8,-12.11 -28.39,-17.86 -19.82,-11.89 -40.15,-22.9 -60.9,-33.07 -9.39,-4.6 -17.66,9.46 -8.23,14.08 20.75,10.17 41.08,21.17 60.9,33.07 9.59,5.75 19.06,11.71 28.4,17.85 9.72,6.4 19.06,13.96 29.74,18.72 9.51,4.22 17.82,-9.82 8.23,-14.08z"/>
  <path class="fil15" d="M6202.34 2143.45c-4.14,-15.19 -9.36,-30.38 -16.25,-44.55 -3.64,-7.47 -12.29,-9.71 -19.36,-12.87 -7.47,-3.33 -14.95,-6.66 -22.42,-9.99 -4.02,-1.8 -8.76,-1.17 -11.16,2.92 -2.03,3.47 -1.11,9.35 2.92,11.15 6.73,3 13.46,6 20.18,9 3.37,1.5 6.73,2.99 10.09,4.49 1.45,0.65 3.89,1.26 5.09,2.33 -0.32,-0.3 0.85,1.78 1.04,2.19 5.85,12.77 10.46,26.1 14.14,39.65 2.75,10.11 18.49,5.81 15.72,-4.34z"/>
  <path class="fil3" d="M4697.86 1564.97c0,0 -26.76,184.76 247.53,525.39 0,0 378.48,-170.65 418.09,-287.2 0,0 -393.29,-350.34 -509.17,-400.97 0,0 -87.9,30.13 -156.45,162.79z"/>
  <path class="fil10" d="M4214.18 1433.09c0,0 -212.47,118.27 -298.06,260.73 -53.17,88.5 416.87,1375.23 416.87,1375.23l988.51 -338.98c0,0 -341.49,-1221.85 -448.95,-1316.83 -58.95,-52.11 -396.32,-50.03 -396.32,-50.03 0,0 -73.87,215.94 -262.04,69.87z"/>
  <path class="fil11" d="M4998.07 2840.98c-165.82,-8.61 -352.65,-41.2 -428.99,-138.08 -150.75,-191.26 -374.56,-766.71 -374.56,-766.71 -98.36,-124.28 -187.92,-208.05 -268.44,-257.94 -3.46,5.16 -6.82,10.33 -9.96,15.56 -53.17,88.5 416.87,1375.23 416.87,1375.23l665.09 -228.07z"/>
  <path class="fil5" d="M4421.57 1462.17l-23.07 15.62c3.36,4.97 326.76,490.68 492.1,1400.04l26.63 -9.13c-166.74,-913 -492.27,-1401.54 -495.65,-1406.53z"/>
  <path class="fil5" d="M4092.36 2377.71c308.32,-90.15 658.04,-200.09 1028.04,-324.43 -38.01,-120.64 -77.35,-240.58 -114.12,-343.78 -367.86,125.69 -711.12,250.52 -1009.99,366.02 28.42,94.42 61.69,198.26 96.07,302.19z"/>
  <path class="fil6" d="M3996.29 2075.52c28.42,94.42 61.69,198.26 96.07,302.19 82.74,-24.19 168.56,-49.86 256.86,-76.8 -56.8,-124.32 -105.71,-242.61 -132.6,-309.2 -75.75,28.38 -149.33,56.36 -220.33,83.8z"/>
  <path class="fil3" d="M4203.82 1369.78l188.76 99.19 5.02 160.18 -237.42 -119.15c0,0 -14.07,-98.16 43.64,-140.22z"/>
  <path class="fil3" d="M4420.72 1448.51l44.7 -151.37c0,0 92.23,50.81 113.57,101.71l-38.43 150.28 -119.85 -100.62z"/>
  <polygon class="fil5" points="4420.72,1448.51 4471.29,1490.96 4455,1509.7 4408.86,1533.41 4394.52,1530.78 4392.58,1468.97 "/>
  <polygon class="fil10" points="4966.17,532.03 4960.78,528.7 4956.54,533.4 4950.1,538.14 4951.68,549.25 5005.68,929.78 5029.24,926.43 4975.25,545.89 4973.67,534.8 "/>
  <polygon class="fil11" points="4989.43,815.31 5005.68,929.78 5029.24,926.43 5013.47,815.31 "/>
  <path class="fil5" d="M5053.21 862.9c-2.4,-8.62 -10.81,-14.37 -19.91,-13.08l-52.84 7.5c-9.11,1.29 -15.58,9.15 -15.49,18.1 -17.32,2.51 -29.36,18.56 -26.91,35.91l23.74 167.3c2.46,17.38 18.55,29.47 35.94,27l3.66 -0.51c3.87,3.63 9.24,5.59 14.9,4.79l52.84 -7.5c5.66,-0.8 10.26,-4.18 12.97,-8.75l3.66 -0.52c17.38,-2.46 29.47,-18.55 27.01,-35.94l-23.74 -167.3c-2.46,-17.34 -18.49,-29.41 -35.83,-27z"/>
  <path class="fil6" d="M5094.02 924.95c-21.43,16.77 -63.73,51.38 -74.74,40.78 -9.6,-9.23 -50.81,-20.73 -77.39,-27.41l19.91 140.31c2.46,17.38 18.55,29.47 35.94,27l3.66 -0.51c3.87,3.63 9.24,5.59 14.9,4.79l52.84 -7.5c5.66,-0.8 10.26,-4.18 12.97,-8.75l3.66 -0.52c17.38,-2.46 29.47,-18.55 27.01,-35.94l-18.77 -132.26z"/>
  <path class="fil6" d="M4991.49 1068.83c-3.2,0 -5.99,-2.35 -6.46,-5.61l-25.69 -181.04c-0.5,-3.57 1.98,-6.87 5.54,-7.38 3.57,-0.56 6.87,1.98 7.38,5.55l25.69 181.04c0.5,3.57 -1.98,6.87 -5.54,7.37 -0.31,0.05 -0.62,0.07 -0.92,0.07z"/>
  <path class="fil6" d="M5079.31 1053.15c-3.2,0 -5.99,-2.35 -6.45,-5.61l-25.69 -181.04c-0.5,-3.57 1.98,-6.87 5.54,-7.38 3.55,-0.5 6.87,1.98 7.38,5.55l25.69 181.04c0.5,3.57 -1.98,6.87 -5.54,7.37 -0.31,0.05 -0.62,0.07 -0.92,0.07z"/>
  <path class="fil14" d="M4840.03 1060.46c-40.31,46.08 27.87,220.14 27.87,220.14 23.14,52.11 119.28,86.53 207.99,59.01 88.72,-27.53 193.27,-121.85 211.09,-132.61 17.82,-10.76 13.66,-62.28 -3.19,-75.06 -3.7,-2.8 -18.79,2.17 -40.05,11.63 26.68,-24.74 45.04,-44.95 46.03,-52.17 3.12,-22.7 -35.58,-78.68 -58.22,-73.52 -2.83,0.65 -8.46,2.96 -16.15,6.49 0.01,0 0.01,-0.02 0.01,-0.03 12.01,-34.88 -12.92,-70.22 -37.6,-72.46 -16.63,-1.5 -112.04,41.65 -172.62,70.01 -13.73,-15.33 -32.73,-30 -32.73,-30 0,0 -92.1,22.5 -132.41,68.56z"/>
  <path class="fil15" d="M5240.73 1132.23c-27.16,17.29 -50.69,40.67 -81.12,52.4 -9.86,3.8 -3.27,18.83 6.57,15.03 31.84,-12.27 56.5,-36.6 84.89,-54.68 3.74,-2.39 3.76,-8.38 1.21,-11.54 -3.05,-3.77 -7.79,-3.59 -11.54,-1.21z"/>
  <path class="fil15" d="M5207.29 1014.79c-18.94,20.57 -43.53,35.22 -70.28,43.06 -4.26,1.25 -5.85,7.11 -4.23,10.81 1.96,4.49 6.53,5.47 10.8,4.22 29.7,-8.7 56.07,-25.72 76.98,-48.43 3,-3.26 1.49,-9.06 -1.8,-11.46 -3.92,-2.86 -8.45,-1.47 -11.47,1.8z"/>
  <path class="fil15" d="M4994.18 1020.91c-5.86,3.57 -11.63,7.3 -17.27,11.2 -5.48,3.79 -11.92,7.54 -16.06,12.86 -3.71,4.77 -4.87,11.2 -6.96,16.75 -2.31,6.16 -5.02,12.15 -8.05,17.98 -2.05,3.93 0.83,9.13 4.64,10.63 4.5,1.76 8.58,-0.7 10.63,-4.64 2.86,-5.49 5.43,-11.12 7.65,-16.9 0.97,-2.53 1.87,-5.08 2.72,-7.65 0.74,-2.26 1.32,-4.94 2.63,-6.5 1.7,-2.03 4.39,-3.55 6.51,-5.1 2.36,-1.7 4.74,-3.39 7.14,-5.04 5.48,-3.78 11.07,-7.38 16.76,-10.85 3.78,-2.31 3.73,-8.42 1.21,-11.54 -3.1,-3.81 -7.75,-3.52 -11.54,-1.21z"/>
  <path class="fil14" d="M4591.25 1792.72c-145.13,-38.17 -528.3,-138.82 -657.16,-18.16 -25.57,23.94 -19.95,66.24 10.54,83.48 46.92,26.53 140.7,70.55 324.64,133.56 153.38,52.54 286.91,94.48 375.32,107.97 91.32,13.94 180.22,-36.21 214.84,-121.84 60.6,-149.92 139.91,-359.81 186.41,-659.36 8.4,-93.5 -36.35,-100.83 -183.28,-53.21 0,0 -224.09,413.28 -271.31,527.57z"/>
  <path class="fil15" d="M4269.28 1991.6c115.17,39.45 219.14,72.93 301.23,92.86 7.85,-68.47 16.22,-190.02 -4.54,-298.35 -160.1,-41.67 -509.87,-125.77 -631.87,-11.54 -25.57,23.93 -19.95,66.24 10.53,83.48 46.92,26.53 140.71,70.55 324.65,133.56z"/>
  <path class="fil15" d="M4584.2 1795.98c-7.5,48.96 11.74,95.67 30.78,139.67 4.19,9.7 19.23,3.14 15.02,-6.57 -17.9,-41.37 -36.57,-85.12 -29.51,-131.2 1.61,-10.47 -14.7,-12.33 -16.3,-1.91z"/>
  <path class="fil3" d="M3932.71 1859.31c59.02,51.04 204.57,152.99 511.51,255.67 0,0 144.89,-354.24 97.27,-469.95 0,0 -430.48,-95.24 -553.04,-56.48 0,0 -96.7,68.79 -96.4,184.87 0.08,33.07 15.65,64.26 40.67,85.9z"/>
  <path class="fil20" d="M4063.62 1704.51c-8.16,-0.98 -66.31,10 -44.09,22.11 29.26,0.91 37.76,33.67 60.55,46.27 -12.41,1.47 -24.97,1.68 -37.32,-0.27 -6.55,-1.62 -9.38,8.11 -2.85,10.1 10,3.32 15.89,14.01 22.19,21.72 15.09,18.81 41.79,30.98 65.63,23.35 24.24,-8.99 37.6,-38.51 36.47,-63.21 -5.69,-45.68 -60.9,-62.04 -100.58,-60.07zm46.4 16.87l0 0c29.7,7.94 55.1,38.11 39.16,68.85 -17.96,48.99 -68.59,28.85 -89.93,-5.91 7.34,-0.21 61.75,-0.17 43.33,-14.69 -14.17,-2.27 -23.97,-9.04 -33.11,-19.73 -9.64,-11.41 -18.51,-24.78 -33.12,-30.17 23.82,-7.47 50.08,-6.11 73.67,1.64z"/>
  <path class="fil10" d="M4087.42 1864.81c-8.77,-0.45 -17.68,-1.91 -26.56,-4.44 -58.18,-16.6 -93.16,-73.41 -77.97,-126.62 7.38,-25.86 25.34,-47.01 50.59,-59.54 25.07,-12.43 54.35,-14.86 82.47,-6.85 28.1,8.01 51.68,25.54 66.42,49.34 14.83,23.97 18.93,51.4 11.55,77.27 -12.87,45.09 -57.71,73.37 -106.5,70.83zm1.23 -191.6l0 0c-17.62,-0.91 -35,2.55 -50.58,10.27 -22.6,11.22 -38.67,30.07 -45.25,53.11 -13.62,47.73 18.18,98.8 70.87,113.83 52.71,15.09 106.65,-11.54 120.27,-59.28 6.58,-23.03 2.88,-47.53 -10.4,-68.99 -13.37,-21.6 -34.84,-37.53 -60.46,-44.84 -8.11,-2.32 -16.31,-3.68 -24.46,-4.1z"/>
  <polygon class="fil13" points="5441.98,306.14 5322.95,306.14 5322.95,259.66 5441.98,259.66 "/>
  <polygon class="fil20" points="5096.43,318.82 4878.29,318.82 4878.29,287.97 5096.43,287.97 "/>
  <polygon class="fil20" points="5234.66,336.27 5124.74,336.27 5124.74,287.97 5234.66,287.97 "/>
  <polygon class="fil5" points="4848.31,135.86 4848.31,306.14 5281.28,306.14 5281.28,287.97 5467.79,287.97 5467.79,135.86 "/>
  <path class="fil5" d="M5252.56 296.17c-0.86,7.39 -0.38,15.66 3.89,22.03 3.46,5.16 8.82,8.28 14.95,9.05 12.57,1.56 25.2,-6.58 30.99,-17.45 4.23,-7.95 4.91,-17.01 3.04,-25.73 -0.89,-4.1 -7.17,-2.37 -6.29,1.74 2.61,12.11 -1.65,24.52 -11.84,31.04 -4.29,2.74 -8.82,4.22 -13.69,4.07 -4.13,-0.14 -7.95,-1.7 -10.83,-5.09 -1.56,-1.83 -2.8,-4.75 -3.43,-7.59 -0.87,-3.95 -0.72,-8.07 -0.25,-12.06 0.2,-1.76 -1.65,-3.24 -3.27,-3.26 -1.93,-0.03 -3.06,1.51 -3.26,3.26z"/>
  <polygon class="fil13" points="4643.17,0 4758.73,271.7 5229.94,271.7 5701.13,271.7 5816.69,0 "/>
  <path class="fil10" d="M4651.49 19.55l874.23 11.64c78.17,1.04 136.27,72.69 121.13,149.39l-4.22 21.35 -893.32 47.63 9.41 22.14 471.21 0 471.2 0 115.56 -271.7 -1173.52 0 8.32 19.55z"/>
  <polygon class="fil13" points="5081.76,645.34 4906.61,467.73 5243.89,369.71 5581.17,271.7 5528.48,515.52 "/>
  <polygon class="fil11" points="5577.66,287.93 5581.17,271.7 4906.61,467.73 4918.27,479.55 "/>
  <polygon class="fil10" points="5081.76,645.34 5528.48,515.52 5573.72,306.14 5478.28,489.07 5072.18,635.62 "/>
  <polygon class="fil5" points="5100.74,515.64 5023.09,538.21 4973.62,481 5081.56,449.63 "/>
  <polygon class="fil6" points="5085.92,464.65 5081.56,449.63 4973.62,481 4984.87,494.01 "/>
  <polygon class="fil5" points="5204.74,485.42 5130.96,506.86 5111.78,440.85 5185.55,419.41 "/>
  <polygon class="fil6" points="5189.91,434.42 5185.55,419.41 5111.78,440.85 5116.14,455.87 "/>
  <polygon class="fil5" points="5308.73,455.2 5234.96,476.64 5215.78,410.63 5289.55,389.19 "/>
  <polygon class="fil6" points="5293.91,404.21 5289.55,389.19 5215.78,410.63 5220.14,425.64 "/>
  <polygon class="fil5" points="5442.94,416.19 5520.6,393.63 5531.7,318.82 5423.76,350.19 "/>
  <polygon class="fil6" points="5529.18,335.84 5531.7,318.82 5423.76,350.19 5428.12,365.2 "/>
  <polygon class="fil5" points="5338.95,446.42 5412.72,424.98 5393.54,358.97 5319.77,380.41 "/>
  <polygon class="fil6" points="5397.91,373.98 5393.54,358.97 5319.77,380.41 5324.13,395.43 "/>
 </g>
</svg>
