<?xml version="1.0" encoding="UTF-8"?>
<!DOCTYPE svg PUBLIC "-//W3C//DTD SVG 1.1//EN" "http://www.w3.org/Graphics/SVG/1.1/DTD/svg11.dtd">
<!-- Creator: CorelDRAW -->
<svg xmlns="http://www.w3.org/2000/svg" xml:space="preserve" width="144.972mm" height="85.63mm" version="1.1" style="shape-rendering:geometricPrecision; text-rendering:geometricPrecision; image-rendering:optimizeQuality; fill-rule:evenodd; clip-rule:evenodd"
viewBox="0 0 13914.86 8219"
 xmlns:xlink="http://www.w3.org/1999/xlink"
 xmlns:xodm="http://www.corel.com/coreldraw/odm/2003">
 <defs>
  <style type="text/css">
   <![CDATA[
    .fil9 {fill:#2A1C3F;fill-rule:nonzero}
    .fil17 {fill:#2D2F60;fill-rule:nonzero}
    .fil6 {fill:#363A79;fill-rule:nonzero}
    .fil8 {fill:#3D285B;fill-rule:nonzero}
    .fil0 {fill:#3F9199;fill-rule:nonzero}
    .fil3 {fill:#422A62;fill-rule:nonzero}
    .fil5 {fill:#424890;fill-rule:nonzero}
    .fil12 {fill:#492F6E;fill-rule:nonzero}
    .fil7 {fill:#4F54AA;fill-rule:nonzero}
    .fil1 {fill:#52AEB5;fill-rule:nonzero}
    .fil4 {fill:#72C6CA;fill-rule:nonzero}
    .fil2 {fill:#999999;fill-rule:nonzero}
    .fil11 {fill:#C6A7A7;fill-rule:nonzero}
    .fil15 {fill:#DF8C82;fill-rule:nonzero}
    .fil20 {fill:#EB5660;fill-rule:nonzero}
    .fil10 {fill:#EBD8D8;fill-rule:nonzero}
    .fil14 {fill:#F4B1A7;fill-rule:nonzero}
    .fil16 {fill:#FFC4BC;fill-rule:nonzero}
    .fil13 {fill:white;fill-rule:nonzero}
    .fil18 {fill:white;fill-rule:nonzero;fill-opacity:0.050980}
    .fil19 {fill:white;fill-rule:nonzero;fill-opacity:0.149020}
   ]]>
  </style>
 </defs>
 <g id="Слой_x0020_1">
  <metadata id="CorelCorpID_0Corel-Layer"/>
  <path class="fil0" d="M8485.78 496.13c-299.26,0 -541.86,242.6 -541.86,541.86 0,299.26 242.6,541.86 541.86,541.86 299.26,0 541.86,-242.6 541.86,-541.86 0,-299.26 -242.6,-541.86 -541.86,-541.86z"/>
  <polygon class="fil0" points="10881.96,3276.69 10881.96,4202.03 11807.18,4202.03 11807.18,3276.69 "/>
  <polygon class="fil0" points="1395.15,3076.14 1395.15,4001.48 2320.36,4001.48 2320.36,3076.14 "/>
  <polygon class="fil0" points="11987.57,2441.81 11987.57,3099.47 12645.14,3099.47 12645.14,2441.81 "/>
  <path class="fil1" d="M13299.87 5632.98c-1763.62,-357.75 -4110.92,-776.63 -6687.8,-776.63 -2253.57,0 -4331.51,367.57 -5997.08,648.72l0 2259.82 12684.88 0 0 -2131.91z"/>
  <path class="fil2" d="M7171.79 7954.82c-1271.36,0 -2353.33,50.84 -2758.16,121.89 -29.75,5.22 -51.31,31.41 -51.31,61.88 0,30.49 21.56,56.66 51.33,61.89 36.14,6.33 77.66,12.53 124.28,18.52l5267.72 0c188.7,-24.28 294.7,-51.57 294.7,-80.41 0,-101.49 -1311.16,-183.77 -2928.56,-183.77z"/>
  <polygon class="fil3" points="13914.86,7764.89 -0,7764.89 -0,7875.33 13914.86,7875.33 "/>
  <polygon class="fil1" points="11019.29,3278.2 11019.29,4061.66 11802.59,4061.66 11802.59,3278.2 "/>
  <polygon class="fil4" points="11019.29,3760.32 11019.29,3939.53 11680.62,3278.2 11501.4,3278.2 "/>
  <polygon class="fil4" points="11341.66,4061.66 11802.59,3600.74 11802.59,3421.52 11162.45,4061.66 "/>
  <path class="fil5" d="M10948.33 3207.26l0 925.34 925.22 0 0 -925.34 -925.22 0zm793.1 793.22l0 0 -660.98 0 0 -661.1 660.98 0 0 661.1z"/>
  <polygon class="fil6" points="11014.35,4066.39 11873.54,4107 11873.54,4132.6 10948.33,4132.6 10948.33,3207.26 10990.67,3207.26 "/>
  <path class="fil7" d="M11819.87 3253.84c-15.41,0 -27.91,32.37 -27.91,72.31 0,39.94 12.5,72.32 27.91,72.32 15.41,0 27.91,-32.38 27.91,-72.32 0,-39.94 -12.5,-72.31 -27.91,-72.31z"/>
  <path class="fil7" d="M11824.09 3439.08c-9.34,0 -16.91,22.53 -16.91,50.32 0,27.8 7.57,50.33 16.91,50.33 9.35,0 16.92,-22.54 16.92,-50.33 0,-27.8 -7.57,-50.32 -16.92,-50.32z"/>
  <polygon class="fil1" points="1545.27,3016.59 1545.27,3800.05 2328.58,3800.05 2328.58,3016.59 "/>
  <polygon class="fil4" points="1545.27,3498.7 1545.27,3677.91 2206.6,3016.59 2027.39,3016.59 "/>
  <polygon class="fil4" points="1867.65,3800.05 2328.58,3339.13 2328.58,3159.91 1688.43,3800.05 "/>
  <path class="fil5" d="M1474.31 2945.64l0 925.35 925.22 0 0 -925.35 -925.22 0zm793.11 793.24l0 0 -660.99 0 0 -661.12 660.99 0 0 661.12z"/>
  <polygon class="fil6" points="1540.34,3804.78 2399.53,3845.38 2399.53,3870.99 1474.31,3870.99 1474.31,2945.64 1516.65,2945.64 "/>
  <path class="fil7" d="M2345.86 2992.22c-15.41,0 -27.91,32.37 -27.91,72.32 0,39.94 12.5,72.31 27.91,72.31 15.41,0 27.91,-32.37 27.91,-72.31 0,-39.95 -12.5,-72.32 -27.91,-72.32z"/>
  <path class="fil7" d="M2350.09 3177.46c-9.35,0 -16.92,22.53 -16.92,50.32 0,27.8 7.57,50.33 16.92,50.33 9.34,0 16.91,-22.54 16.91,-50.33 0,-27.8 -7.57,-50.32 -16.91,-50.32z"/>
  <polygon class="fil1" points="12090.76,2446.08 12090.76,3002.92 12647.47,3002.92 12647.47,2446.08 "/>
  <polygon class="fil0" points="12085.17,2884.01 12526.29,2442.89 12391.13,2442.89 12085.17,2748.85 "/>
  <polygon class="fil0" points="12304.7,2999.72 12641.88,2662.54 12641.88,2527.38 12169.54,2999.72 "/>
  <path class="fil5" d="M12034.74 2392.48l0 657.66 657.57 0 0 -657.66 -657.57 0zm563.67 563.76l0 0 -469.77 0 0 -469.87 469.77 0 0 469.87z"/>
  <polygon class="fil6" points="12081.66,3003.08 12692.3,3031.93 12692.3,3050.14 12034.74,3050.14 12034.74,2392.48 12064.83,2392.48 "/>
  <path class="fil7" d="M12654.16 2425.57c-10.96,0 -19.84,23.02 -19.84,51.4 0,28.39 8.88,51.4 19.84,51.4 10.95,0 19.84,-23.01 19.84,-51.4 0,-28.38 -8.89,-51.4 -19.84,-51.4z"/>
  <path class="fil7" d="M12657.17 2557.23c-6.64,0 -12.03,16.01 -12.03,35.76 0,19.75 5.38,35.77 12.03,35.77 6.63,0 12.03,-16.02 12.03,-35.77 0,-19.75 -5.39,-35.76 -12.03,-35.76z"/>
  <polygon class="fil5" points="4891.76,7764.89 2945.13,7764.89 2945.13,4909.45 4891.76,4909.45 "/>
  <path class="fil7" d="M4686.99 5358.55c0,67.38 -22.76,121.99 -50.83,121.99 -28.07,0 -50.83,-54.61 -50.83,-121.99 0,-67.37 22.76,-121.98 50.83,-121.98 28.07,0 50.83,54.61 50.83,121.98z"/>
  <path class="fil7" d="M4676.49 5604.7c0,36.83 -18.05,66.69 -40.33,66.69 -22.28,0 -40.33,-29.86 -40.33,-66.69 0,-36.83 18.05,-66.69 40.33,-66.69 22.28,0 40.33,29.86 40.33,66.69z"/>
  <path class="fil7" d="M4701.92 6516.99c0,67.38 -22.76,121.99 -50.83,121.99 -28.07,0 -50.83,-54.61 -50.83,-121.99 0,-67.37 22.76,-121.98 50.83,-121.98 28.07,0 50.83,54.61 50.83,121.98z"/>
  <path class="fil7" d="M4691.41 6763.13c0,36.83 -18.05,66.69 -40.33,66.69 -22.28,0 -40.33,-29.86 -40.33,-66.69 0,-36.83 18.05,-66.69 40.33,-66.69 22.28,0 40.33,29.86 40.33,66.69z"/>
  <path class="fil7" d="M4782.58 7343.83c0,67.37 -22.76,121.98 -50.83,121.98 -28.07,0 -50.82,-54.61 -50.82,-121.98 0,-67.37 22.76,-121.98 50.82,-121.98 28.07,0 50.83,54.61 50.83,121.98z"/>
  <path class="fil6" d="M3359.71 7617.42c-205.01,0 -371.2,-166.19 -371.2,-371.2l0 -2336.77 -43.37 0 0 2855.44 1946.63 0 0 -147.47 -1532.05 0z"/>
  <path class="fil6" d="M4842.61 5986.93l-1848.32 0c-27.14,0 -49.15,-22.01 -49.15,-49.16 0,-27.14 22.01,-49.15 49.15,-49.15l1848.32 0c27.14,0 49.15,22.01 49.15,49.15 0,27.15 -22.01,49.16 -49.15,49.16z"/>
  <path class="fil6" d="M4730.35 5802.31l-1623.81 0c-43.63,0 -79.14,-35.5 -79.14,-79.14l0 -654.4c0,-43.63 35.5,-79.15 79.14,-79.15l1623.81 0c43.64,0 79.14,35.51 79.14,79.15l0 654.4c0,43.63 -35.49,79.14 -79.14,79.14zm-1623.81 -763.37l0 0c-16.44,0 -29.82,13.37 -29.82,29.83l0 654.4c0,16.45 13.38,29.83 29.82,29.83l1623.81 0c16.45,0 29.83,-13.38 29.83,-29.83l0 -654.4c0,-16.46 -13.38,-29.83 -29.83,-29.83l-1623.81 0z"/>
  <path class="fil6" d="M4600.26 5165.19l-1363.62 0c-9.08,0 -16.44,-7.35 -16.44,-16.44 0,-9.09 7.36,-16.44 16.44,-16.44l1363.62 0c9.07,0 16.43,7.35 16.43,16.44 0,9.09 -7.36,16.44 -16.43,16.44z"/>
  <path class="fil6" d="M3918.45 5681.28c-64.22,0 -116.47,-52.25 -116.47,-116.47 0,-64.2 52.24,-116.46 116.47,-116.46 64.22,0 116.47,52.25 116.47,116.46 0,64.21 -52.24,116.47 -116.47,116.47zm0 -183.61l0 0c-37.03,0 -67.15,30.12 -67.15,67.15 0,37.04 30.12,67.15 67.15,67.15 37.03,0 67.15,-30.11 67.15,-67.15 0,-37.03 -30.12,-67.15 -67.15,-67.15z"/>
  <path class="fil6" d="M4842.61 7144.67l-1848.32 0c-27.14,0 -49.15,-22 -49.15,-49.15 0,-27.14 22.01,-49.15 49.15,-49.15l1848.32 0c27.14,0 49.15,22.01 49.15,49.15 0,27.15 -22.01,49.15 -49.15,49.15z"/>
  <path class="fil6" d="M4730.35 6960.05l-1623.81 0c-43.63,0 -79.14,-35.5 -79.14,-79.14l0 -654.41c0,-43.63 35.5,-79.14 79.14,-79.14l1623.81 0c43.64,0 79.14,35.5 79.14,79.14l0 654.41c0,43.63 -35.49,79.14 -79.14,79.14zm-1623.81 -763.37l0 0c-16.44,0 -29.82,13.37 -29.82,29.82l0 654.41c0,16.45 13.38,29.82 29.82,29.82l1623.81 0c16.45,0 29.83,-13.37 29.83,-29.82l0 -654.41c0,-16.45 -13.38,-29.82 -29.83,-29.82l-1623.81 0z"/>
  <path class="fil6" d="M4600.26 6322.92l-1363.62 0c-9.08,0 -16.44,-7.35 -16.44,-16.43 0,-9.09 7.36,-16.44 16.44,-16.44l1363.62 0c9.07,0 16.43,7.35 16.43,16.44 0,9.08 -7.36,16.43 -16.43,16.43z"/>
  <path class="fil6" d="M3918.45 6839.02c-64.22,0 -116.47,-52.25 -116.47,-116.47 0,-64.21 52.24,-116.47 116.47,-116.47 64.22,0 116.47,52.25 116.47,116.47 0,64.21 -52.24,116.47 -116.47,116.47zm0 -183.61l0 0c-37.03,0 -67.15,30.12 -67.15,67.15 0,37.03 30.12,67.15 67.15,67.15 37.03,0 67.15,-30.12 67.15,-67.15 0,-37.03 -30.12,-67.15 -67.15,-67.15z"/>
  <path class="fil6" d="M3918.45 7463.9c-64.22,0 -116.47,-52.24 -116.47,-116.46 0,-64.21 52.24,-116.47 116.47,-116.47 64.22,0 116.47,52.25 116.47,116.47 0,64.21 -52.24,116.46 -116.47,116.46zm0 -183.61l0 0c-37.03,0 -67.15,30.11 -67.15,67.15 0,37.03 30.12,67.15 67.15,67.15 37.03,0 67.15,-30.12 67.15,-67.15 0,-37.04 -30.12,-67.15 -67.15,-67.15z"/>
  <path class="fil5" d="M10341.48 7159.36l-470.48 0 -470.48 0c0,0 -16.21,309.68 105.51,501.51 41.21,64.96 113.1,104.02 190.04,104.02l174.93 0 174.94 0c76.93,0 148.81,-39.06 190.04,-104.02 121.73,-191.83 105.5,-501.51 105.5,-501.51z"/>
  <path class="fil7" d="M9552.73 7339.5c6.61,52.85 -10.52,98.51 -38.26,101.97 -27.74,3.47 -55.58,-36.56 -62.2,-89.42 -6.6,-52.85 10.52,-98.51 38.26,-101.97 27.74,-3.47 55.58,36.56 62.2,89.42z"/>
  <path class="fil7" d="M9552.02 7538.98c3.28,26.26 -5.23,48.95 -19.01,50.68 -13.79,1.73 -27.63,-18.17 -30.92,-44.44 -3.28,-26.26 5.23,-48.95 19.01,-50.68 13.79,-1.72 27.63,18.17 30.92,44.44z"/>
  <path class="fil6" d="M10341.48 7159.36l-115.81 0c-2.65,55.65 -9.62,129.04 -26.74,204.12 -40.54,177.76 -199.22,303.54 -381.54,303.54l-61.43 0 -174.93 0c-27.8,0 -54.89,-5.16 -80.16,-14.73 1.73,2.86 3.38,5.78 5.17,8.59 41.21,64.96 113.1,104.02 190.04,104.02l174.93 0 174.94 0c76.93,0 148.81,-39.06 190.04,-104.02 121.73,-191.83 105.5,-501.51 105.5,-501.51z"/>
  <path class="fil6" d="M10340.11 7159.37c0,34.61 -210.03,62.67 -469.12,62.67 -259.09,0 -469.12,-28.06 -469.12,-62.67 0,-34.62 210.03,-62.68 469.12,-62.68 259.09,0 469.12,28.06 469.12,62.68z"/>
  <path class="fil7" d="M10222.43 7159.37c0,16.73 -157.34,30.29 -351.43,30.29 -194.09,0 -351.43,-13.56 -351.43,-30.29 0,-16.74 157.34,-30.3 351.43,-30.3 194.09,0 351.43,13.56 351.43,30.3z"/>
  <path class="fil5" d="M10093.21 7159.36c0,11.05 -101.79,19.99 -227.35,19.99 -125.57,0 -227.36,-8.95 -227.36,-19.99 0,-11.04 101.79,-19.99 227.36,-19.99 125.56,0 227.35,8.96 227.35,19.99z"/>
  <path class="fil7" d="M10360.46 6281.94c-514.66,148.02 -523.34,876.87 -523.34,876.87l45.44 0c550.1,-222.04 477.9,-876.87 477.9,-876.87z"/>
  <path class="fil5" d="M9927.55 6715.83c-87.78,222.87 -90.43,442.98 -90.43,442.98l45.44 0c42.31,-17.08 80.9,-36.73 116.16,-58.42 -42.29,-77.16 -62.27,-261.38 -71.17,-384.55z"/>
  <path class="fil5" d="M10360.46 6281.94c-19.9,5.72 -38.96,12.42 -57.38,19.8 -6.85,193.96 -70.95,583.89 -458.1,753.58 -7.38,63.35 -7.86,103.49 -7.86,103.49l45.44 0c550.1,-222.04 477.9,-876.87 477.9,-876.87z"/>
  <path class="fil6" d="M10352.92 6289.01c-81.85,104.53 -164.01,209.37 -233.3,322.83 -68.01,111.37 -118.39,231.61 -174.84,348.93 -31.67,65.82 -65.73,130.49 -105.93,191.54 -2.92,4.43 4.19,8.55 7.09,4.15 69.88,-106.12 120.34,-222.82 174.12,-337.49 56.04,-119.49 120.73,-232.26 197.95,-339.4 45.26,-62.81 92.99,-123.79 140.71,-184.73 3.23,-4.13 -2.54,-9.98 -5.81,-5.82z"/>
  <path class="fil7" d="M9508.9 6477.64c0,0 -77.17,592.11 328.22,687.45l45.44 -6.28c0,0 88.57,-477.95 -373.66,-681.17z"/>
  <path class="fil5" d="M9573.6 6509.83c-20.28,-11.34 -41.79,-22.11 -64.7,-32.18 0,0 -77.17,592.11 328.22,687.45l45.44 -6.28c0,0 5.19,-28.1 6.5,-73.5 -279.48,-79.14 -316.22,-404.03 -315.46,-575.48z"/>
  <path class="fil6" d="M9874.96 7152.2c-88.86,-237.54 -197.64,-478.6 -362.03,-674.34 -3.41,-4.06 -9.2,1.78 -5.82,5.81 163.39,194.55 271.62,434.68 359.92,670.72 1.84,4.9 9.79,2.77 7.93,-2.19z"/>
  <path class="fil5" d="M4433.42 4422.88c-28.79,-31.83 -30.56,-79.69 -3.63,-113.12l21.87 -27.15c12.4,-15.38 1.45,-38.26 -18.3,-38.26l-340.79 0c-19.75,0 -30.7,22.88 -18.31,38.26l21.88 27.15c26.92,33.42 25.17,81.29 -3.63,113.12 -88.99,98.38 -232.44,317.24 52.93,486.57l117.51 0 117.51 0c285.39,-169.32 141.93,-388.18 52.94,-486.57z"/>
  <path class="fil7" d="M4505.06 4712.53c-6.6,37.75 -24.51,66.14 -40.01,63.43 -15.49,-2.71 -22.69,-35.5 -16.1,-73.24 6.6,-37.74 24.51,-66.13 40.01,-63.43 15.49,2.72 22.69,35.5 16.1,73.23z"/>
  <path class="fil7" d="M4496.69 4563.6c5.34,21.16 0.85,40.54 -10,43.29 -10.87,2.74 -24,-12.2 -29.34,-33.36 -5.34,-21.16 -0.85,-40.54 10,-43.28 10.87,-2.75 24.01,12.19 29.34,33.35z"/>
  <path class="fil6" d="M4349.01 4862.24l-23.83 0c-88.18,0 -173.15,-40.83 -222.68,-113.8 -97.5,-143.64 6.11,-295.43 76.07,-372.77 28.79,-31.84 30.55,-79.7 3.62,-113.12l-14.66 -18.2 -74.94 0c-19.75,0 -30.7,22.88 -18.31,38.26l21.88 27.15c26.92,33.42 25.17,81.29 -3.63,113.12 -88.99,98.38 -232.44,317.24 52.93,486.57l117.51 0 117.51 0c25.91,-15.37 48.18,-31.16 67.38,-47.21l-98.85 0z"/>
  <path class="fil1" d="M9018.72 943.63c0,257.12 -208.43,465.55 -465.55,465.55 -257.12,0 -465.55,-208.43 -465.55,-465.55 0,-257.11 208.43,-465.55 465.55,-465.55 257.12,0 465.55,208.44 465.55,465.55z"/>
  <path class="fil4" d="M8153.54 1182.44l638.45 -638.45c-36.85,-22.07 -76.98,-39.17 -119.51,-50.41l-569.36 569.35c11.25,42.53 28.35,82.67 50.42,119.51z"/>
  <path class="fil4" d="M8373.9 1373.35l608.99 -609c-16.13,-38.63 -37.39,-74.57 -62.81,-107.1l-653.28 653.28c32.53,25.43 68.46,46.69 107.1,62.82z"/>
  <path class="fil6" d="M8553.16 962.19c-10.26,0 -18.56,-8.31 -18.56,-18.56l0 -278.42c0,-10.25 8.3,-18.56 18.56,-18.56 10.26,0 18.56,8.31 18.56,18.56l0 278.42c0,10.25 -8.3,18.56 -18.56,18.56z"/>
  <path class="fil6" d="M8754.62 962.19l-201.46 0c-10.26,0 -18.56,-8.31 -18.56,-18.56 0,-10.25 8.3,-18.56 18.56,-18.56l201.46 0c10.27,0 18.57,8.31 18.57,18.56 0,10.25 -8.3,18.56 -18.57,18.56z"/>
  <path class="fil5" d="M8608.13 943.63c0,30.29 -24.55,54.85 -54.84,54.85 -30.3,0 -54.85,-24.56 -54.85,-54.85 0,-30.29 24.55,-54.84 54.85,-54.84 30.29,0 54.84,24.55 54.84,54.84z"/>
  <path class="fil5" d="M8553.17 401.76c-299.26,0 -541.87,242.6 -541.87,541.86 0,299.26 242.61,541.86 541.87,541.86 299.26,0 541.86,-242.6 541.86,-541.86 0,-299.26 -242.6,-541.86 -541.86,-541.86zm0 944.32l0 0c-222.27,0 -402.46,-180.19 -402.46,-402.46 0,-222.27 180.19,-402.45 402.46,-402.45 222.27,0 402.46,180.18 402.46,402.45 0,222.27 -180.19,402.46 -402.46,402.46z"/>
  <path class="fil6" d="M8150.72 943.63c0,-222.27 180.19,-402.45 402.46,-402.45 119.69,0 227.11,52.3 300.83,135.23 -72.27,-107.31 -194.89,-177.89 -334.01,-177.89 -222.27,0 -402.46,180.18 -402.46,402.45 0,102.58 38.44,196.14 101.62,267.22 -43.2,-64.14 -68.44,-141.39 -68.44,-224.55z"/>
  <path class="fil6" d="M8963.97 590.49c61.61,87.94 97.88,194.94 97.88,310.48 0,299.26 -242.6,541.87 -541.86,541.87 -164.3,0 -311.43,-73.23 -410.8,-188.72 97.99,139.86 260.25,231.38 443.98,231.38 299.26,0 541.86,-242.6 541.86,-541.86 0,-134.95 -49.45,-258.29 -131.06,-353.14z"/>
  <path class="fil7" d="M8155.55 683.01c-20.49,30.36 -47.27,48.1 -59.83,39.62 -12.55,-8.48 -6.11,-39.95 14.37,-70.31 20.49,-30.36 47.28,-48.1 59.84,-39.62 12.54,8.48 6.11,39.95 -14.38,70.31z"/>
  <path class="fil7" d="M8230.27 577.24c-14.45,12.74 -31.49,17.04 -38.06,9.59 -6.56,-7.45 -0.16,-23.81 14.29,-36.55 14.45,-12.75 31.49,-17.04 38.06,-9.59 6.57,7.44 0.16,23.8 -14.29,36.55z"/>
  <polygon class="fil8" points="6614.52,3892.68 8428.07,3892.68 8345.97,3619.74 6532.4,3619.74 "/>
  <polygon class="fil9" points="8397.25,3790.22 8428.07,3892.68 6614.52,3892.68 6583.7,3790.22 "/>
  <polygon class="fil8" points="6886.9,4846.32 8700.46,4846.32 8618.36,4573.38 6804.8,4573.38 "/>
  <polygon class="fil9" points="8669.64,4743.87 8700.46,4846.32 6886.9,4846.32 6856.08,4743.87 "/>
  <polygon class="fil8" points="7159.28,5799.97 8972.85,5799.97 8890.75,5527.04 7077.18,5527.04 "/>
  <polygon class="fil9" points="8942.03,5697.52 8972.85,5799.97 7159.28,5799.97 7128.47,5697.52 "/>
  <polygon class="fil8" points="7431.68,6753.62 9245.24,6753.62 9163.14,6480.69 7349.58,6480.69 "/>
  <polygon class="fil9" points="9214.43,6651.17 9245.24,6753.62 7431.68,6753.62 7400.86,6651.17 "/>
  <polygon class="fil8" points="7704.07,7707.28 9517.64,7707.28 9435.53,7434.34 7621.97,7434.34 "/>
  <polygon class="fil9" points="9486.82,7604.83 9517.64,7707.28 7704.07,7707.28 7673.25,7604.83 "/>
  <polygon class="fil10" points="9537.1,8112.54 7990.02,2942 8164.64,2942 9711.7,8112.54 "/>
  <polygon class="fil11" points="8044.76,2942 9591.84,8112.54 9537.1,8112.54 7990.02,2942 "/>
  <polygon class="fil11" points="8067.46,3200.8 7990.02,2942 8164.64,2942 8242.07,3200.8 "/>
  <polygon class="fil10" points="7758.2,8112.54 6211.13,2942 6385.73,2942 7932.8,8112.54 "/>
  <polygon class="fil11" points="6265.86,2942 7812.93,8112.54 7758.2,8112.54 6211.13,2942 "/>
  <polygon class="fil11" points="6288.57,3200.8 6211.13,2942 6385.73,2942 6463.17,3200.8 "/>
  <polygon class="fil12" points="8112.9,3806.8 6017.69,3806.8 6112.55,3533.87 8207.76,3533.87 "/>
  <polygon class="fil8" points="6053.3,3704.36 6017.69,3806.8 8112.9,3806.8 8148.51,3704.36 "/>
  <polygon class="fil12" points="7798.21,4760.45 5703.01,4760.45 5797.86,4487.52 7893.06,4487.52 "/>
  <polygon class="fil8" points="5738.61,4658 5703.01,4760.45 7798.21,4760.45 7833.81,4658 "/>
  <polygon class="fil12" points="7483.51,5714.1 5388.31,5714.1 5483.17,5441.17 7578.37,5441.17 "/>
  <polygon class="fil8" points="5423.91,5611.66 5388.31,5714.1 7483.51,5714.1 7519.12,5611.66 "/>
  <polygon class="fil12" points="7168.82,6667.76 5073.61,6667.76 5168.47,6394.82 7263.68,6394.82 "/>
  <path class="fil8" d="M5151.76 6442.89c147.48,58.79 347.59,94.98 568.18,94.98 275.69,0 519.44,-56.49 668.27,-143.05l-1219.74 0 -16.71 48.07z"/>
  <polygon class="fil8" points="5109.22,6565.31 5073.61,6667.76 7168.82,6667.76 7204.42,6565.31 "/>
  <polygon class="fil12" points="6854.13,7621.41 4758.92,7621.41 4853.77,7348.48 6948.99,7348.48 "/>
  <polygon class="fil8" points="4794.52,7518.96 4758.92,7621.41 6854.13,7621.41 6889.74,7518.96 "/>
  <polygon class="fil13" points="4706.8,8112.54 6494.14,2942 6292.43,2942 4505.08,8112.54 "/>
  <path class="fil11" d="M5270.38 6482.16l211.26 -611.13c-77.63,9.77 -150.38,24.17 -216.39,42.44l-173.78 502.72c51.49,25.45 111.78,47.68 178.91,65.97z"/>
  <polygon class="fil10" points="6430.91,2942 4643.57,8112.54 4706.8,8112.54 6494.14,2942 "/>
  <polygon class="fil10" points="6404.68,3200.8 6494.14,2942 6292.43,2942 6202.96,3200.8 "/>
  <polygon class="fil13" points="6761.97,8112.54 8549.32,2942 8347.59,2942 6560.26,8112.54 "/>
  <polygon class="fil10" points="8486.08,2942 6698.74,8112.54 6761.97,8112.54 8549.32,2942 "/>
  <path class="fil11" d="M7375.77 5753.35l-140.06 405.15c10.13,0.2 20.3,0.31 30.56,0.31 60.89,0 119.49,-3.49 174.48,-9.9l127.23 -368.06c-57.89,-13.13 -122.76,-22.61 -192.22,-27.5z"/>
  <polygon class="fil10" points="8459.85,3200.8 8549.32,2942 8347.59,2942 8258.12,3200.8 "/>
  <polygon class="fil12" points="8576.75,3032.97 6124.14,3032.97 6124.14,2666.86 8576.75,2666.86 "/>
  <path class="fil8" d="M6782.45 2666.86c-209.38,83.49 -334.62,174.81 -317.76,247.89 29.63,128.44 486.6,151.88 1020.65,52.35 391.14,-72.89 714.88,-191.51 848.66,-300.24l-1551.55 0z"/>
  <polygon class="fil8" points="6124.14,2927.93 6124.14,3032.97 8576.75,3032.97 8576.75,2927.93 "/>
  <polygon class="fil14" points="5670.43,1899.65 5334.79,1954.5 5256.09,1472.92 5591.73,1418.07 "/>
  <path class="fil3" d="M5297.47 1726.12c106.73,-4.81 227.5,-67.14 323.37,-129.96l-29.1 -178.1 -335.64 54.85 41.38 253.2z"/>
  <path class="fil6" d="M5480.05 585c-0.31,-7.62 -1.4,-16.33 -3.66,-26.56 -30.69,-138.92 -216.94,-113.99 -216.94,-113.99 0,0 -94.27,3.73 -65.7,91.71 28.56,87.97 188.62,224.42 188.62,224.42 0,0 94.05,16.83 119.77,-74.66 13.34,-47.46 -3.15,-80.26 -22.09,-100.93z"/>
  <path class="fil15" d="M5457.19 827.76c97.49,-106.65 255.43,-23.47 268.46,111.76 13.02,135.22 -153,183.47 -153,183.47l-91.07 -63.93c0,0 -121.89,-124.64 -24.4,-231.3z"/>
  <path class="fil14" d="M4639.91 1059.36l33.93 67.72c88.67,176.96 206.09,338.42 350.04,474.28 52.73,49.76 103.9,81.57 129.35,95.45 99.78,54.45 518.11,-124.08 565.15,-405.42 47.03,-281.34 -403.95,-739.89 -403.95,-739.89 0,0 -674.51,507.86 -674.51,507.86z"/>
  <path class="fil16" d="M5173.45 1408.74c11.01,20.1 -9.4,52.62 -45.58,72.62 -36.19,20 -74.43,19.91 -85.43,-0.19 -11.01,-20.11 9.41,-52.63 45.58,-72.62 36.19,-20 74.43,-19.92 85.43,0.19z"/>
  <path class="fil16" d="M5650.12 1120.11c7.67,14.01 28.64,18.08 52.85,12.64 -7.12,-23.77 -16.06,-47.93 -26.4,-72.19 -23.63,19.27 -35.29,43.37 -26.44,59.55z"/>
  <path class="fil15" d="M4673.84 1127.08c40.99,81.83 88.42,160.14 141.5,234.34 8.76,-4.36 17.09,-8.94 24.66,-13.88 90.76,-59.37 86.88,-197.77 68.04,-302.51 98.36,-68.73 176.82,-166.71 226.07,-238.17 10.16,-0.66 20.23,-1.86 30.11,-3.81 92.4,-18.27 163.18,-108.9 208.76,-188.15 -35.32,-39.76 -58.56,-63.4 -58.56,-63.4 0,0 -674.51,507.86 -674.51,507.86l33.93 67.72z"/>
  <path class="fil5" d="M5183.14 29.56c-111.46,-41.08 -381.23,141.42 -448.82,342.82 -5.47,16.34 -9.35,31.97 -12.55,47.28 -37.86,-13.64 -84.62,-14.12 -141.12,12.72 -187.51,89.08 -275.05,61.05 -379.15,394.99 -104.1,333.92 560.99,593.37 560.99,593.37 0,0 44.25,34.25 97.85,-31.3 42.55,-52.03 -45.36,-253.15 -83.46,-333.97 80.72,-44.85 199.49,-130.83 265.96,-272.94 48.86,5.67 212.23,-63.04 273.29,-165.89 108.59,-182.91 35,-305.73 35,-305.73 0,0 -53.52,-52.16 -103.35,-28.99 5.26,-105.41 -2.53,-229.47 -64.64,-252.36z"/>
  <path class="fil6" d="M5042.85 782.53c48.86,5.67 212.23,-63.04 273.29,-165.89 108.59,-182.91 35,-305.73 35,-305.73 0,0 -18.15,-17.58 -43.1,-27.79 15.71,50.11 -4.2,134.16 -104.89,252.08 -131.45,153.92 -222.76,39.82 -222.76,39.82 0,0 12.13,134.19 -94.09,209.94 -106.21,75.77 -139.98,14.93 -139.98,14.93 0,0 -105.24,411.15 -213.06,386.22 -78.65,-18.18 -209.8,-76.61 -275.08,-106.93 151.42,203.86 504.3,341.55 504.3,341.55 0,0 44.25,34.25 97.85,-31.3 42.55,-52.03 -45.36,-253.15 -83.46,-333.97 80.72,-44.85 199.49,-130.83 265.96,-272.94z"/>
  <path class="fil7" d="M4426.17 611.86c36.04,15.71 40.25,85.77 9.41,156.48 -30.84,70.71 -85.05,115.28 -121.08,99.57 -36.03,-15.71 -40.25,-85.78 -9.41,-156.49 30.84,-70.7 85.05,-115.28 121.08,-99.56z"/>
  <path class="fil7" d="M4859.76 316.17c20.87,9.11 23.31,49.7 5.44,90.66 -17.86,40.97 -49.28,66.79 -70.15,57.7 -20.87,-9.11 -23.31,-49.7 -5.45,-90.67 17.87,-40.97 49.29,-66.79 70.16,-57.69z"/>
  <path class="fil14" d="M4691.91 1399.25c-108.91,123.56 -3.65,292.94 146.33,291.46 149.96,-1.48 188.63,-195.84 188.63,-195.84l-78.27 -95.73c0,0 -147.78,-123.44 -256.69,0.12z"/>
  <path class="fil15" d="M4912.12 1513.57c0,0 -37.29,-58.95 -68.99,-65.25 -31.68,-6.31 -107.51,-3.89 -91.07,70.31 16.45,74.2 126.78,133.95 160.06,-5.06z"/>
  <path class="fil17" d="M4896.65 1569.88c-0.09,0.23 -0.17,0.44 -0.26,0.66 -7.69,18.52 -28.7,31.54 -53.51,33.16 -31.51,2.05 -61.12,-13.85 -81.24,-43.64 -17.93,-26.56 -24.25,-50.65 -18.79,-71.62 6.53,-24.64 27.29,-35.19 28.17,-35.61 6.34,-3.12 14.32,-0.63 17.83,5.53 3.5,6.14 1.23,13.61 -5.03,16.77 -0.66,0.34 -12.15,6.52 -15.58,20.6 -3.46,13.92 1.7,31.19 15.31,51.35 14.53,21.51 35.15,33.05 56.56,31.66 14.93,-0.98 27.71,-8.27 31.83,-18.15 2.62,-6.34 10.23,-9.25 16.99,-6.51 6.52,2.66 9.86,9.63 7.72,15.81z"/>
  <path class="fil13" d="M5221.54 1185.68c-2.55,-48.78 -35.99,-92.5 -85.74,-105.75 -61.76,-16.46 -125.16,20.26 -141.62,82.02 -16.33,61.28 19.72,124.11 80.61,141.16 39.55,-44.4 92.21,-87.11 146.76,-117.43z"/>
  <path class="fil17" d="M5135.8 1079.93c-6.98,-1.86 -13.98,-2.96 -20.92,-3.49 -23.83,9.88 -42.48,31.04 -48,58.22 -8.82,43.45 19.25,85.84 62.72,94.66 0.94,0.19 1.88,0.27 2.83,0.43 25.79,-25.52 54.68,-49.17 84.62,-69.24 -10.72,-38.02 -40.3,-69.67 -81.24,-80.58z"/>
  <path class="fil17" d="M5204.52 1118.32c-0.73,2.1 -1.98,4.06 -3.74,5.66 -5.61,5.12 -14.33,4.69 -19.45,-0.93 -13.14,-14.45 -30.11,-24.77 -49.08,-29.82 -26.33,-7.02 -53.8,-3.37 -77.35,10.29 -23.57,13.65 -40.4,35.55 -47.43,61.97 -8.31,31.18 -1.64,63.67 18.28,89.12 4.69,5.99 3.63,14.63 -2.35,19.32 -5.98,4.69 -14.64,3.64 -19.32,-2.34 -25.31,-32.32 -33.78,-73.58 -23.21,-113.19 8.96,-33.46 30.29,-61.37 60.21,-78.71 29.94,-17.33 64.83,-21.97 98.26,-13.06 24.1,6.42 45.66,19.53 62.36,37.91 3.51,3.86 4.42,9.18 2.81,13.78z"/>
  <path class="fil13" d="M5577.02 924.87c-2.34,-44.74 -33.02,-84.83 -78.63,-96.99 -56.64,-15.09 -114.79,18.59 -129.88,75.22 -14.97,56.2 18.09,113.82 73.93,129.46 36.26,-40.73 84.55,-79.9 134.59,-107.69z"/>
  <path class="fil17" d="M5498.39 827.88c-6.41,-1.71 -12.82,-2.71 -19.2,-3.2 -21.86,9.06 -38.96,28.47 -44.02,53.4 -8.09,39.85 17.66,78.72 57.51,86.81 0.86,0.18 1.73,0.25 2.59,0.39 23.65,-23.4 50.15,-45.09 77.61,-63.5 -9.84,-34.86 -36.96,-63.9 -74.5,-73.9z"/>
  <path class="fil17" d="M5561.41 863.1c-0.67,1.93 -1.81,3.72 -3.44,5.19 -5.15,4.69 -13.14,4.31 -17.83,-0.85 -12.06,-13.26 -27.61,-22.72 -45.01,-27.36 -24.15,-6.43 -49.34,-3.08 -70.94,9.44 -21.62,12.52 -37.05,32.6 -43.49,56.83 -7.62,28.59 -1.51,58.39 16.77,81.72 4.3,5.5 3.32,13.42 -2.15,17.73 -5.49,4.3 -13.43,3.33 -17.73,-2.15 -23.21,-29.64 -30.97,-67.48 -21.29,-103.81 8.23,-30.69 27.79,-56.28 55.23,-72.18 27.45,-15.89 59.45,-20.15 90.1,-11.98 22.1,5.88 41.88,17.91 57.2,34.76 3.23,3.54 4.05,8.42 2.58,12.64z"/>
  <path class="fil17" d="M4846.68 1066.24c7.14,22.53 36.45,28.73 54.14,13.05 37.32,-33.08 110.1,-99.51 119.58,-122.67 12.82,-31.32 -31.54,-45.16 -42.86,-38.98 -11.31,6.19 -120.09,96.73 -130.65,129.03 -2.35,7.17 -2.07,13.72 -0.22,19.56z"/>
  <path class="fil17" d="M5186.03 761.83c1.41,23.59 28.31,36.78 49.31,25.91 44.27,-22.93 131.11,-69.52 145.97,-89.66 20.1,-27.23 -19.53,-51.5 -32.01,-48.28 -12.48,3.23 -140.13,64.39 -158.27,93.12 -4.03,6.38 -5.37,12.79 -5,18.91z"/>
  <path class="fil17" d="M5514.43 1269.41c-6.57,18.93 -28.57,33.79 -33.72,37.06 -6.41,4.08 -14.91,2.18 -19,-4.23 -4.08,-6.41 -2.18,-14.93 4.21,-19.02 11.83,-7.56 23.19,-19.58 22.81,-24.38 -0.03,-0.43 -1.32,-2.59 -7.15,-5.28 -43.17,-19.92 -90.02,-74.42 -92,-76.73 -4.93,-5.78 -4.28,-14.47 1.54,-19.43 5.79,-4.94 14.48,-4.25 19.43,1.53 0.45,0.52 44.91,52.22 82.58,69.6 18.08,8.33 22.56,20.08 23.11,28.48 0.28,4.26 -0.42,8.43 -1.8,12.41z"/>
  <path class="fil17" d="M5608.08 1408.18c-0.45,4.12 -2.8,8.36 -6.77,11.32 -47.67,35.7 -107.17,51.36 -165.78,44.03 -9.09,-1.13 -15.1,-8.7 -13.5,-16.13 1.6,-7.49 9.19,-12.17 16.99,-11.21 51.52,6.42 103.87,-7.36 145.84,-38.81 6.34,-4.75 15.32,-4.45 20.37,1.25 2.29,2.64 3.24,6.06 2.85,9.55z"/>
  <path class="fil18" d="M5241.95 1255.36l-99.66 71.83c-56.96,41.05 -136.4,28.15 -177.45,-28.79l-42.14 -58.46c-18.8,-26.08 -12.9,-62.45 13.18,-81.25l211.48 -152.43c26.07,-18.79 62.45,-12.89 81.24,13.19l42.15 58.46c41.05,56.96 28.15,136.4 -28.79,177.45z"/>
  <path class="fil19" d="M5034.8 1346.74l124.19 -346.86c-4.02,1.68 -7.95,3.71 -11.63,6.37l-90.6 65.3 -84.52 236.09c17,19.51 38.91,32.73 62.56,39.1z"/>
  <path class="fil19" d="M5088.62 1349.38c18.78,-3.08 37.18,-10.31 53.67,-22.19l41.56 -29.97 81.31 -227.07 -36.56 -50.72c-4.55,-6.32 -10.16,-11.38 -16.37,-15.27l-123.61 345.21z"/>
  <path class="fil3" d="M5300.61 1198.64c-9.17,26.4 -26.25,50.34 -50.59,67.89 0,0.01 0,0.01 0,0.01l-99.67 71.83c-63,45.43 -151.25,31.11 -196.69,-31.92l-42.14 -58.46c-11.25,-15.6 -15.74,-34.64 -12.67,-53.62 3.1,-18.97 13.38,-35.62 28.98,-46.87l211.48 -152.43c15.59,-11.24 34.63,-15.74 53.62,-12.66 18.97,3.09 35.62,13.37 46.86,28.97l42.14 58.46c27.87,38.68 33.26,86.85 18.69,128.8zm-66.71 45.54l0 0c50.7,-36.57 62.21,-107.52 25.67,-158.22l-42.14 -58.46c-14.33,-19.87 -42.15,-24.39 -62,-10.07l-211.49 152.43c-9.62,6.95 -16,17.19 -17.86,28.92 -1.9,11.71 0.87,23.46 7.8,33.09l42.14 58.46c36.55,50.69 107.53,62.22 158.22,25.68l99.67 -71.84 0 0.01z"/>
  <path class="fil18" d="M5588.31 991.35l-99.66 71.84c-56.95,41.05 -136.4,28.15 -177.45,-28.79l-42.14 -58.46c-18.79,-26.08 -12.89,-62.46 13.18,-81.24l211.48 -152.43c26.08,-18.8 62.45,-12.9 81.25,13.18l42.14 58.46c41.05,56.95 28.16,136.4 -28.79,177.44z"/>
  <path class="fil19" d="M5381.16 1082.74l124.19 -346.86c-4.02,1.68 -7.94,3.71 -11.63,6.38l-90.59 65.29 -84.53 236.09c17,19.51 38.92,32.73 62.56,39.1z"/>
  <path class="fil19" d="M5434.97 1085.38c18.78,-3.08 37.18,-10.31 53.67,-22.19l41.57 -29.97 81.3 -227.07 -36.56 -50.72c-4.55,-6.32 -10.15,-11.38 -16.37,-15.27l-123.61 345.21z"/>
  <path class="fil3" d="M5646.96 934.62c-9.17,26.41 -26.25,50.35 -50.59,67.92l-0.01 0 -99.66 71.82c-30.52,22.01 -67.79,30.81 -104.94,24.79 -37.16,-6.04 -69.74,-26.17 -91.74,-56.7l-42.15 -58.47c-23.2,-32.19 -15.88,-77.27 16.3,-100.47l211.49 -152.44c32.19,-23.21 77.28,-15.89 100.47,16.31l42.15 58.47c27.87,38.67 33.25,86.84 18.68,128.77zm-66.71 45.55l0 0c50.68,-36.57 62.19,-107.53 25.68,-158.21l-42.16 -58.47c-14.31,-19.86 -42.13,-24.38 -62,-10.06l-211.48 152.44c-19.85,14.32 -24.38,42.13 -10.06,62l42.15 58.46c17.7,24.56 43.91,40.75 73.78,45.61 29.88,4.84 59.86,-2.24 84.43,-19.94l99.67 -71.83 0 0z"/>
  <path class="fil3" d="M5316.67 1028.45c-2.3,6.64 -9.34,10.57 -16.31,8.85 -14.69,-3.6 -31.36,18 -35.01,23.98 -3.96,6.5 -12.46,8.54 -18.95,4.58 -6.49,-3.97 -8.6,-12.52 -4.56,-18.95 1.13,-1.87 28.25,-45.42 65.11,-36.37 7.39,1.8 11.91,9.28 10.1,16.67 -0.11,0.42 -0.23,0.84 -0.37,1.24z"/>
  <path class="fil3" d="M4938.14 1173.37c-1.21,3.47 -3.8,6.45 -7.42,8.06 -41.91,18.67 -175.66,141.21 -223.66,186.85 -5.52,5.25 -14.24,5.03 -19.49,-0.49 -5.24,-5.51 -5.04,-14.26 0.49,-19.48 7.2,-6.83 176.65,-167.64 231.46,-192.05 6.94,-3.1 15.09,0.03 18.19,6.99 1.48,3.32 1.54,6.94 0.43,10.13z"/>
  <path class="fil10" d="M5407.88 5700.22c0,0 -141.17,262.71 -51.17,400.05 90,137.32 525.16,444.49 731.34,364.19 206.19,-80.29 315.07,-284.45 284.92,-399.77 -30.16,-115.32 -262.42,-109.93 -347.19,-111.44 -84.78,-1.51 -159.84,-222.36 -159.84,-222.36l-458.06 -30.67z"/>
  <path class="fil11" d="M5654.97 6237.54c-168.3,-172.53 -129.66,-213.24 4.86,-264.07 86.63,-32.74 185.39,-103.95 244.78,-150.54 -23.86,-48.53 -38.67,-92.05 -38.67,-92.05l-420.36 -28.14c-13.05,56.29 -52.3,239.49 -39.99,356.43 7.82,74.33 39.87,127.93 68.16,161.96 169.24,141.85 457.72,304.29 614.3,243.32 31.14,-12.12 60.01,-27.11 86.57,-44.15 -184.09,-6.12 -409.53,-69.88 -519.65,-182.76z"/>
  <path class="fil11" d="M5986.94 5938.45c-31.23,23.95 -61.22,49.88 -89.96,77.54 -4.39,4.22 -3.4,12.99 0.49,17.13 4.59,4.9 10.7,3.79 15.12,-0.45 27.33,-26.31 55.97,-50.81 85.66,-73.59 11.33,-8.68 0.1,-29.39 -11.32,-20.64z"/>
  <path class="fil10" d="M6891.58 5348.3c0,0 -128.94,270.72 -32.83,402.63 96.14,131.91 520.38,312.05 722.56,219.74 202.18,-92.3 325.78,-201.45 290.41,-314.88 -35.37,-113.42 -267,-94.42 -351.71,-90.96 -84.7,3.46 -169.74,-212.76 -169.74,-212.76l-458.69 -3.77z"/>
  <path class="fil11" d="M7306.94 5980.28c-129.62,-60.09 -231.77,-154.86 -264.55,-218.52 -61.63,-119.67 -80.79,-115.64 141.67,-175.25 107.64,-28.84 176.75,-80.47 219.69,-126.13 -32.05,-53.83 -53.48,-108.3 -53.48,-108.3l-458.69 -3.77c0,0 -128.94,270.72 -32.82,402.63 62.03,85.13 260.71,190.25 448.18,229.35z"/>
  <path class="fil11" d="M7497.08 5557.91c-40.55,19.59 -81.71,37.51 -123.42,53.75 -12.95,5.04 -6.93,28.34 6.09,23.28 41.7,-16.24 82.87,-34.17 123.43,-53.75 5.3,-2.56 8.99,-8.2 7.2,-15.02 -1.49,-5.71 -7.95,-10.83 -13.29,-8.25z"/>
  <path class="fil5" d="M7419 4457.5c-21.75,-83.2 -722.79,-994.01 -722.79,-994.01l-65.17 -155.09 -1157.65 431.67c0,0 83.27,659.95 176.93,993.81l-340.17 960.16c0,0 149.44,419.24 620.4,123.32 0,0 361.49,-925.38 393.68,-1106.69 15.28,-86.1 -28.85,-389.7 -79.43,-684.84 -10.88,-63.5 64.04,-100.3 100.81,-49.48 175.82,242.94 459.36,639.79 546.42,790.96l-63.2 770.47c0,0 460.53,115.08 566.7,-172.24 0,0 41.76,-833.78 23.45,-908.05z"/>
  <path class="fil6" d="M6696.22 3463.5l-65.17 -155.09 -1157.65 431.67c0,0 23.52,186.35 59.61,411.09 645.63,-169.58 1064.93,-555.23 1177.71,-668.82 -9.31,-12.12 -14.49,-18.86 -14.49,-18.86z"/>
  <path class="fil6" d="M5562.81 5490.39l22.79 -573.77 -275.44 777.43c0,0 149.44,419.24 620.4,123.32 0,0 21.94,-56.17 55.46,-143.46 -325.85,12.82 -423.21,-183.53 -423.21,-183.53z"/>
  <path class="fil7" d="M7365.93 4466.79c17.88,68.41 -4.43,136.01 -49.84,150.99 -45.42,14.97 -96.74,-28.32 -114.62,-96.73 -17.89,-68.41 4.42,-136.01 49.84,-150.99 45.42,-14.98 96.73,28.33 114.62,96.73z"/>
  <path class="fil6" d="M7055.18 4712.09c7.98,-3.76 13.48,-12.34 10.81,-22.52 -2.26,-8.63 -11.9,-16.17 -19.94,-12.39 -45.68,21.56 -91.36,43.12 -137.03,64.67 -29.51,-123.29 -431.68,-611.2 -578.49,-786.34 170.56,235.41 459.39,638.76 555.49,801.55 -2.08,3.91 -2.83,8.63 -1.49,13.76 0.98,3.74 3.4,7.23 6.43,9.72l-62.11 757.25c0,0 266.29,66.38 440.58,-28.15 -136.19,13.5 -271.06,-77.56 -271.06,-77.56l-84.15 -653.48c46.98,-22.16 93.97,-44.34 140.95,-66.52z"/>
  <path class="fil14" d="M6815.1 2537.55c-79.49,-104.43 -316.91,-474.2 -487.56,-594.4 -104.34,-73.49 -226.72,30.58 -249.66,59.14 0,0 0.51,83.49 239.36,449.84 111.58,171.16 211.66,316.37 289,398.35 79.88,84.67 198.02,84.08 307.88,45.61 195.56,-68.46 357.13,-54.83 627.36,-229.24 87.42,-62.6 76.03,-167.05 -34.81,-210.88 0,0 -475.57,69.78 -691.57,81.58z"/>
  <path class="fil15" d="M6722.44 2407.69c-108.35,-153.53 -269.59,-376.27 -394.9,-464.54 -104.34,-73.49 -226.71,30.58 -249.66,59.13 0,0 0.51,83.5 239.36,449.85 62.7,96.17 121.77,184.16 175.22,257.35 134.79,-89.09 201.12,-223.74 229.98,-301.8z"/>
  <path class="fil15" d="M6808.72 2533.52c-18.01,11.01 -30.89,27.52 -44.47,43.32 -13.87,16.14 -27.75,32.29 -41.63,48.44 -3.63,4.23 -4.8,10.09 -0.71,14.6 3.39,3.74 10.93,4.98 14.6,0.72 13.35,-15.54 26.7,-31.07 40.05,-46.61 12.58,-14.64 24.77,-31.79 41.46,-42.01 11.29,-6.91 2.03,-25.42 -9.31,-18.46z"/>
  <path class="fil14" d="M8176.27 2625.17c-14.76,-64.96 -218.49,-156.48 -301.16,-246.53 -82.67,-90.06 -368.14,71.81 -368.14,71.81 0,0 -19.56,129.75 13.84,197.66 33.4,67.91 186,98.11 230.29,98.11 22.61,0 42.7,-19.08 56.98,-37.77 74.28,28.22 207.94,73.56 229.42,40.72 6.26,-9.57 6.17,-19.15 2.52,-28.12 52.83,5.52 91.52,-2.27 102.29,-26.49 3.85,-8.67 -1.94,-18.53 -13.34,-28.68 29.46,-2.41 53.7,-12.49 47.29,-40.71z"/>
  <path class="fil15" d="M8131.44 2650.24c-28.9,-11.75 -54.59,-32.8 -79.81,-50.78 -26.86,-19.16 -53.71,-38.32 -80.57,-57.48 -10.78,-7.69 -21.05,10.13 -10.37,17.75 27.72,19.77 55.44,39.55 83.16,59.33 26.09,18.62 52.22,38.85 82.12,51.01 12.24,4.98 17.57,-14.89 5.46,-19.81z"/>
  <path class="fil15" d="M8039.51 2704.59c-13.46,-5.98 -25.22,-15.5 -37.48,-23.57 -11.77,-7.75 -23.7,-15.25 -35.77,-22.5 -24.97,-14.99 -50.59,-28.86 -76.75,-41.69 -11.83,-5.8 -22.25,11.92 -10.37,17.75 26.15,12.81 51.77,26.68 76.74,41.68 12.08,7.26 24.01,14.75 35.78,22.51 12.25,8.06 24.01,17.58 37.48,23.57 11.98,5.33 22.44,-12.37 10.37,-17.75z"/>
  <path class="fil15" d="M7815.91 2701.07c-5.21,-19.13 -11.81,-38.28 -20.48,-56.13 -4.59,-9.42 -15.49,-12.24 -24.4,-16.21 -9.42,-4.19 -18.83,-8.4 -28.26,-12.59 -5.06,-2.26 -11.04,-1.47 -14.05,3.69 -2.56,4.38 -1.4,11.79 3.69,14.06 8.48,3.77 16.95,7.55 25.43,11.34 4.24,1.88 8.48,3.77 12.72,5.66 1.83,0.82 4.9,1.58 6.41,2.94 -0.41,-0.37 1.07,2.25 1.31,2.75 7.38,16.09 13.18,32.9 17.82,49.96 3.47,12.75 23.3,7.34 19.82,-5.46z"/>
  <path class="fil3" d="M5920.02 1972.11c0,0 -33.72,232.82 311.93,662.06 0,0 476.94,-215.04 526.86,-361.91 0,0 -495.61,-441.49 -641.63,-505.29 0,0 -110.76,37.97 -197.16,205.14z"/>
  <path class="fil10" d="M5310.51 1805.91c0,0 -267.74,149.03 -375.6,328.56 -67.01,111.52 525.31,1733.01 525.31,1733.01l1245.66 -427.17c0,0 -430.32,-1539.72 -565.74,-1659.41 -74.29,-65.66 -499.43,-63.04 -499.43,-63.04 0,0 -93.09,272.11 -330.21,88.05z"/>
  <path class="fil11" d="M6298.34 3580.07c-208.96,-10.84 -444.39,-51.93 -540.59,-173.99 -189.97,-241.03 -472.01,-966.17 -472.01,-966.17 -123.95,-156.62 -236.81,-262.18 -338.27,-325.05 -4.36,6.5 -8.59,13.02 -12.54,19.61 -67.01,111.53 525.31,1733.01 525.31,1733.01l838.11 -287.41z"/>
  <path class="fil5" d="M5571.86 1842.56l-29.07 19.69c4.23,6.26 411.77,618.33 620.12,1764.27l33.56 -11.51c-210.12,-1150.52 -620.34,-1766.16 -624.6,-1772.45z"/>
  <path class="fil5" d="M5157.01 2996.27c388.54,-113.59 829.23,-252.14 1295.49,-408.83 -47.9,-152.03 -97.48,-303.17 -143.81,-433.22 -463.56,158.39 -896.12,315.69 -1272.75,461.24 35.82,118.98 77.75,249.84 121.07,380.8z"/>
  <path class="fil6" d="M5035.94 2615.47c35.82,118.98 77.75,249.84 121.07,380.8 104.27,-30.47 212.41,-62.82 323.68,-96.77 -71.57,-156.66 -133.2,-305.73 -167.1,-389.63 -95.45,35.75 -188.18,71.02 -277.66,105.6z"/>
  <path class="fil3" d="M5297.47 1726.12l237.86 125 6.32 201.86 -299.18 -150.15c0,0 -17.74,-123.7 55,-176.71z"/>
  <path class="fil3" d="M5570.79 1825.33l56.32 -190.74c0,0 116.23,64.02 143.12,128.18l-48.42 189.36 -151.02 -126.8z"/>
  <polygon class="fil5" points="5570.79,1825.33 5634.51,1878.83 5613.98,1902.45 5555.84,1932.34 5537.77,1929.01 5535.33,1851.12 "/>
  <polygon class="fil10" points="6258.14,670.44 6251.35,666.24 6246.01,672.17 6237.9,678.14 6239.88,692.13 6307.93,1171.66 6337.61,1167.46 6269.57,687.92 6267.59,673.92 "/>
  <polygon class="fil11" points="6287.45,1027.41 6307.93,1171.66 6337.61,1167.46 6317.75,1027.41 "/>
  <path class="fil5" d="M6367.83 1087.38c-3.04,-10.87 -13.63,-18.11 -25.09,-16.48l-66.59 9.44c-11.47,1.63 -19.62,11.54 -19.51,22.82 -21.84,3.17 -37.01,23.39 -33.91,45.25l29.92 210.84c3.1,21.9 23.38,37.14 45.28,34.03l4.62 -0.65c4.88,4.58 11.64,7.05 18.77,6.05l66.58 -9.45c7.13,-1.01 12.94,-5.27 16.36,-11.02l4.61 -0.66c21.9,-3.11 37.15,-23.38 34.04,-45.28l-29.92 -210.83c-3.1,-21.86 -23.3,-37.07 -45.15,-34.04z"/>
  <path class="fil6" d="M6419.25 1165.58c-27,21.13 -80.3,64.74 -94.18,51.4 -12.1,-11.64 -64.04,-26.13 -97.52,-34.55l25.09 176.82c3.1,21.9 23.38,37.14 45.28,34.03l4.62 -0.65c4.88,4.58 11.64,7.05 18.77,6.05l66.58 -9.45c7.13,-1.01 12.94,-5.27 16.36,-11.02l4.61 -0.66c21.9,-3.11 37.15,-23.38 34.04,-45.28l-23.65 -166.66z"/>
  <path class="fil6" d="M6290.04 1346.89c-4.02,0 -7.54,-2.97 -8.13,-7.06l-32.37 -228.13c-0.63,-4.49 2.49,-8.65 6.99,-9.29 4.49,-0.72 8.65,2.48 9.29,6.98l32.37 228.13c0.63,4.49 -2.5,8.66 -6.99,9.29 -0.39,0.07 -0.78,0.09 -1.17,0.09z"/>
  <path class="fil6" d="M6400.71 1327.12c-4.03,0 -7.54,-2.96 -8.13,-7.06l-32.37 -228.13c-0.63,-4.49 2.49,-8.65 6.98,-9.29 4.46,-0.63 8.65,2.49 9.3,6.98l32.37 228.14c0.63,4.49 -2.49,8.65 -6.98,9.29 -0.39,0.06 -0.79,0.08 -1.16,0.08z"/>
  <path class="fil14" d="M6099.17 1336.35c-50.78,58.05 35.12,277.41 35.12,277.41 29.16,65.67 150.3,109.05 262.09,74.36 111.79,-34.7 243.56,-153.55 266.01,-167.11 22.46,-13.55 17.22,-78.48 -4.01,-94.58 -4.66,-3.54 -23.68,2.73 -50.48,14.65 33.61,-31.18 56.76,-56.65 58,-65.75 3.93,-28.59 -44.83,-99.14 -73.37,-92.64 -3.56,0.82 -10.65,3.72 -20.35,8.18 0.01,-0.01 0.01,-0.02 0.02,-0.03 15.13,-43.96 -16.29,-88.48 -47.4,-91.31 -20.95,-1.9 -141.2,52.48 -217.53,88.22 -17.32,-19.32 -41.24,-37.8 -41.24,-37.8 0,0 -116.07,28.34 -166.87,86.4z"/>
  <path class="fil15" d="M6604.12 1426.78c-34.23,21.79 -63.87,51.25 -102.22,66.03 -12.42,4.79 -4.12,23.73 8.28,18.95 40.11,-15.46 71.19,-46.13 106.96,-68.91 4.71,-3 4.75,-10.56 1.53,-14.54 -3.85,-4.75 -9.82,-4.53 -14.55,-1.53z"/>
  <path class="fil15" d="M6561.98 1278.8c-23.87,25.92 -54.85,44.37 -88.57,54.26 -5.37,1.57 -7.36,8.96 -5.34,13.61 2.48,5.66 8.24,6.91 13.62,5.34 37.42,-10.98 70.65,-32.41 97,-61.03 3.78,-4.12 1.87,-11.43 -2.27,-14.45 -4.94,-3.6 -10.64,-1.86 -14.45,2.27z"/>
  <path class="fil15" d="M6293.43 1286.51c-7.38,4.5 -14.65,9.2 -21.77,14.12 -6.9,4.76 -15.01,9.49 -20.23,16.2 -4.67,6.01 -6.13,14.11 -8.76,21.11 -2.92,7.76 -6.33,15.3 -10.15,22.65 -2.58,4.96 1.05,11.51 5.85,13.4 5.66,2.22 10.81,-0.89 13.39,-5.85 3.61,-6.92 6.84,-14.01 9.64,-21.3 1.23,-3.18 2.37,-6.39 3.43,-9.64 0.93,-2.84 1.67,-6.23 3.32,-8.2 2.15,-2.54 5.53,-4.46 8.21,-6.41 2.97,-2.15 5.97,-4.27 8.99,-6.34 6.9,-4.76 13.96,-9.3 21.12,-13.68 4.77,-2.9 4.69,-10.62 1.52,-14.54 -3.89,-4.81 -9.75,-4.43 -14.54,-1.52z"/>
  <path class="fil14" d="M5785.69 2259.11c-182.9,-48.1 -665.74,-174.94 -828.12,-22.88 -32.21,30.17 -25.14,83.47 13.28,105.19 59.13,33.43 177.31,88.91 409.1,168.31 193.28,66.21 361.54,119.06 472.95,136.07 115.06,17.56 227.1,-45.63 270.73,-153.54 76.36,-188.92 176.32,-453.41 234.91,-830.9 10.6,-117.82 -45.79,-127.06 -230.96,-67.04 0,0 -282.38,520.79 -341.89,664.81z"/>
  <path class="fil15" d="M5379.95 2509.72c145.13,49.72 276.15,91.89 379.59,117.02 9.89,-86.29 20.43,-239.46 -5.72,-375.97 -201.75,-52.52 -642.53,-158.5 -796.25,-14.55 -32.21,30.17 -25.14,83.48 13.27,105.2 59.13,33.43 177.32,88.91 409.11,168.31z"/>
  <path class="fil15" d="M5776.8 2263.22c-9.45,61.69 14.79,120.55 38.79,176 5.28,12.22 24.24,3.95 18.94,-8.27 -22.56,-52.14 -46.08,-107.27 -37.18,-165.32 2.03,-13.2 -18.52,-15.54 -20.54,-2.41z"/>
  <path class="fil3" d="M4955.82 2343.01c74.38,64.32 257.79,192.8 644.58,322.19 0,0 182.59,-446.4 122.58,-592.21 0,0 -542.48,-120.02 -696.92,-71.18 0,0 -121.85,86.68 -121.49,232.96 0.1,41.68 19.72,80.98 51.25,108.24z"/>
  <path class="fil20" d="M5120.77 2147.94c-10.27,-1.23 -83.55,12.6 -55.55,27.87 36.87,1.15 47.58,42.42 76.31,58.31 -15.65,1.85 -31.46,2.11 -47.03,-0.35 -8.25,-2.03 -11.83,10.21 -3.59,12.73 12.59,4.18 20.01,17.66 27.96,27.36 19.01,23.7 52.67,39.04 82.71,29.43 30.54,-11.33 47.39,-48.53 45.95,-79.66 -7.17,-57.57 -76.74,-78.19 -126.75,-75.7zm58.48 21.26l0 0c37.42,10.01 69.43,48.03 49.35,86.76 -22.64,61.75 -86.45,36.36 -113.34,-7.45 9.24,-0.26 77.81,-0.2 54.6,-18.51 -17.85,-2.87 -30.21,-11.38 -41.71,-24.86 -12.14,-14.38 -23.33,-31.22 -41.75,-38.01 30.03,-9.42 63.12,-7.71 92.84,2.06z"/>
  <path class="fil10" d="M5150.78 2349.95c-11.06,-0.58 -22.28,-2.41 -33.47,-5.61 -73.32,-20.91 -117.4,-92.5 -98.26,-159.55 9.3,-32.6 31.94,-59.24 63.76,-75.02 31.6,-15.67 68.49,-18.74 103.91,-8.64 35.41,10.1 65.13,32.18 83.71,62.18 18.69,30.21 23.85,64.78 14.55,97.37 -16.21,56.83 -72.72,92.46 -134.2,89.26zm1.55 -241.44l0 0c-22.2,-1.16 -44.11,3.21 -63.72,12.94 -28.49,14.14 -48.74,37.9 -57.02,66.93 -17.16,60.14 22.9,124.49 89.31,143.45 66.43,19 134.4,-14.56 151.56,-74.7 8.29,-29.03 3.64,-59.9 -13.1,-86.94 -16.85,-27.23 -43.91,-47.3 -76.19,-56.51 -10.21,-2.91 -20.56,-4.63 -30.83,-5.15z"/>
  <polygon class="fil13" points="6857.73,385.79 6707.73,385.79 6707.73,327.21 6857.73,327.21 "/>
  <polygon class="fil20" points="6422.29,401.76 6147.4,401.76 6147.4,362.89 6422.29,362.89 "/>
  <polygon class="fil20" points="6596.47,423.74 6457.97,423.74 6457.97,362.89 6596.47,362.89 "/>
  <polygon class="fil5" points="6109.62,171.19 6109.62,385.79 6655.22,385.79 6655.22,362.89 6890.25,362.89 6890.25,171.19 "/>
  <path class="fil5" d="M6619.03 373.22c-1.08,9.31 -0.47,19.73 4.91,27.76 4.36,6.5 11.11,10.43 18.83,11.39 15.84,1.98 31.75,-8.27 39.05,-21.98 5.33,-10.02 6.18,-21.43 3.82,-32.42 -1.11,-5.16 -9.04,-2.98 -7.93,2.19 3.28,15.26 -2.08,30.9 -14.92,39.11 -5.41,3.46 -11.11,5.33 -17.26,5.13 -5.2,-0.17 -10.02,-2.14 -13.65,-6.41 -1.96,-2.3 -3.52,-5.99 -4.32,-9.57 -1.1,-4.97 -0.9,-10.17 -0.32,-15.19 0.26,-2.23 -2.08,-4.09 -4.11,-4.12 -2.44,-0.02 -3.86,1.92 -4.12,4.12z"/>
  <polygon class="fil13" points="5851.12,0 5996.73,342.39 6590.52,342.39 7184.31,342.39 7329.92,0 "/>
  <path class="fil10" d="M5861.6 24.65l1101.65 14.66c98.51,1.31 171.72,91.61 152.65,188.26l-5.31 26.9 -1125.72 60.02 11.86 27.9 593.79 0 593.79 0 145.62 -342.39 -1478.81 0 10.48 24.65z"/>
  <polygon class="fil13" points="6403.8,813.22 6183.08,589.41 6608.1,465.9 7033.12,342.39 6966.73,649.64 "/>
  <polygon class="fil11" points="7028.71,362.84 7033.12,342.39 6183.08,589.41 6197.77,604.31 "/>
  <polygon class="fil10" points="6403.8,813.22 6966.73,649.64 7023.75,385.79 6903.48,616.31 6391.73,800.98 "/>
  <polygon class="fil5" points="6427.71,649.78 6329.86,678.22 6267.53,606.13 6403.55,566.61 "/>
  <polygon class="fil6" points="6409.04,585.52 6403.55,566.61 6267.53,606.13 6281.7,622.53 "/>
  <polygon class="fil5" points="6558.77,611.71 6465.8,638.72 6441.63,555.54 6534.59,528.53 "/>
  <polygon class="fil6" points="6540.09,547.45 6534.59,528.53 6441.63,555.54 6447.13,574.46 "/>
  <polygon class="fil5" points="6689.81,573.62 6596.85,600.64 6572.68,517.46 6665.65,490.44 "/>
  <polygon class="fil6" points="6671.14,509.36 6665.65,490.44 6572.68,517.46 6578.18,536.38 "/>
  <polygon class="fil5" points="6858.94,524.47 6956.81,496.03 6970.79,401.76 6834.78,441.29 "/>
  <polygon class="fil6" points="6967.62,423.21 6970.79,401.76 6834.78,441.29 6840.28,460.21 "/>
  <polygon class="fil5" points="6727.9,562.55 6820.86,535.54 6796.69,452.36 6703.73,479.38 "/>
  <polygon class="fil6" points="6802.19,471.28 6796.69,452.36 6703.73,479.38 6709.23,498.29 "/>
 </g>
</svg>
